/* XPM */
static char *_950ad7061904df580f26d0e9f81fb14LqTqu4NfhNpqi6pp[] = {
/* columns rows colors chars-per-pixel */
"64 64 153 2 ",
"   c #8FBA0D",
".  c #90BA0E",
"X  c #92BB15",
"o  c #96BD1D",
"O  c #99BF25",
"+  c #9ABF28",
"@  c #9AC026",
"#  c #9CC12A",
"$  c #A5C63F",
"%  c #A6C542",
"&  c #A7C844",
"*  c #A8C945",
"=  c #A8C649",
"-  c #ABC750",
";  c #D6E0B9",
":  c #DAE4BD",
">  c #DDE6C2",
",  c #DFE8C3",
"<  c #E1EAC6",
"1  c #E3ECC9",
"2  c #E2E7D3",
"3  c #E5EBD5",
"4  c #E5E9D6",
"5  c #E5EAD6",
"6  c #E6EBD6",
"7  c #E6EAD7",
"8  c #E6EBD7",
"9  c #E7EBD7",
"0  c #E4E9D4",
"q  c #E6ECD6",
"w  c #E7ECD6",
"e  c #E7ECD7",
"r  c #E7EDD7",
"t  c #E5EAD6",
"y  c #E6EAD8",
"u  c #E6EBD8",
"i  c #E7EBD9",
"p  c #E6EADA",
"a  c #E7ECD8",
"s  c #E7ECD9",
"d  c #E7ECDA",
"f  c #E7EBD9",
"g  c #E8EDD8",
"h  c #E8EDD9",
"j  c #E8EED8",
"k  c #E9EED8",
"l  c #E9EED9",
"z  c #E8ECDA",
"x  c #E8EDDA",
"c  c #E9EDDA",
"v  c #E8ECDB",
"b  c #E8EDDB",
"n  c #E9EDDB",
"m  c #E9EEDA",
"M  c #E9EEDB",
"N  c #EAEFDA",
"B  c #E8ECDC",
"V  c #E8EDDC",
"C  c #E9EDDC",
"Z  c #E8ECDD",
"A  c #E9EDDD",
"S  c #E9EEDC",
"D  c #E9EEDD",
"F  c #EAEEDC",
"G  c #EAEFDC",
"H  c #EBEFDC",
"J  c #EAEEDD",
"K  c #EBEFDD",
"L  c #EAEDDF",
"P  c #EAEEDE",
"I  c #EBEFDE",
"U  c #EBEFDF",
"Y  c #E9EEDB",
"T  c #EBF0DC",
"R  c #EBF0DD",
"E  c #EBF0DF",
"W  c #ECF0DF",
"Q  c #ECF1DF",
"!  c #EDF1DF",
"~  c #EBF0DD",
"^  c #EBEFE0",
"/  c #ECEFE0",
"(  c gray93",
")  c #EEEEEC",
"_  c #EEEFEC",
"`  c #EEEFED",
"'  c #EFEFED",
"]  c #EEEEEE",
"[  c #EFEFEE",
"{  c #EFEFEF",
"}  c #EFEFEE",
"|  c #ECF0E0",
" . c #EDF1E0",
".. c #ECF0E1",
"X. c #EDF1E1",
"o. c #EEF2E0",
"O. c #EEF2E1",
"+. c #EDF1E2",
"@. c #EDF1E1",
"#. c #EFF0ED",
"$. c #EFF0EE",
"%. c #EFF0EE",
"&. c #F0F0EE",
"*. c #F0F1EE",
"=. c #F0F1EF",
"-. c #F1F1EF",
";. c #F1F2EF",
":. c #F1F2EF",
">. c #F0EFF1",
",. c #F0EFF1",
"<. c gray94",
"1. c #F0F0F1",
"2. c #F1F1F1",
"3. c #F2F2F0",
"4. c #F2F3F0",
"5. c #F2F3F1",
"6. c #F0F0F2",
"7. c #F1F1F2",
"8. c #F1F0F3",
"9. c #F2F1F2",
"0. c #F2F1F3",
"q. c gray95",
"w. c #F2F2F3",
"e. c #F3F2F3",
"r. c #F3F3F3",
"t. c #F3F4F2",
"y. c #F2F1F4",
"u. c #F2F2F4",
"i. c #F3F2F4",
"p. c #F3F3F4",
"a. c #F3F2F5",
"s. c #F3F3F5",
"d. c #F4F3F4",
"f. c #F4F3F5",
"g. c #F4F3F6",
"h. c #F4F4F4",
"j. c #F4F4F5",
"k. c #F5F4F5",
"l. c gray96",
"z. c #F4F4F6",
"x. c #F5F4F6",
"c. c #F5F5F6",
"v. c #F6F5F7",
"b. c #F6F6F6",
"n. c #F6F6F7",
"m. c gray97",
"M. c #F3F3F3",
"N. c #F6F5F8",
"B. c #F7F6F8",
"V. c #F7F6F8",
"C. c #F8F8F8",
"Z. c gray98",
"A. c #F8F8F8",
/* pixels */
"Z.( b.( b.<.b.( b.<.b.<.<.b.<.b.<.b.{ Z.( b.( Z.( Z.( b.( B.&.b.$.b.<.<.b.<.b.( b.( b.( Z.( Z.( Z.( b.( Z.( b.<.b.<.b.<.<.b.<.b.",
"( b.<.b.<.b.<.b.<.b.<.b.b.<.b.<.b.( b.( b.{ b.{ b.( b.{ b.( b.<.t.>.b.<.<.b.<.b.( b.<.b.<.b.( b.( b.<.b.( b.<.b.<.b.b.<.b.<.b.( ",
"b.<.b.<.b.( b.<.b.<.<.<.b.<.<.b.<.b.( b.{ b.<.b.{ b.{ b.>.b.( b.p.p.<.b.b.<.b.>.b.<.b.<.b.( b.<.b.<.b.<.b.<.b.<.<.<.b.<.b.<.<.b.",
"( b.( b.<.b.<.b.<.b.<.b.<.<.b.<.b.<.b.<.b.( b.{ b.{ b.<.b.<.b.&.J u t.<.<.f.<.t.<.b.( b.<.b.<.b.( b.( b.( b.<.b.<.b.<.b.<.<.b.<.",
"Z.( b.<.b.( b.<.b.<.b.<.<.b.<.b.>.b.( b.( b.<.b.{ b.$.b.{ b.>.h % % u p.h.<.h.<.<.<.b.<.b.>.b.( b.<.b.( b.<.b.<.b.<.b.<.<.b.<.b.",
"( b.<.b.<.b.<.b.<.b.<.<.b.<.b.<.b.<.b.&.b.<.b.<.b.<.b.<.b.{ b.8 @ @ h p.<.b.<.b.<.b.<.b.( b.&.b.<.b.<.b.<.b.<.b.<.b.<.b.b.<.<.<.",
"b.<.b.( b.<.b.<.b.<.<.b.<.<.<.b.<.b.<.b.<.b.( b.( b.<.b.{ t.p.h # # 8 p.h.<.h.<.b.<.b.&.b.<.b.>.b.<.b.( b.<.<.<.b.<.<.<.<.b.b.b.",
"<.b.<.b.<.b.<.<.<.b.<.b.b.b.<.<.t.>.b.<.b.<.b.$.b.<.p.<.b.>.f.u # # q b.<.b.<.h.<.p.<.h.<.b.&.b.<.b.<.b.<.b.<.b.b.<.b.<.b.<.<.<.",
"b.<.b.<.b.<.b.<.<.b.<.<.b.<.<.b.<.b.<.b.<.h.<.b.<.t.<.b.<.p.p.h # # w h.r.<.b.<.b.<.b.<.b.<.b.<.b.<.b.<.b.<.b.<.<.<.b.<.b.b.<.b.",
"<.b.<.b.<.b.<.b.<.<.b.<.<.b.b.<.b.<.<.h.b.<.h.<.b.<.b.<.b.{ ^ > @ @ : h r.<.<.f.<.h.<.r.<.b.<.h.<.b.<.b.<.b.<.b.<.b.<.<.<.<.b.<.",
"h.<.h.<.<.h.b.<.b.<.b.<.b.<.<.b.<.h.<.b.<.b.<.b.<.f.<.f.p.d * @ . X # & g p.h.<.h.<.b.<.h.<.h.<.<.b.<.<.<.p.b.<.b.<.b.b.b.<.<.b.",
"<.h.<.b.<.h.<.<.<.b.<.b.<.<.b.<.b.<.b.<.h.<.h.<.b.<.b.<.f.q @   X X . # g b.<.r.<.b.<.h.<.b.<.r.<.<.b.<.<.b.<.<.<.b.<.<.<.<.b.<.",
"<.b.<.b.<.b.<.b.<.p.b.<.b.b.<.<.h.<.b.<.<.<.b.<.<.<.b.<.p.d @ X & & X + g f.<.b.r.h.<.h.<.b.<.b.b.<.<.b.<.b.<.b.f.<.<.b.b.<.<.b.",
"b.<.b.<.h.f.h.<.b.<.h h &.<.<.b.<.b.<.h.b.b.<.f.<.b.<.b.p.q # X = & o + 9 f.h.<.b.<.b.<.h.<.r.<.<.b.b.<.t.&.J h <.b.<.<.<.b.<.<.",
"<.b.<.b.<.<.<.b.<.J & & J f.b.<.f.<.p.<.t.<.t.<.b.<.b.<.b.8 # X = = X + g f.<.b.<.h.<.h.<.b.<.b.<.<.<.b.p.J $ & h b.<.b.b.<.b.<.",
"b.<.h.<.b.<.b.<.f.h @ @ : J $.b.<.b.<.b.<.b.>.b.<.t.<.b.p.h # X = = X + 9 r.h.<.h.<.b.<.b.<.h.<.b.<.b.&.R : O O h p.b.<.<.b.<.b.",
"( b.<.b.<.p.<.b.<.d # X O & J p.f.>.b.<.<.<.b.<.b.{ p.<.N.d # X = = X @ d b.<.p.<.b.<.b.<.b.,.b.<.b.<.! & O . # 8 f.<.b.<.<.b.<.",
"b.<.b.{ b.<.b.<.b.d # X   O > ^ $.f.<.b.<.b.<.b.$.b.<.t.u , @ X = = X @ > J t.<.b.<.p.{ b.&.h.>.b.( O.: O   . @ h <.b.<.<.b.<.b.",
"( b.<.b.<.b.<.<.p.u #     X O & J <.b.<.b.( b.<.b.<.b.d % @ X X = = X X O % B p.<.<.{ b.( b.&.b.>.^ & + X . . # 8 b.<.r.b.<.b.,.",
"Z.( b.&.b.<.b.<.N.d #     .   O : ! &.b.<.b.<.b.( b.<.d #     X = = X X   # u p.b.<.b.&.b.<.b._ O.: O . . X . + h r.b.<.<.<.&.b.",
"( b.<.b.<.b.( b.p.u #   .     X O & J { b.&.b.{ b.{ N.0 #   . X = = X . . # d p.<.b.( b.&.b.<.O.& O X   . . . + 0 b.<.<.b.<.b.<.",
"Z.( b.( b.<.b.<.b.J % @ X X X X   O : O.( b.{ b.$.b.<.T #   . o = = X . . # d p.b.<.b.<.B.( O.; O . X X   X O % J p.b.b.<.b.<.b.",
"( b.<.b.<.b.<.b.<.<.J : @ X % % X X O & O.<.b.{ b.$.m.q #   . X = = X X   @ u b.<.b.<.b.>.! & O X X % % X + : U &.b.<.<.<.<.b.( ",
"Z.( b.( b.<.b.( b.<.f.J + X % % o X   O : O.( b.$.m.<.Q #   . X = = X   X # u <.b.&.b.( U ; O   X o % % X + U f.p.<.b.<.b.b.<.b.",
"( b.( b.( b.<.b.<.b.<.8 # X X o & % X X O & @.>.v.,.B.0 # . . X = = X X   # j m.&.b.>.O.& O X X % % o X X # 2 N.<.b.<.<.b.<.b.( ",
"Z.( b.<.b.( b.<.b.<.b.h @     X % % o X   + : @.) v.>.N # . . X = = X     # d p.f.,.O.: O   X o % % X .   # J <.b.<.b.<.<.b.<.b.",
"( b.<.b.<.b.( b.<.b.<.8 @   X   X o % $ X . + = ! >.B.0 # . . X = = X     # d p.<.O.& O X X % % O X . .   # 2 b.<.b.<.b.b.<.b.<.",
"Z.( b.<.b.<.b.<.b.<.f.J $ @ X X   X = = o     + 0 B.>.h # . . o = = X X   # d t.N.0 + . . X = = X   . X @ % O.<.<.<.b.<.<.<.<.b.",
"( b.( b.<.b.<.b.<.<.<.<.J : @     o = = X .   + N <.b.0 # . . X = = X .   # B c.r.U + . . X = = X .   O ; ! ( b.<.<.<.b.b.<.b.<.",
"b.<.b.<.b.<.b.<.b.<.b.<.b.h @     X % % o X   + : U ,.h # . . X = = X . . # d <.U : + . X o % % o   . # J p.b.<.b.b.<.<.<.b.<.b.",
"<.b.( b.( b.<.<.<.b.<.b.p.8 @   . . X O % % X X + & o.9 # . . X = = X X   # B | % O X X % % o X . .   # 8 b.<.b.<.b.<.b.b.<.<.<.",
"b.<.b.<.b.<.b.<.b.<.r.<.p.J & @ . . . X % % o X . O : < $ @ . X = = X . @ % , : +   X o % % X . . X O & ! <.<.<.b.<.b.<.<.b.<.b.",
"( b.<.b.<.b.<.b.<.b.<.r.r.&.J : +   . . X o % % X X O & 1 > + X = = X @ , 1 % @ X X % % o X . . . + : / $.b.&.p.<.b.<.b.<.<.b.<.",
"b.<.b.<.b.<.t.<.r.<.b.<.<.f.f.h + . . .   X = = X .   O > > + X = = X @ , , @     X = = o   . .   + g f.b.<.<.p.b.<.b.<.<.b.<.t.",
"<.<.<.t.<.p.<.p.<.b.<.b.b.<.f.8 + X   . . o = = X . . X + + X X = = X X # @ X     X = = X   . .   @ u f.<.b.<.b.<.b.<.p.b.<.b.<.",
"b.p.b.<.b.<.b.<.b.<.b.<.<.b.f.h % + X     X % % o X . .   X   o = = X . .   . . o o % % X . . X @ % g f.b.<.p.<.t.<.b.<.<.p.<.b.",
"<.<.b.<.t.p.p.p.<.f.p.p.f.f.f.<.N > + . . X X o % % X   . . . X = = X . . . . X % % o X X     O > J <.b.f.f.p.p.p.f.p.p.b.<.p.b.",
"<.b.t.<.q T 8 q q h q q g g 9 g r.B % # X     X % % o X .   . X = = X . . . X O % % X .   X + % J <.u h 8 g q h 8 q q g 8 d <.<.",
"b.<.b.d $ @ # # # # # # + + + % J r.U < +   . . X o % % X   X X = = o     X % % o X X     O > ^ f.B % @ @ # # @ # # # # # % h b.",
">.b.<.h % @ . . . . X X X X   O : 8 h : % + X . . X % % O X   X = = X   X o % % X     X @ % > ^ 8 , @ . X X X X .     . @ % g p.",
"b.( b.( J : # . . X % % = % X . # # + % < > + . . X X o % % X X = = X X % % o X       + > , % @ + + . X % = = $ X .   @ : J &.b.",
"( b.<.b.<.J & @ X X % = = % O X X X   + < : O .       X % % o o = = o O % % X     X   + > 1 @ . X X X o % = = & X X @ & h b.p.{ ",
"b.<.b.<.b.&.h : O   X o X o % % & % X X # # X . X X . . X o % = - = = % o X . . . .   X + + . . % = = % o X o X . @ : h &.p.<.b.",
"( Z.( b.,.b.<.! & O X . X X % = = % o X X X X X X X X X X o = - - - - = O X o X X o X X X X X O % = = % X   . X @ % h b.p.<.b.<.",
"A.<.b.<.h.&.b.( J > O . . X X X X o & = = = = = = = = = = = - - - - - - = = = = = = = = = = = % o X X X X     @ , h t.<.<.b.<.b.",
"( b.( b.&.b.&.b.p.J & + + + + + . X % = = = = & = = = = = = - - - - - - = = = = = = = = = = = % X X + + # @ @ % u N.<.b.b.<.b.$.",
"Z.( b.<.b.<.b.>.b.&.B g g g y < O   X X X o X X o X X o X o = - - - - = O X X X X X X X X X X X   O 1 0 J 8 J u <.p.b.<.p.<.<.b.",
"( b.&.b.( b.( b.<.f.<.f.f.f.N.g & + # # + # + + .     . X o % = - = = % o X     . X + # # # # @ + % p B.<.N.<.b.<.b.<.<.b.<.b.( ",
"Z.( b.<.b.<.b.<.b.<.b.<.<.b.<.<.u h 2 R 2 R 4 1 @   . X % % o o = = o O % % X .   # , 0 T 2 T 2 U 0 h.,.b.<.b.<.b.<.b.<.<.b.<.b.",
"( b.( b.<.b.( b.<.b.<.t.b.<.b.<.b.<.N.<.N.$.+.: + . X o % % X X % % X X % % o X . O > O.,.B.<.B.>.B.( b.( b.<.b.<.<.r.<.b.<.b.<.",
"A.<.b.<.b.<.b.<.<.<.b.<.<.b.<.b.<.b.( b.<.O.* O X X & % o X X . X X . . X O % % X X O * ! <.b.,.B.( B.,.b.<.b.<.b.<.b.b.b.<.<.b.",
"( b.( b.<.b.<.<.<.b.<.b.p.<.b.<.b.<.b._ O.; @   X o % % X .   . . . . .   X % % o X . O : ! ( b.&.b.&.h.<.b.<.b.<.b.<.<.<.<.b.( ",
"A.( b.{ b.{ b.<.b.<.b.<.<.b.<.b.<.b.<.O.& O X X % % O X   . X   . . .   . . X o & % X . O * O.<.b.$.b.<.b.<.b.<.b.r.<.<.r.<.<.B.",
"<.b.<.b.{ b.<.b.<.b.<.b.b.<.<.<.b.&.J : O     X % % X .   X + + X . + + X . . X $ % o     O : J _ b.( b.( b.<.<.<.<.b.b.b.<.b.<.",
"b.{ b.( b.<.p.<.f.<.b.<.<.p.t.b.<.U & O X   . X X X . .   + : > + + : > +   . X X X       X O * R { b.<.b.<.b.<.b.<.b.<.<.b.<.b.",
"<.b.<.b.<.b.<.b.<.h.<.<.b.<.b.<.p.8 #   . . . .     . X + % / g + + B ^ % O X . . . . .   X   @ 8 b.<.p.<.b.<.b.b.<.<.t.h.<.h.<.",
"b.<.b.<.b.<.b.<.b.<.h.<.t.<.b.<.p.h @   .   X         @ : J &.g + + 8 <.h : @     .   X       @ h <.b.<.b.<.b.<.<.r.b.<.<.b.<.b.",
"<.b.<.b.<.b.<.b.<.h.<.b.b.<.b.<.b.h & @ # # # @ # @ @ & J p.b.8 # + g r.b.J & # # @ @ # @ # O & h p.<.b.r.<.<.b.<.b.r.<.b.<.<.<.",
"f.<.b.<.<.b.b.<.b.<.b.<.<.b.<.b.<.<.u h u h 8 h u h 8 h &.p.f.h # # 8 r.h.&.h 8 h 8 g 8 R q h u <.r.b.<.b.<.b.<.<.r.b.b.b.<.b.<.",
"<.h.<.b.<.<.<.<.<.h.<.h.<.<.b.<.b.<.p.b.p.p.f.p.f.b.f.p.b.<.<.d # # g r.<.r.f.<.p.b.<.f.p.p.p.b.<.f.r.<.b.<.<.b.b.<.<.<.<.<.b.r.",
"t.b.<.<.<.b.<.b.b.<.<.b.b.<.b.<.h.<.b.<.h.<.f.t.<.<.b.<.b.<.b.q @ O g r.h.h.<.h.<.b.<.p.<.h.<.h.r.b.<.h.b.<.r.<.<.b.b.<.b.<.<.b.",
"b.<.<.b.<.b.b.<.<.<.b.<.<.b.b.<.<.b.<.h.<.b.<.<.p.f.<.h.<.h.<.J & & d b.h.<.h.r.t.f.b.<.b.<.b.<.h.<.b.<.<.<.b.<.<.r.<.<.<.b.r.<.",
"<.b.<.b.<.<.<.b.<.b.<.b.b.<.<.<.b.<.<.<.b.<.b.<.b.<.b.<.h.<.p.<.g g r.<.r.h.<.h.<.<.<.b.<.b.<.b.<.b.<.b.<.b.b.<.b.<.<.b.b.r.b.<.",
"Z.( b.<.b.<.b.<.b.<.b.<.<.b.<.b.<.b.<.b.<.b.<.b.( b.<.b.,.b.>.p.p.f.<.r.h.<.h.<.b.&.b.<.b.( b.( b.<.b.( b.( b.<.b.r.b.<.<.<.<.b."
};
