/* XPM */
static char *d20f9c0547344cfcb16d2378b5b1ac23P4Y2LIvVlqLod3d4[] = {
/* columns rows colors chars-per-pixel */
"64 64 124 2 ",
"   c #8FBA0D",
".  c #90BA0F",
"X  c #92BB12",
"o  c #95BC1B",
"O  c #99BC1C",
"+  c #97BD20",
"@  c #9ABD23",
"#  c #9BBF2A",
"$  c #A1BE27",
"%  c #A2BE29",
"&  c #A6BE31",
"*  c #ABBE36",
"=  c #ACBE3A",
"-  c #9CC02C",
";  c #9EC132",
":  c #A5C02D",
">  c #A0C236",
",  c #AAC134",
"<  c #A2C33B",
"1  c #ADC13A",
"2  c #B1C23D",
"3  c #B1BD42",
"4  c #C1BD5D",
"5  c #C8BE65",
"6  c #CEB57D",
"7  c #D4BE77",
"8  c #D2B67E",
"9  c #D5B87E",
"0  c #D9BB7E",
"q  c #A6C544",
"w  c #A7C548",
"e  c #AAC64D",
"r  c #B4C243",
"t  c #B8C546",
"y  c #B6C34B",
"u  c #BAC34B",
"i  c #ABC750",
"p  c #BDC352",
"a  c #C2C555",
"s  c #C4C45B",
"d  c #C8C45F",
"f  c #C7C85C",
"g  c #CBCB5F",
"h  c #C5C161",
"j  c #CBC563",
"k  c #CEC965",
"l  c #CEC569",
"z  c #CDC868",
"x  c #D0C667",
"c  c #D2CA66",
"v  c #D1C46C",
"b  c #D3CA6C",
"n  c #D5C574",
"m  c #DAC476",
"M  c #D5CA72",
"N  c #D9CB74",
"B  c #DCC37E",
"V  c #D7CC78",
"C  c #DDCA7C",
"Z  c #DFD07D",
"A  c #E1CC7E",
"S  c #E5D17F",
"D  c #D5BC82",
"F  c #DCBE83",
"G  c #E1BF84",
"H  c #DEC185",
"J  c #DECB82",
"K  c #DEC48A",
"L  c #DDC98D",
"P  c #E3C386",
"I  c #E8C687",
"U  c #E3CB83",
"Y  c #E9CA87",
"T  c #E4C689",
"R  c #E8C789",
"E  c #E6C98C",
"W  c #EACB8C",
"Q  c #ECCB8C",
"!  c #E8CC8D",
"~  c #E8CD8F",
"^  c #EBCD8F",
"/  c #ECCC8C",
"(  c #EDCD8F",
")  c #F1CE8E",
"_  c #E7D184",
"`  c #E7D18B",
"'  c #EDD18D",
"]  c #EDD08F",
"[  c #F1D08F",
"{  c #F1D18F",
"}  c #E5CD91",
"|  c #E7CC90",
" . c #EACD90",
".. c #E9CE90",
"X. c #EBCE90",
"o. c #EACF90",
"O. c #ECCE90",
"+. c #ECCF91",
"@. c #EDCF91",
"#. c #F1CE90",
"$. c #EAD092",
"%. c #EDD293",
"&. c #EFD292",
"*. c #EED393",
"=. c #EDD294",
"-. c #EED597",
";. c #EED796",
":. c #ECD698",
">. c #EFD89A",
",. c #F1D191",
"<. c #F3D392",
"1. c #F5D291",
"2. c #F3D493",
"3. c #F4D491",
"4. c #F6D592",
"5. c #F2D494",
"6. c #F0D596",
"7. c #F2D596",
"8. c #F6D594",
"9. c #F5D694",
"0. c #F5D897",
"q. c #F3D798",
"w. c #F4D99A",
"e. c #F4DB9B",
/* pixels */
"+.+.( X.` ^ ~ Q I P P Q ( ,.4.4.,.E R F F T P E =.6.#.| E E Q ^ -.6.1.{ Q E ~ ~ +.E E E T R R +.#.+.#.X./ / / ( $.3.' T P A R #.",
"+.+.+.^ ~ ^ E Q R T P Y ) [ 4.4.,.) E T H K H I +.#.+.X.( / Q ^ $.$.$.^ ^ Q ~ ^ +.Q E T T E Q Q 5.+.@.Q ( $.{ ( 3.$.' I P P Q #.",
"{ { ,.( ^ ` ^ Q ^ T P E { 1.4.4.3.,.{ ^ R I P ! Q E ( +.( E E T ^ ^ ~ ~ W ^ ^ ( #.T T T T Q !  .,.7.#.#.{ -.$.] ] ( ( P P Q ) +.",
"1.4.,.^ T T P P E T P ^ =.6.4.3.4.4.1.1.$.( E E Q Q ( +.$.^ W Q T T L E W ( ^ Q +.! R T E !  .+.,.,.#.+.` ^ ( E P E P P R ,.,.,.",
",.4.,.^ K F F H K P P ^ -.w.6.,.,.4.,.1.1.{ ) ( R R ^ ^ $.( ( ] E E E ^ ^ $.3.^  .E ! R ! ~ E E +.#.7.,.$.Q T K H P P R Q ) ,.{ ",
",.,.$.~ P F F H H K K ^ 6.w.e.,.^ ^ ! ( ( ( ) ) E P R E ( ,.$.,.{ $.^ | ` $.] ^ X.E ! Q E T R T R E ,.6.] Q T K H P P P R ! ] ] ",
"X.$.( ~ T P P P P E T ^ $.w.q.$.^ P P K P H P P P P R R ( ( ^ _ _ 3.$.$.] ] ^ W T P P T T G F F F T X.=.{ ( ( X.E Q Q R T P Q ( ",
"E E R ^ ~ Y T ( Q Q Q ( $.6.6.$.T H F F F 9 0 0 P P E Q Q Q J & , ~ 3.$.( ( W E P F K T P G F D F R $.X.( { -.,.] { ) Q I P U ^ ",
"T H H T Q I Y ( ! ^ ^ E ) 6.3.+.T H H D F D 0 F H P Q ( Q R B @ @ T $.^ ^ ^ ^ Q P P I E T H F 9 0 K $.E / $.:.:./ { { ( ( P Q ^ ",
"K H H T Q Y Q ( ^ ^ E ( ^ ,.6.+.~ K K K I T P P P E E Y Q R 0 $ % U ^ ^ ^ ( ( ^ P Q ^ ` ( T H D 9 F Q E Q ` $.$./ ) ( ! E ^ ~ W ",
"^ T P T E Q ( ( ~ ^ E ) #.,.#.,.~ K K R ^ ) ( Q E E E Q R P H @ : T W / E $.` ^ E Q $.,.,.Q P F 0 F H E ^ ^ E E Y Q ( ^ E ~ ^ ^ ",
"( ( Q Q Q ( $.,.` ^ E E +.#.8.6.| T K ~ ( ) ) Q ( E ^ ] ( T m $ $ A Y W *.$.^ E P I / $.] / Q R P P P Q ^ $.~ T P Q Q E ~ ^ ( $.",
"( ( ) Q Q ^ ` ,.,.] E E E ,.6.,.~ P H R ^ ^ ^ R E E E $.] a $ X X @ s ^ $.$.^ P P P G R ) Q Y R Q Q E Q ( ( ^ P P R I Q W E / ] ",
"R E ^ R P E ^ ^ ,.,.( E E +.,.,.^ T H R E ~ T P H T I / { t . X X . r ~ ^ ( W P P P G I R Q Q P Q Q ^ Q ) ( ^ Q R I I ) W / Q Q ",
"P T ~ T E P T E ( ] Q Q E X.E ( P P K T T T P K T P P H R r . q < X r ~ E ^ E E P C G I Q T T P P P I E ( ( ( ( R I Y ) { W Q I ",
"P P ~ ~ E T H P Q ( Q Q k k E P H P T ~ T P T E I P F 0 H 3 X q q X r ~ E ^ ^ E P P Y Q Q R T P P H 5 k Q ( E E I Y / ) ( ^ ^ T ",
"R E ( ( ^ E R R I ) ) Y $ % I I I Y Q Q E P ^ ~ Q Y P 0 0 3 X q q   r ^ ^ $.( E R Y R E E ^ ' ^ P B @ $ E E ( ^ ( ) / Q Y ^ ^ T ",
"P Q ( $.` E E E Q ) Y A $ O * j Q R R ^ ( Q E ~ Q Q R G G = X q q   r ^ ( ( ( Q Q P Q Q ^ X.` ^ d * o $ J R Q ^ ) ] ( Y R ^ ] Y ",
"Q Q ( { ,.+.( Q Q Y P J $ .   3 U P Q Q ] ] E E I P Q T H = . q q . r T I ! E ( E ^ E ^ E ~ ^ U 3     $ H H H R ( / / Q / { ( / ",
"Q ! { { ,.+.E Q P P G B $ . . X $ v E ) { -.( T F P T l @ o X q q X X $ b ( E Q R E ( ^ X.X.v @ O     $ B D D F E ( ] ] ] { { { ",
",.{ { { ,.$.( Q P H H B @ . . . . u N ] 3.e.6.^ P P T s . . X q q . . . c ) ) Q ^ ~ ^ $.,.N p .   . . $ B F 0 F I W ^ ^ { { { [ ",
"4.4.{ { #.$.^ E P K T J $   . . . . : U 8.0.w.6.) Q T 5 . X X q q X . X c [ ) ) ^ ^ $.,.U @ X . . . . $ P R P P T E W Q Q ) 4.9.",
"6.3.,.( Q ^ ^ E R T ^ J 4 =   o - o X u k ^ =.-.( ( Y d X . X w q X . . x ) Q Q E E E k y X o # o   = s Y Q Y I T ~ ^ P Y ( 4.4.",
",.-.,.Q E Q ^ ( ! I ~ ^ E n o # e -   X % H T | E I Q k X . X q q X . X h I P P P H H &     # i - o n Q ( / Q Y E ~ P P P ` 3.6.",
"8.8.-.*.Q Q ( E Q Q ^ ^ ( M o X O > < X o % h K F P R h X . X q q     X h G F F F 4 & o X * ; # o X n ^ / ( W Q Q E Q P P E ' ,.",
"8.6.6.3.$.( Q ^ T T E Q ( N o     > q O X   y J F F P h . . X q q X   X h D F H 7 3   X + w ;     X n / / ( W Q R T P E Q Q $.,.",
"0.8.6.6.6.$.E K H D H T ^ N X   . X o q < . O @ l P P 4 X . X q q X   X 5 G P l @ o . ; q o X   . X v I W W Q E R P R E Q Q ( ,.",
"{ ,.` $.X.6.^ F 6 6 6 H ^ C r % . . X w < X . X v T R h X . X q q X   X h T E l X . X q q X   X $ 2 n P T Q E P H T ^ ^ ^ E Q ( ",
"E ^ E ~ ~ ^ ^ H D 6 8 F T ~ +.a . . X w < X . X v T R h X . X w q X   X k ^ E l X . . < w X . . a E G P Q E I H P U ~ ~ Q H P K ",
"T ~ E Q E E ^ T H H P T P P ^ p . . . - - > + X 3 3 P h . . X q q X X X z T p = . O ; ; # X .   a +.P P P E E T P T E ~ T K J K ",
":.:.^ E ^ Q E T T I ^ E T T E s o . . . O w - X X @ A j X . X q q   X o j B O     ; e O . .   X d ! P T ^ ^ ^ T T E ~ E E T Q E ",
"e.e.6.] E E ^ P ~ ~ ^ E ^ T T J M > . . X @ ; < + o % u M = X q q . 1 V y % X O q ; O X . . * M Y E T T E ^ ^ ~ X.| ~ | E T W ^ ",
"e.w.3.] ^ T ~ ^ E E ~ E Q E Q ( { 1 . . .   : e O     * m 1 X q q . q U 1     # e ;     X   2 { [ / I P P L T R X.=.#.| ^ R E ( ",
"$.$.*.^ W E ~ ( $.| T P P I W ( $.,     .   ; e O     X O X X q q . X O X .   o e -         2 9.{ ] W P H H H R +.6.+.+.E ^ ! E ",
"~ E ^ ~ W W ( ( ) E ~ P P E ^ $.{ g 2 X . . - > - - X . . . X w q X   . . X # - < -     X 2 g 9.4.[ ] / R P P R E Q ( +.+.T E ^ ",
"E P P E W ] $.( +.^ I Q E E ^ ( { 3._ -   . . X < q X . . . X w q X . . . X q < X   X   @ ] -.[ 9.9.4.[ X.X.X.E Q ! E #.+.Q ! E ",
"^ E T ~ ( ,.U u r r 3 r r r 2 r t C ] b t X . X - - ; -   . X q q X . . # < - + X   X p b 3.Z r t t r r t r r r u B E ( ,.( ( ( ",
"$.3.| ~ $.,.Z + X       X X X     j ' ' b O X .   . w ; X   X q q X X X ; w X   X X O l ;.-.g   . X X X   .   X @ m R E #.,.,.1.",
"3.$.*.$.$.( Q C u     X < q q - X o : : r A r . . . o - q - X w q . + q - o X .   r V 1 - : -   - q q < X . . p m P R E ^ ` $.,.",
"X.+.*.$.( ( Q E 5 $ o X < q q ; o X X   > V r . . .   + q - O q w o - q +   . .   r n :   X O O - q q < X X : s P P R E Q ^ E ! ",
"K ^ ` ^ ( ( ( E P B 1 . X X X - e e w X X X X .       . X ; e i i e ; .   . . .   X X X o q e e - X X X . = 0 0 H T E W Y I T H ",
"K E Q Q ( ^ ( ( P Q j r o   . O ; > ; - - - - - - - - - - < i i i i q - - - - - - - - - - > > ; O . . O r j P P P E E Q Q P H H ",
"T E Q Q W ^ $.W Y Q $.' : . X X X . X q i e i i w i i i i e i i i i i i e i i i e i e i q X X   . X X % Y { ) Q R T R ^ Q P H K ",
"E Q ^ / ` $.^ E P P Q ^ b x j j h : . + - + + - - O - O - < i i i i < + - + @ @ - O - @ + X % b l k h x Q ) Q ! X.| | ^ ^ Q T H ",
"E ^ ^ ^ $.$.( T G P I R +.Q ) R Q = O O o o O o X       X ; e e i e ; X . .   X o o O O O O u 8.X.T P E E ^ ^ P E E ^ ! ] ] Q P ",
"Q ^ ~ ` ] ( E Q G B G I E R R P Q A C A A A A N %     - e - o q q o - q + .   & S A C C C C U +.T T K P ~ | E P P P P Q ] { ( Y ",
"W W E E ~ ^ E R P I I R R E R P R R R E ( ( A x :   @ - < - . , ; . - q - +   # b A ( E E +.+.R P P P T E T T H T H G P I ] ] ( ",
"W Y T E T ^ ~ R P I I Q E E R T F F P / ( / a X X X q > .   . . X .   . ; i o   X a ) Q E Q ! P P P T E R K T E R T P 9 B E / { ",
"W W E ^ ^ ^ ^ W T Y Y Q Q ^ ^ ! P H P ~ C p % X # - ; @ . . . . . . . . @ ; - - X % a A Q E ! R E R R E Q I E ~ Q T P 0 0 P E ,.",
"P W ~ E Q ( ^ W Q E E E E ! ( ! E P P I l X .   q q X . . . . . X X X .   X q < . . . x Q Q R R ! T R +.^ ( ^ ~ Q Y P P F F R E ",
"P P E Q ( W Q Q E Q E ! ~ ~ ^ Q W / U r -     X o o X . . a c O @ x t . . . O O . . . % 3 U I R R Q R E ] ] E T P T Y R P F G P ",
"H P P ^ ( ( E E E E ^ ' ^ ^ E T ^ ] U O       X . .   o O c ) $ % Q k @ o . . . . . . . @ A Q Q Q ( E +.,.6.X.T P P R E T K F F ",
"H P E ] { { Q Q E E +.,.,.] E T ~ $._ @ . . . . .     , U ] ] : % _ ) S ,     . . . . . O A ( Q Q ( ( ( ,.w.6.^ R P F L T K P K ",
"P E Q ] [ { ) ) $.^ ( ( ,.4.^ ^ ~ ^ ` r * , * , * 1 * a / ) _ : : ] { ) f , 1 , * * * * 3 J Q Q ) { { { 8.8.e.e.+.E P K L E E E ",
"$.E E ^ ( { Y Q Q E ~ ! ^ } ~ U T ~ ~ Q Q Q I P E E E P I ) _ $ : ' 4.) W W W W T T T T T K T R Q Q ( ^ E ( *.-.#.Q R I R E ( +.",
"$.( I E ^ P Y P K P K T T E K K K T E Q / / / Y E ^ E P P / _ : : ] ,.( E W ^ / Q E  .! T T K P G P E P P P T | Q Q Q E E Q ( +.",
",.$.E E P G F H D F K H T K L D H T ^ ~ W ( ) / E E E U P ^ ] % : ' 6.,.^ ( ^ W ^ ! ( ( ! Q T P D F L H F F K L F H P E P P R ! ",
",.` ~ E K F F H F G K T | | } L K P R E ^ / / / I Q I P Q / ] U S 6.8.6.] ( W E T T E ! ( ` ^ P P K T P H T T T H F H P P 0 H R ",
"/ E ~ T P F P U T P E ^ $.6.$.$.T T P R Q Q E E I T P ^ W ( +.,.9.3.-.6.=.,.E P D D F E ( ( ( ( Q Q ( ( E ( ( ( P H P P H F H P ",
"F P E ~ E P T T R ~ E ,.6.e.e.$.| R H R E Q P P H T ~ ^ ^ I R E ' 3.` $.$.$.^ H D 6 8 F Q ( ( ,.{ ( ( $.{ ) { ( R P P T P R P H ",
"F F T ^ ^ E T T T P Q { 8.0.4.3.( R H H P E E P G T ^ ^ ^ P K P T ~ ^ E ( $.^ H D D 6 F P E ^ 3.4.4.,.{ ] ] / / E T P R Q ( Y T ",
"F P Q ^ ^ ^ E P K H P / { { ,.$.( E P P E ^ E P P T E ~ T K J K T T ~ E W ^ ~ Q F H K P P T ^ ` ,.6.4.( / ( ] / Q T R I ) ) { ( ",
"E ~ ^ ^ ^ E Q T P P P R / ( ] ] ( R P I E ^ ^ E T T ~ ~ E T E ~ :.$.] ( ~ ~ I T T R ^ E E T T ^ $.4.] ! Y ( ] $.^ ^ Q Q ) Y { 4.",
"$.X.3.$.( E E E R P R P R ( ( { E ~ T I Q $.^ ~ ~ ~ ~ E E E ! -.e.e.$.^ I E E T T ^ +.^ Q E E X.$.$.X.Q T Y ] -.-.-.) ) Y ) { 4."
};
