/* XPM */
static char *_fc157ba0e6f47f0de2c2d67cc25ff61efDuei5U3r5Fa3qL[] = {
/* columns rows colors chars-per-pixel */
"64 64 29 1 ",
"  c #CEB57D",
". c #D2B67E",
"X c #D5B87F",
"o c #D9BA7F",
"O c #D5BB82",
"+ c #DCBE82",
"@ c #E0BF83",
"# c #DEC185",
"$ c #DEC489",
"% c #DDC98D",
"& c #E3C386",
"* c #E8C686",
"= c #EBC887",
"- c #E4C689",
"; c #E8C789",
": c #E6C98C",
"> c #EBCC8D",
", c #F1CE8E",
"< c #EFD08F",
"1 c #F1D08F",
"2 c #E5CD91",
"3 c #ECCF90",
"4 c #EED192",
"5 c #ECD698",
"6 c #EFD89A",
"7 c #F2D392",
"8 c #F5D897",
"9 c #F3D798",
"0 c #F4DA9A",
/* pixels */
"33>3<>>:&-;>>7771>-@@+-:3943::;3579,>;323::--;;3743>>>>>57<;&**,",
"333322>>;-&=<17811>-+-+-373>3>>32533>;>3>3---:>3733>>7,>47>-@*>3",
"177>:<>>>:#;,78711,,>&&:>3333>::;223>>>33>:&-:33,97,4733>>;&-;>7",
"777>:-&&::&>18778817333;;;>,3>>:;:-:>33>33;:;>337,,3323-;::-=>77",
"777>$++#$$:>88877777744,;::34,>>>>::243>3;;;>::>3,373>--#&#;>111",
"114>&+++##-27897>>>>,>,,;--3,4777422344>2>;3:--#@>78,,:+##&;=><<",
",3>2:&&:-:::4894:-&&&@@&---;>333444444>>:&&:-&##@:53,,23>==:;;>:",
">::::;;>>;:><55<-$+++.oo@-*;>;>:>>47>>>>&++-&++O+-23,375<<<=;&>:",
"-#+-;=>>>>>>3773:$O+++++#:>==:$#$:43<>>>&&:::##X+&23>455<1<>>::>",
"$&#:>=>>>>>>>773:$$$&:*&&$>>;:##$:>>:44>:;>>:-#X.+:;=>52=<4<:>>>",
"::&;>;>,2>>23777:$-:>,,>::>>>&##:>>;:2<;>;47<>##++@:>22:=><:::2<",
"3>>>>>377>:>3777>-$:,,>>:>:<>>;-:>,>44>:&:;2<<=;&@:>>3>--=>:2>>4",
",3>>;32773>>>3772-&:><>:-:>441>;;><<<4>:&&&=>>=;=>>>>3>-&*=;>;>4",
":;>;-:>>433;>273:&#-:::&#&:>11>=;>2:2::-&@@-:=;;>>>>,43;:*=,<>;>",
"@-3::&::3>3;;3>-&&#:::-#-&##:>,>>>:::<::&&*=;:&&-:;>3>3:**>,1,>:",
"&:::::+&;,,>>3;-&&-::#&:;-oo#;>4>>:::<>:&*==>>;&@+@>3;>>==,>,>>:",
";>>33::-=,,=>>;;;;=>>;::>=@o+&;>>;::2333:;;;>2<>&+&:>>>33,,>;>>:",
":>343;;;>>=,>>;=>;:>>>>2>>*&++::;:2>;>>>;:>>::<<;-&::::>,4>;;<<;",
"*>,1333>==*:;>==;:;>><::&*;:&+&&@-;>>>>>>>::::::>;;:&$@:>,>>>1<>",
">>,4733;&&&-;>>>>>>>45<:#&*:-++#+&;,42>;::><44::>43:#O++;>33<111",
"7,,744>*&++$:;=>,,>,709>-&&-$-#-$@;411,>:>>77<::2773&+++#><2<118",
"777,443;&&:$$:;>,,7778097;&$$:::::;77,1,<22777<:>233;-&@:>2==117",
"7773>>>>:::$:&::;>2>>>45,>:-:>>42:;33>=>;:>><2:$::23>>**::=&*<88",
"7773;>>>;:32:-&&&&:&&&::;;:::>>47>-::**&$$&&:%$$&:::>,>=>>;&&=18",
"78743;33;:>3>>:@++$$++$%+&-:-@*>73::$+#+o+##$%%$#&:>><>>:::&-><4",
"889773;:-::>4>>&+&:&&&::++&&@o&:43::$++#+#$:%2:$#-->><>>;:&:;><7",
"8779733&+O+:>73>;>2>;>4>&#+&@++-;>::&#&&&::<594<>&&;=>>;--;>>><1",
"1422732+O .#;>377733<<<>:&&-*:-@@&:>:&-:::><909<::&&;>:&&&>>>:;:",
";>::23:$O O+&:>7777>1<<>;:&;>,>-++:>>::::&:17887<:#&-::&#-2<>-&$",
"::2:>>:-#+&&&&:3777>>><<;&:;,,1>&&;2<::&##-=1<<1>:&#&>;-&-:2:##$",
"554>>;::-::>:-:>774>;;<442>>>,,1:>:4>:::&&&=>><1>;&::<>>::>::->:",
"0073>::::323::::444>:=<4577>==,13344<::;--;=;>11>:--:<2>2::2::><",
"9987>;:>>2::-:;344<>>=>244<;**><3333>>>:&**>>177,=*@&-::337>::>3",
"434>;>2>3:::-:>>774><<<<44<&@-;4733323>;::@;,7777,;*&++:3733:>;>",
":22:>>>43;:-&;3347<><54<<<;&&=<<4,4>>2>>3&@:4177717>:@&*33332>::",
"-:::>44>33;;;>3314<<<<>>;:;&=<71197,:&&::--3497878194>>>;;337>>:",
">;::33333>;;>:;33,44<>-###&;>1117744-+++---250077717714>*::33,3>",
"5332333>>::>:-&&->491>:###&;=><<144:$++++@-25097,,>3>,,>;--33771",
"7735333>:-&--&+#@:44<<22>==;*-:4<><::&&---->3903=:&$@@@-&&:;3344",
">33333>>@++--#+Oo:2,<<44<1<>*&:::::::=;>>>:33773;@+++O++@-;;;;::",
"-:44>>4>&&:::#+Xo&2>>755,,1>;;:::##:;>=>>>>>,772$##++ooo&:>;>;&$",
"$:>>>2>>;>><:-+oo+:;>>42>,7>:>>>:##-;>>>>;>>,473:$$--*=-&->>=&$O",
"::;;;23>=;474>&#o+@:>2::;;>>224>>:&:>>><>2>24177:%$;,,>>:::;;-$#",
":>>,453;--;>4>>-&&:;>4:::;>>:>34<>>;>>444>>>34772::;>1>>;233>;:&",
">>>444>:&@&*>>==;>>>23>:--=>>:><>>>;>>447>>:2777:-$:><::->2<7<;:",
">>2:>>:-&@&*>;;*>>>>,3>>**=>>>:>:>>:::>>77>>>24>:-&&:::&#&;=,1>=",
">>:::>>-&&*;;:&&-::>>>>>*==,1>>:&-::---:><>;>>>:&&&-::-#&&##;<<>",
">=::2>>:&*=;>::&@+&;3>3:==,>,<>$&-2>:-#&;>1>>>>-&&-::#-::-+o+>>1",
">>:::4<::;;>>4<>&@&:>>>>3,,=:<>=;>>2>;--=,,>>>;;:*;>>::2>;@+o&>3",
"=::>>>>>>;;::><>-:&-:::>,4>;;<>=;>>34>;:,=,>>;>;::;>>>;3>=*&++&>",
"&&:>>>>>:>>>2:::>>>:-$#:>,>>><1,;>714<>>>=*;>;==;::>33;:-*>;-++&",
"#&:><>>;:::44:::>33;#O++;>4>1111>>>744>:*&+-:>>,>;>>793:@&*::$++",
"#&;<77>>:>>471>:277>&+++:>234,77711144::&o&#::;>,>,,7872-&&--$@-",
"-:>471,,43>777>::25>;&&@-:>;>,188711<<>>&&$:--:>114478984;$$$:::",
":;;:<>=>:::>>4::::2>>>*;:::&*>18997>><2>;-:$-$&:;>>>>,534>:&:333",
"5>;:>-*&$&$&:%$$&->;>,>>>>:@*>77777<=>>>=><2:-&#&&::@@:2;=;:;;33",
"4<::&&o#+++&$%%O+::>>3,>>;:&->>7779<>>>>:>2<>>:&++$#+#$$@@-:&@*>",
"42>$#o##++&:222%&&::>>>>;*-:;>4778974>>>--:><>;:+$%-#&:%&+&&@+&:",
">>>:-#&&:&:25752:&&:>>;;:&:>>>47877574:$OO+:<4>;>>>>>;<:-+&@+++&",
"##:>:&-;::>38084>-&&;>:&@:>>>:::<<4>35>#O .#:>77771<41<>:&&-*:-#",
"o#->>::---;,988,3:@&::--&&>2>-#-::::>4>$O .+&:<47771<<<>;-&=>>=;",
"#&:>4::-#&->,,7,>;&&->:-&-:>:##$:2:>;3>-$+&&&$><771>>><>;-:=,,<<",
":>>43:::-&&;>>>1>:--:>>::::2:-::453>::::-::>::-:477>;><442>>,=17",
"3444;:::-&*;;>3,3;-;>34>::>2::>5007>>::-:>4>>;:>544;;;<9671,=>17"
};
