/* XPM */
static char *_733f766de564edfcc6909fda48a6e93Ah9YVCQ4XDyEx422[] = {
/* columns rows colors chars-per-pixel */
"64 64 193 2 ",
"   c #235C1E",
".  c #32522A",
"X  c #50723B",
"o  c #4B5242",
"O  c #5F5B4F",
"+  c #4A6745",
"@  c #557A4E",
"#  c #6F6752",
"$  c #646D56",
"%  c #726E5D",
"&  c #637153",
"*  c #75785D",
"=  c #747A61",
"-  c #7F7F75",
";  c #877B5B",
":  c #917F5A",
">  c #887F6A",
",  c #2D8C2A",
"<  c #299323",
"1  c #33952E",
"2  c #388433",
"3  c #3B8C35",
"4  c #3B9736",
"5  c #399933",
"6  c #30AA29",
"7  c #3FA43A",
"8  c #458F3E",
"9  c #409B3A",
"0  c #42B33C",
"q  c #4A8944",
"w  c #518945",
"e  c #4B9743",
"r  c #54954C",
"t  c #48AD41",
"y  c #4AB142",
"u  c #7E9875",
"i  c #7FA66F",
"p  c #858365",
"a  c #8D8165",
"s  c #89866B",
"d  c #8C896A",
"f  c #918765",
"g  c #958B66",
"h  c #9B8A64",
"j  c #95896A",
"k  c #958D6A",
"l  c #95916C",
"z  c #9C936C",
"x  c #828B71",
"c  c #87877D",
"v  c #879778",
"b  c #8C9C7C",
"n  c #949573",
"m  c #9B9574",
"M  c #9D9A75",
"N  c #9D947C",
"B  c #999D7A",
"V  c #A4956C",
"C  c #AA956C",
"Z  c #A6986F",
"A  c #A9996E",
"S  c #B19C6E",
"D  c #A39474",
"F  c #A39B73",
"G  c #AD9C72",
"H  c #A59B7A",
"J  c #B39F72",
"K  c #88A977",
"L  c #9AA17D",
"P  c #BCA36F",
"I  c #A9A377",
"U  c #B5A273",
"Y  c #BCA574",
"T  c #BDA877",
"R  c #B5A47A",
"E  c #B8A378",
"W  c #BDA97B",
"Q  c #C2A976",
"!  c #C5AA77",
"~  c #C5AD7B",
"^  c #C7B17C",
"/  c #CCB27C",
"(  c #D2B57D",
")  c #D5B87F",
"_  c #D9BA7F",
"`  c #959789",
"'  c #9A988C",
"]  c #9F9E93",
"[  c #A59D86",
"{  c #A89E83",
"}  c #9CA985",
"|  c #9BA98E",
" . c #A1AB83",
".. c #AAAB84",
"X. c #ABA48C",
"o. c #BAA984",
"O. c #B2A68A",
"+. c #A9B78D",
"@. c #A5BA8F",
"#. c #B3B78F",
"$. c #BFB08D",
"%. c #A7A695",
"&. c #AAAA9E",
"*. c #B6AC91",
"=. c #B2AE9A",
"-. c #A7B692",
";. c #AABA93",
":. c #ACBC93",
">. c #BEB499",
",. c #B1BF99",
"<. c #B4B3A5",
"1. c #BAB7A3",
"2. c #B7B7AA",
"3. c #BCBAAA",
"4. c #C4AE81",
"5. c #C5B487",
"6. c #CCB581",
"7. c #D1B780",
"8. c #D5BB83",
"9. c #DCBE83",
"0. c #D3BD89",
"q. c #C4B592",
"w. c #E0BF83",
"e. c #C3BBA0",
"r. c #B2C194",
"t. c #B9C597",
"y. c #B3C59C",
"u. c #B6CB9E",
"i. c #BACD9E",
"p. c #BCCEA2",
"a. c #BFD4A6",
"s. c #DEC185",
"d. c #DEC489",
"f. c #DDC98D",
"g. c #E3C386",
"h. c #E8C686",
"j. c #EBC887",
"k. c #E4C689",
"l. c #E8C788",
"z. c #E6C98C",
"x. c #EBCC8D",
"c. c #F1CE8E",
"v. c #EED08F",
"b. c #F1D08F",
"n. c #E5CD91",
"m. c #ECCF90",
"M. c #EED192",
"N. c #EED799",
"B. c #F2D392",
"V. c #F4D897",
"C. c #F3D798",
"Z. c #F4DA9A",
"A. c #C3D4A6",
"S. c #C2DAA6",
"D. c #C3D5A9",
"F. c #C6DBAB",
"G. c #C9DEAE",
"H. c #C5C5B3",
"J. c #C9C7B5",
"K. c #C5CAB5",
"L. c #CCCBBA",
"P. c #D1CEB5",
"I. c #D5D2BD",
"U. c #CBE3AD",
"Y. c #CDE4B1",
"T. c #CFE8B3",
"R. c #D2E6B5",
"E. c #D4ECB4",
"W. c #D5EDBA",
"Q. c #D9EFBC",
"!. c #D8F2B7",
"~. c #D7F3B8",
"^. c #DBF3BC",
"/. c #DFFABD",
"(. c #E2FFBF",
"). c #D3D3C3",
"_. c #DDDCC8",
"`. c #DEF5C1",
"'. c #DFF9C2",
"]. c #E1E0CF",
"[. c #E5FEC4",
"{. c #E8FFC7",
"}. c #E7FFC8",
"|. c #E8FFC9",
" X c #E4E4D2",
".X c #EAEAD7",
"XX c #EDEEDB",
"oX c #F7F7DA",
"OX c #F4F3DD",
"+X c #F6F6E2",
"@X c #F9F7E2",
"#X c #FBFAE5",
"$X c #FEFDE9",
/* pixels */
"m.m.x.m.n.x.x.z.h.g.h.j.v.B.B.b.b.c.g.g.w.d.g.z.m.B.m.n.z.x.x.m.C.C.B.b.x.z.z.m.m.x.z.9./ g.x.m.M.M.m.m.x.x.x.x.M.M.v.z.g.w.j.b.",
"m.m.m.m.n.v.x.x.z.h.k.l.v.b.V.V.b.c.l.g.g.s.g.g.m.B.b.m.z.x.l.n.m.m.b.m.x.x.z.m.x.s.R B n G x.x.B.m.m.x.v.v.v.x.M.B.v.g.w.h.x.B.",
"b.B.B.x.x.n.x.x.x.k.g.z.c.b.B.V.B.B.b.c.z.g.g.z.x.x.m.m.m.x.z.z.z.n.n.n.x.x.m.m.7...R.^.`.#.d.B.d.H 9.b.v.N.M.x.v.v.z.g.g.x.x.M.",
"B.B.B.x.k.k.g.k.z.k.k.x.b.B.V.B.V.B.B.B.m.x.x.x.j.x.n.m.B.x.z.z.z.k.k.z.x.m.m.m.I G.^.;.,.r.R x.5.s ~ B.x.v.x.z.z.h.k.g.j.v.b.B.",
"B.B.B.x.d.9.9.s.d.d.k.m.V.V.V.B.B.B.B.B.B.b.B.x.l.l.l.m.B.m.x.x.x.n.k.z.x.M.v.x.I W.D.v p.-.J m.x.( z.B.x.x.k.d.s.s.g.h.j.v.b.b.",
"b.b.M.x.d.9.9.9.s.s.k.n.B.V.C.B.x.x.x.x.x.x.c.x.l.g.g.m.b.b.B.B.B.m.m.k.0.M.x.d.p G.}.Y.= J 9.g.z.m.B.B.B.x.z.d.d.g.g.g.x.x.v.v.",
"c.m.x.n.z.g.g.g.g.z.z.x.M.V.C.M.z.k.g.d.g.g.g.g.g.g.z.l.m.m.m.m.m.M.C.d.j z.z.F D.-.F.^.l w.g.7.( z.6.a ^ c.m.z.x.j.j.z.h.h.z.x.",
"x.z.z.z.x.l.j.x.x.x.z.x.x.N.N.M.k.s.9.9.9.) _ 9.g.k.l.m.l.Q D I I G ~ ^ 8.0.f } `.^.`.A.Z g.G n n Q 5.j 9.B.M.N.v.v.v.x.h.h.z.z.",
"k.g.9.k.l.j.j.x.x.x.n.x.m.B.B.m.z.d.0.9.9.9._ w._ ~ T Y Z r.W.`.~.R.} x p s D.^.W.i.p.B / k.; r.,.Z M.m.x.m.N.N.v.b.b.v.z.z.z.z.",
"d.s.w.z.x.x.x.x.x.x.x.x.x.B.B.m.z.d.d.s.g.z.( U M } #.b y.[.[.[.}.[.~.-.y.G.W.u.L g R 8.x.z./ g f 6.z.l.x.m.m.n.x.x.M.x.x.x.x.x.",
"z.z.g.z.x.x.x.c.x.n.x.x.m.B.B.B.z.d.d.z.x.~ H A.^.{.[.^.[.[.[.U.F.~.}.p.E.^.G.W.i.T B.B.v.x.k.8.( 9.w.z.x.m.n.z.j.x.v.x.x.n.x.v.",
"m.x.l.x.x.x.m.B.M.x.z.x.m.B.B.B.m.k.g.z.Y t.'.}.[.[.[.[.[.[.} f Z n ^.F.^.^.^.U.s / x.v.v.x.x.h.g.g.z.l.n.m.x.k.h.h.x.z.z.x.m.M.",
"x.m.x.x.z.x.m.M.b.m.x.x.x.m.B.B.x.k.g.T t.[.[.[.[.[.[.[.[.p.= J x.G Y.^./.(.[.^.z s.g.h.x.x.j.j.l.x.x.x.m.m.l.z.g.h.j.x.x.x.x.M.",
"l.x.x.l.z.k.x.m.B.b.n.l.x.m.m.m.z.z.( ..'.[.[.^.S.E.}.[.[.^.^...g.Y +.{.[.[.[.A.A g.w.h.z.z.z.h.x.x.x.x.c.b.m.l.g.l.j.j.x.z.x.x.",
"w.z.n.x.k.k.k.z.m.x.x.x.l.m.n.l.g.g.U A.[.[.(.^.:.:.U.[.{.[.G.l j.g.z r.T.W.p.m ( g.h.j.j.z.g.g.g.z.z.x.x.x.x.n.l.j.x.c.b.x.x.z.",
"w.z.z.z.z.k.g.g.l.c.c.x.n.m.l.w.T V k F.(.|.[.[.E.U.} ^.!.@.G.H h.x.d.U k k U 9.h.h.h.j.x.z.h.g.w.9.w.x.c.x.n.l.x.j.c.c.c.x.l.z.",
"l.x.n.m.n.l.z.g.j.b.c.j.j.x.j.h :.S.:.F.`.U.p.Y.{.[.-.[.u.$  .J x.n.z.n.z.x.m.x.g.j.x.z.x.n.v.z.g.g.s.z.m.x.x.m.x.c.c.l.x.x.x.x.",
"z.x.m.m.c.x.l.l.x.x.c.j.x.x.~ B ^.D.R.[.a.:.D.;.[.u.* G.+.h Q k.l.l.z.x.n.x.m.x.x.z.z.z.z.x.v.M.l.g.g.z.z.z.x.x.b.b.x.j.l.x.x.x.",
"h.j.b.b.b.m.m.m.j.j.h.j.v./ n R.(.^.[.}.;.^.[.W.|.} : Z U _ g.g.w.g.x.x.x.x.x.x.x.z.z.x.x.z.z.x.x.x.z.z.g.9.w.z.x.m.x.x.x.b.x.x.",
"x.x.b.B.B.m.n.l.h.g.s.k.z.g F.{.[.[.(.[.@.+.E.Q.i.F 9.l.z.s.9.9.9.g.l.x.b.x.x.l.z.z.x.M.M.x.z.z.x.c.m.z.g.8.8.w.l.m.m.m.b.b.b.b.",
"b.B.c.B.b.m.n.l.g.s.s.d.d.z ^.[.[.(.{.(.U.$ o p S w.g.z.k.g.d.g.g.w.l.b.B.B.c.l.x.z.m.B.B.v.x.k.z.M.B.x.g.9.8.9.k.z.n.v.v.b.b.V.",
"B.B.c.B.b.m.m.l.g.g.f.d.s.F ^.[.}.^.@.w K y.x A B.x.g.d.d.z.z.z.n.z.x.m.B.c.c.c.x.m.x.B.B.M.x.x.n.m.B.m.x.g.g.w.k.z.x.l.j.b.b.V.",
"V.B.B.x.x.n.m.x.z.g.k.f.k.R :.^.S.i 9 1 5 3 8 + J x.z.g.k.m.m.m.m.l.l.n.m.x.x.x.z.z.z.x.x.M.z.d.z.z.m.n.x.j.l.h.z.z.z.g.h.v.V.V.",
"B.B.B.m.j.x.x.x.x.x.x.x.z.9.h & r t < 4 0 5 6 5 X 7.z.z.z.x.x.m.M.x.z.z.z.h.l.g.w.d.g.g.k.f.f.d.d.k.z.z.x.c.x.x.z.v.h.w.h.v.b.b.",
"B.B.V.m.n.x.x.x.l.x.n.x.x.x.T   , 3 y 5 < q 7 4 @ D g.z.g.w.l.m.B.m.z.z.d.s.9.s.9.9.s.s.d.f.f.d.s.g.z.x.x.b.b.x.x.z.z.g.g.z.v.B.",
"V.V.C.B.b.m.x.l.z.k.x.x.x.c.~ . 9 < 8 e r ` 2 + ).X.( g.w.9.w.x.m.m.z.z.d.9.9.s.9.s.d.k.z.n.z.d.g.g.z.x.x.x.x.x.z.h.z.k.x.x.v.b.",
"V.C.B.B.B.N.n.g.0.9.9.z.x.M.9.% v e u K.K. Xu v @X` Y g.9.9.w.k.x.x.x.z.g.s.g.g.k.k.z.x.N.N.M.v.z.g.g.g.x.x.z.h.g.k.z.x.x.x.v.b.",
"c.m.m.m.m.B.l.9.7./ ) 9.x.m.z.{ XX| %.$X#X#X+XOX#X` Q j.l.z.k.w.9.g.z.z.z.k.g.h.z.z.x.B.V.Z.V.M.x.z.g.g.x.j.z.g.g.h.x.x.x.x.z.z.",
"x.z.n.z.x.m.x.d.8.( ) 9.k.z.x.D ].#X#X#X#X#X#X#X#X%.! x.c.c.x.w.9.9.k.x.x.x.k.k.k.k.z.x.B.V.V.B.m.z.g.g.k.z.z.d.d.k.n.n.x.g.g.d.",
"z.z.z.z.x.m.n.k.s.s.d.g.g.k.x.U K.#X#X#X#X@X#X#X$X1.! j.c.c.c.x.g.d.z.x.v.z.z.k.d.s.g.x.b.b.b.b.x.z.g.s.h.x.z.h.g.k.x.x.k.d.d.d.",
"N.N.n.x.x.z.z.k.k.k.x.z.z.z.z.9.X.+X#X#X#X#X#X@X$XH.Y x.j.c.c.B.z.z.x.M.x.z.z.z.g.g.g.j.x.x.x.b.x.x.g.g.z.x.n.z.k.z.x.z.z.k.h.z.",
"Z.Z.B.m.x.z.k.k.z.x.m.m.z.z.g.x.o.].#X#X#X#X@XoX$X_.G c.j.j.c.B.m.m.M.M.v.z.z.z.j.g.j.g.x.x.b.b.x.z.g.z.z.v.n.x.x.x.n.z.x.z.x.v.",
"C.C.V.b.x.z.x.n.x.x.z.n.z.l.l.m.8.1.#X#X#X#X@X+X#XXXD g.g.h.x.M.M.m.m.m.n.x.x.z.z.g.l.j.m.b.B.B.c.j.l.w.g.d.k.z.m.B.m.n.n.l.n.c.",
"m.M.m.m.x.l.x.x.n.x.k.k.g.l.x.m.x.H XXoXOX#X#X#X#X+X[ ( w.g.x.v.b.m.m.m.m.x.x.l.l.g.g.j.c.B.B.B.B.c.l.l.g.9.d.z.B.m.B.m.x.l.x.n.",
"n.n.n.z.x.x.x.m.m.x.n.g.k.l.n.m.B.T L.oX@X$X#X#X#X$X=.P h.j.v.B.b.b.B.x.x.n.x.x.n.z.g.l.c.B.B.V.V.c.b.x.z.w.g.z.l.m.m.m.m.l.l.z.",
"z.k.k.z.x.m.m.m.m.x.l.l.l.n.m.m.B.g.>.@X#X#X#X#X#XXXc C j.v.b.b.B.B.B.m.z.g.g.z.z.k.g.n.m.C.B.B.V.V.B.B.b.x.x.x.l.x.l.m.B.m.l.z.",
"x.l.k.n.m.m.m.x.m.x.l.x.x.z.x.x.m.b.J  X$X#X#X#X#X&.2.W j.b.b.b.B.M.N.x.d.9.9.s.k.d.k.m.N.C.B.B.B.B.B.B.B.B.b.x.l.g.z.m.B.m.x.x.",
"B.m.n.m.m.m.b.m.x.x.l.z.z.g.g.g.g.m.5.e.$X#X#X#XH.<.OXO.g.x.b.v.b.M.v.x.k.8.9.9.9.w.k.n.N.C.C.N.c.c.x.m.c.x.c.x.l.z.g.x.m.B.b.B.",
"B.M.m.M.m.m.m.x.k.k.w.z.k.g.s.9.9.z.m.$.XX#X#X X] OX#X%./ j.z.m.x.v.x.x.z.g.g.g.k.l.k.m.m.Z.C.M.l.z.g.g.w.w.w.h.g.z.z.l.x.m.m.M.",
"m.m.M.M.m.m.x.n.w.9.k.w.g.g.9.8.9.k.M.6.I.$X@X&.).#X#X2.C j.z.z.z.z.z.z.x.j.x.x.x.l.x.n.m.B.B.m.g.w.9.9.8._ 8.9.w.g.z.l.x.x.z.z.",
"d.z.m.x.c.x.m.x.g.g.z.z.k.d.9.) 8.g.n.l.q.+X3.2.#X#X#X).A x.x.z.k.d.s.z.z.j.j.x.x.x.x.x.m.B.B.m.d.d.s.9.9.9._ _ g.k.x.x.j.l.g.d.",
"d.z.x.x.x.m.x.x.g.j.x.M.x.z.s._ 8.9.z.x.J ' ] XX#X#X$X.XH l.x.x.k.d.s.g.x.x.j.x.x.x.z.x.m.B.B.m.k.d.d.s.g.j.j.g.k.z.x.x.j.g.s.0.",
"z.x.x.x.z.m.m.x.x.x.B.B.M.x.g.9.8.9.w.x.9.# ).$X#X#X#X#X[ d.x.x.z.z.g.z.x.x.x.v.m.x.x.n.b.b.B.b.z.f.d.x.c.c.x.x.z.k.z.x.x.g.g.s.",
"z.x.x.x.M.M.m.z.g.g.l.x.v.x.x.g.w.h.k.l.m.Q 3.$X#XoX#X#X=.( M.M.v.x.j.x.x.x.B.M.m.n.x.x.m.b.B.C.x.z.k.x.x.c.x.x.z.x.n.x.x.l.z.k.",
"z.x.x.v.M.M.n.k.g.g.g.x.m.m.j.j.l.x.x.x.m.z.N .X+X.X#X#XP.^ x.x.x.c.x.x.l.n.M.M.B.x.x.x.x.m.B.B.n.k.g.z.x.v.x.z.k.z.x.v.v.b.x.g.",
"x.x.x.n.x.x.z.k.g.w._ j.z.l.l.j.x.x.x.x.m.b.S <.$X#X#X@X X4.x.z.z.x.m.l.z.l.x.x.B.b.x.z.z.m.m.m.z.k.s.g.z.x.k.d.d.k.k.j.x.B.v.j.",
"x.x.z.z.n.x.x.k.g.g.h.l.l.z.g.g.g.z.z.x.x.c.g.H XX$X#X#X+X$.z.z.g.z.z.z.z.k.k.z.x.c.x.x.z.m.x.l.g.s.g.k.k.k.k.g.g.g.s.g.h.v.v.x.",
"x.z.z.z.z.x.x.z.g.h.l.l.x.l.z.g.9.w.g.l.c.x.n.U e.$X#X#X#X=./ l.g.g.n.z.z.g.s.g.x.x.c.x.x.n.l.z.g.g.z.z.z.d.k.z.z.g.9._ 9.z.x.b.",
"x.x.k.z.x.m.x.x.z.x.j.z.x.x.x.x.g.9.g.z.n.x.m.d.N OX#X#X$XI.~ l.l.z.x.m.x.z.g.g.j.c.c.x.x.l.z.j.z.l.l.n.x.l.z.n.x.l.w.8.9.w.x.x.",
"j.x.x.x.x.x.x.x.x.z.x.x.z.x.v.v.z.g.g.z.z.l.l.x.J L.$X#X#X.Xo.g.z.x.m.m.M.x.x.x.j.c.j.x.x.x.l.j.l.l.l.x.x.x.x.x.x.j.z.g.9.w.g.x.",
"g.g.z.x.x.x.x.x.z.x.z.x.n.x.z.x.x.x.z.z.g.9.g.z.g.*.OX#X#X#XX.( x.l.b.B.M.x.x.x.c.j.j.z.x.x.x.j.l.z.x.x.m.m.n.g.g.l.x.l.g.w.w.g.",
"s.s.z.x.x.x.x.z.z.z.x.x.m.z.z.z.x.b.m.l.d.8.9.9.z.E I.$X#X$X2.h b.x.x.B.B.M.x.z.j.w.9.k.z.l.j.c.x.x.x.x.b.V.m.z.g.w.h.l.k.d.9.9.",
"s.g.j.v.B.b.x.x.x.z.x.B.M.x.x.k.z.M.B.m.g.9.9.9.g.9.*.+X#X+X' > B.b.b.b.B.M.x.z.g.9.s.d.k.z.x.x.x.c.m.b.B.V.B.n.z.w.g.k.k.g.d.d.",
"z.k.x.M.B.b.c.c.m.m.m.B.V.B.m.z.n.m.M.m.j.g.g.w.g.x.G ).$XJ.<.X.x.B.b.b.v.M.x.z.g.g.f.k.k.k.z.x.c.c.b.b.B.C.Z.C.b.z.k.d.d.n.l.z.",
"n.x.z.x.x.c.x.x.z.z.z.x.x.n.x.k.k.n.n.m.x.x.j.g.z.x.8.O. X&.+XL.x.B.B.x.x.x.x.x.h.k.z.k.d.k.z.g.l.x.x.x.x.x.B.N.m.x.z.g.z.x.m.m.",
"M.x.g.z.x.g.j.g.9.g.d.k.k.z.f.d.g.z.l.l.x.c.x.x.n.x.z.h > ).$X].0.B.C.x.z.x.x.x.x.z.x.x.z.k.g.s.g.g.z.k.g.w.k.n.l.l.z.z.l.x.m.m.",
"M.v.z.f.g.g.9.s.9.9.d.9.k.f.f.0.9.z.z.n.x.c.c.x.x.l.z./ s XX#XXXq.B.C.v.x.x.x.x.x.x.x.v.x.z.z.g.8.9.d.s.9.9.d.f.w.g.g.z.g.g.g.x.",
"M.v.x.z.d._ 9.s.9.9.d.k.n.n.n.d.g.g.z.l.x.x.x.x.l.l.g.l.Y J.oXOXq.z.V.M.M.x.x.z.g.f.z.x.v.v.x.g.g.d.z.z.g.d.k.k.9.9.g.g.g._ g.x.",
"x.x.x.z.g.9.g.k.z.z.z.m.M.N.M.m.z.g.g.z.x.x.l.l.z.g.z.x.z.$.XX+XI.W V.N.C.M.x.d.s.8.9.z.x.v.v.x.l.x.x.x.x.x.v.x.z.w.w.w.w.8.9.g.",
"s.d.k.x.z.g.g.k.z.z.l.M.V.Z.C.M.n.z.w.k.l.x.z.g.g.g.x.x.x.Y e.$X).d x.m.m.M.x.s.7./ ( s.z.x.M.B.B.B.x.M.v.c.v.x.z.g.g.z.j.z.g.s.",
") s.g.x.x.z.z.z.k.z.l.c.C.V.V.b.m.l.w.g.z.l.z.g.w.z.x.n.z.9.s - O V z.z.x.M.x.d.7.7.8.9.g.z.x.M.B.B.B.v.v.v.x.x.x.k.g.l.x.c.x.g.",
"s.g.x.x.m.x.z.g.s.s.g.x.v.c.b.b.x.l.g.g.k.l.z.z.g.z.z.x.z.g.Q h ~ z.n.z.z.x.x.z.9.d.g.g.g.d.x.v.B.B.b.x.x.v.v.x.z.k.k.j.j.b.b.v.",
"z.x.x.m.m.z.z.g.g.g.g.l.x.x.v.v.m.l.g.g.z.m.n.l.z.z.z.n.n.k.z.m.M.N.m.x.x.z.z.k.k.k.x.x.z.z.z.x.M.B.B.x.z.x.x.v.m.x.x.c.j.j.b.B.",
"m.M.M.M.x.z.z.z.z.g.j.l.x.x.x.c.n.x.k.l.x.m.m.x.z.z.x.n.z.z.x.M.Z.C.B.m.x.z.k.k.k.x.M.x.x.z.k.z.N.M.v.x.h.j.v.C.N.N.B.c.j.c.b.B."
};
