/* XPM */
static char *_ae6436e8f1d47b68c1e994e0e8e70e4IuhTsv9PN058MG5O[] = {
/* columns rows colors chars-per-pixel */
"64 64 215 2 ",
"   c #0D0E0E",
".  c #0F110F",
"X  c #141313",
"o  c #191B17",
"O  c #211F1C",
"+  c #19281A",
"@  c #18361B",
"#  c #25391F",
"$  c #282826",
"%  c #332E25",
"&  c #2D3929",
"*  c #333333",
"=  c #363B36",
"-  c #393835",
";  c #3A393A",
":  c #6C1E0E",
">  c #781912",
",  c #69210D",
"<  c #7F2208",
"1  c #732C0D",
"2  c #663909",
"3  c #642210",
"4  c #443B2A",
"5  c #423E35",
"6  c #6C392B",
"7  c #254926",
"8  c #364D2F",
"9  c #27582B",
"0  c #344535",
"q  c #2E612F",
"w  c #2E6532",
"e  c #346838",
"r  c #36753B",
"t  c #564E1D",
"y  c #704C0F",
"u  c #71511D",
"i  c #584F37",
"p  c #564C38",
"a  c #6C5028",
"s  c #65593B",
"d  c #556629",
"f  c #497735",
"g  c #6A6726",
"h  c #3B7B40",
"j  c #6C5E43",
"k  c #7B6A49",
"l  c #7E7050",
"z  c #891216",
"x  c #971618",
"c  c #9C141A",
"v  c #A7131A",
"b  c #B4141C",
"n  c #812508",
"m  c #852B08",
"M  c #882F08",
"N  c #8B3308",
"B  c #8E2E10",
"V  c #A02915",
"C  c #AC1421",
"Z  c #B31723",
"A  c #B31823",
"S  c #AA2721",
"D  c #AA3320",
"F  c #C6151E",
"G  c #C0251C",
"H  c #D81821",
"J  c #E31A23",
"K  c #ED1B24",
"L  c #F01C24",
"P  c #D92521",
"I  c #D32A20",
"U  c #CC3920",
"Y  c #D43621",
"T  c #E02422",
"R  c #994609",
"E  c #874810",
"W  c #A25309",
"Q  c #896808",
"!  c #8F7108",
"~  c #9A7809",
"^  c #926616",
"/  c #AC610A",
"(  c #B46C0A",
")  c #A6700F",
"_  c #BD780A",
"`  c #A87819",
"'  c #99502E",
"]  c #AE7623",
"[  c #B37A24",
"{  c #D24F22",
"}  c #CB5421",
"|  c #CA6522",
" . c #D36C24",
".. c #CA7723",
"X. c #D37724",
"o. c #887251",
"O. c #937D57",
"+. c #4C893F",
"@. c #52873D",
"#. c #698737",
"$. c #798632",
"%. c #3D8543",
"&. c #3E8B45",
"*. c #428E45",
"=. c #419147",
"-. c #429549",
";. c #A58609",
":. c #B49309",
">. c #8C882F",
",. c #988D2E",
"<. c #838932",
"1. c #999030",
"2. c #AD942D",
"3. c #B9962B",
"4. c #CA8A0B",
"5. c #D5990B",
"6. c #CF9213",
"7. c #CAA70A",
"8. c #DDA40C",
"9. c #DAB50B",
"0. c #E3AC0C",
"q. c #F0BD0C",
"w. c #FFBE17",
"e. c #FFB51C",
"r. c #FFBB19",
"t. c #C28525",
"y. c #D78926",
"u. c #C49A2B",
"i. c #DA9828",
"p. c #E08F27",
"a. c #E29C28",
"s. c #D9A22B",
"d. c #E4A42A",
"f. c #E9A62A",
"g. c #ECAA2B",
"h. c #F3AF2C",
"j. c #FEB622",
"k. c #F4B02C",
"l. c #FAB62A",
"z. c #FBB92E",
"x. c #F9BA37",
"c. c #EBC30C",
"v. c #F4C40D",
"b. c #F5CB0C",
"n. c #FDCD0E",
"m. c #FFD10D",
"M. c #FFC414",
"N. c #FFC911",
"B. c #FBCF1E",
"V. c #FED013",
"C. c #FDD11B",
"Z. c #F9CE26",
"A. c #F9CE2B",
"S. c #FCD026",
"D. c #F6CD38",
"F. c #FBD134",
"G. c #A0895E",
"H. c #A48F64",
"J. c #AA9467",
"K. c #B59D6D",
"L. c #BAA16F",
"P. c #BBA472",
"I. c #F5BC47",
"U. c #F2BD52",
"Y. c #DABA60",
"T. c #C5AA76",
"R. c #CDB37C",
"E. c #D2B57D",
"W. c #D5B87F",
"Q. c #D9BA7F",
"!. c #E9BF6C",
"~. c #F6CB44",
"^. c #F4CD4A",
"/. c #F2CC4D",
"(. c #EDC857",
"). c #F3CB57",
"_. c #ECC868",
"`. c #F2C565",
"'. c #F5D267",
"]. c #EAC777",
"[. c #E3C47D",
"{. c #F1CD75",
"}. c #F4D177",
"|. c #D0B781",
" X c #D4BB82",
".X c #DCBE83",
"XX c #DEC186",
"oX c #DEC489",
"OX c #DDC98D",
"+X c #E3C386",
"@X c #E8C687",
"#X c #E7C885",
"$X c #EBCA85",
"%X c #E4C689",
"&X c #E8C789",
"*X c #E6C98C",
"=X c #EACC8C",
"-X c #EACD8E",
";X c #EDCE8E",
":X c #F1CF84",
">X c #F1CE8E",
",X c #EED08F",
"<X c #F0D384",
"1X c #F1D08F",
"2X c #E5CD91",
"3X c #EACE90",
"4X c #ECCF90",
"5X c #EDCF90",
"6X c #EED192",
"7X c #EED799",
"8X c #F1D191",
"9X c #F2D493",
"0X c #F5D896",
"qX c #F4D798",
"wX c #F4DA9B",
/* pixels */
"4X4X;X4X2X-X*X*X%X+X%X&X>X9X1X9X>X&X@X+XXX+X+X%X9X9X4X3X%X*X=X=X0XqXqX>X=X=X=X3X*X=X*X%X%X&X=X=X;X6X4X3X&X&X;X3X6X7X;X@X+X[.=X8X",
"4X4X4X-X,X*X,X=X$X%X%X$X>X8X0X9X9X>X&X%X.XoXoX%X4X8X4X3X3X*X=X3X3X4X8X4X*X*X=X3X4X=X*X%X%X*X=X8X8X8X4X3X;X6X8X;X6X8X;X+X+X+X=X>X",
">X8X8X;X2X,X=X-X-X*X+X*X1X1X9X9X1X9X1X&X&X+X+X+X*X4X4X4X3X;X%X%X2X2X3X2X=X=X=X4X4X=X*X+X%X=X=X4X8X8X8X>X4XqX4X>X>X;X&X+X+X&X=X8X",
"9X9X9X-X*X+X+X+X*X+X+X-X9X0X9X9X0X0X9X9X8X=X3X=X&X&X3X8X8X=X=X=X%X%X%X%X=X4X4X=X4X4X&X&X&X*X4X4X8X8X>X4X4X4X=X%X%X%X*X%X&X4X8X8X",
"9X9X8X-XoX.XXXXXoXoX+X3X9X0X9X9X6X9X9X1X8X1X>X>X&X&X*X4X8X>X;X;X=X=X*X*X3X6X4X4X3X3X&X*X*X3X=X=X4X8X4X8X4X*X%XoX+XXX+X$X;X8X>X8X",
"8X>X6X*X+X.XQ.XX.XoX+X3X9XwXwX9X,X-X;X;X;X;X;X>X*X+X&X4X4X8X9X1X8X6X2X3X3X4X4X;X*X*X*X-X%X+X+X%X%X=X8X0X8X>X%X+XXX+X+X@X$X;X1X;X",
";X;X-X3X*X+X+X%X%X%X%X3X6XwX0X6X*X+X+XXX+XXX+X%X+X+X*X*X-X;X4X4X6X6X6X6X3X;X;X=X%X%X+X%X%X+XXX.X.X%X4X8X4X>X4X2X*X&X&X&X@X$X*X-X",
"-X&X*X*X*X&X&X-X=X=X*X=X4X8X7X6X%XXXXXXXQ.W.Q.Q.+X%X&X_./.].2X2X=X4X6X6X;X;X;X*X%X.X.X%X+X+X.X X.X%X4X4X>X4X8X7X6X8X1X&X%X+X*X*X",
"+XXXXX%X=X&X&X=X=X=X=X=X3X8X0X-X%XoX.X.X.X XQ..XXX(.F.m.m./.oXoXoX*X6X4X-X-X;X=X%X+X%X*X*XXX.XW. X+X3X3X=X6X6X7X;X1X1X;X&X%X=X*X",
"%XXX+X%X=X$X>X&X=X4X=X=X4X8X8X4X*XoXoXoX%X%X+X_.A.m.m.m.b.B.[..XXX*X;X=X=X-X-X-X%X$X-X4X-X*X.X XQ.XX%X*X=X3X6X6X&X>X6X-X-X=X=X-X",
"2X%X+X*X=X&X;X;X3X=X=X3X8X4X8X8X*XOX+X%X=X:X^.V.m.m.m.m.m.m./.oX*X-X&X=X*X6X-X;X&X&X4X8X8X&X%XXXQ..X+X%X*X3X*X*X&X=X;X-X*X3X-X3X",
"4X-X&X=X=X;X6X8X4X;X*X=X4X8X8XqX3X*X*X%X{.F.m.m.m.m.m.m.m.m.S.[.*X&X;X;X6X6X-X*X%X%X&X4X;X>X&X@X+X+X%X*X=X6X2X%X*X$X=X*X*X=X4X6X",
";X>X=X=X=X3X4X8X8X4X=X*X=X4XqXqX.XH.O.Y.S.m.m.m.m.m.m.m.m.m.m.).&X=X>X6X6X6X-X%X+X+X+X&X;X=X&X&X&X-X=X$X{.3X=X%X@X@X&X&X=X=X-X4X",
"&X*X3X&X%X*X=X4X8X>X4X*X*X8X.XO.6 x v ^ b.m.m.m.m.m.m.m.m.m.m.A.$X-X*X2X2X*X&X%X+X+X+X+X=X&X&X@X&X;X=X'.S.'.3X*X@X@X=X&X;X&X=X=X",
"+X%X=X%X%X%X+X*X4X>X4X=X%XH.6 x J L H E b.m.m.m.m.m.m.m.m.m.m.V.).=X*X*X*X-X-X%X+X+X$X$X&X&X%X+X+X+X%XD.m.C.{.3X&X@X>X>X>X=X=X%X",
"+X%X2X*X%X%X+X+X*X=X>X.Xk u G K L T N 9.m.m.n.m.m.m.m.m.m.m.m.m.F.$X%X*X*X6X-X*X+X+X$X&X=X%X%X%XXX.X].C.m.m.A.].&X&X=X>X>X>X=X*X",
"&X*X=X4X3X%X%X%X&X1XQ.s ^  .K K K V 7.m.m.m.m.m.m.m.m.m.m.m.m.m.V._.*X*X-X4X3X=X&X&X&X&X*X,X,X-X+XXX(.n.m.m.m.D.;X4X;X$X&X-X-X*X",
"&X=X4X8X3X=X&X=X:XE.a ` g.Y K L b ) m.m.m.m.m.m.m.m.m.m.m.m.m.m.m.D.*X=X*X;X-X=X=X&X=X*X*X*X,X6X*X%XA.m.m.m.m.m.'.8X;X&X&X6X;X&X",
"&X=X8X>X4X4X4X>XXXi ` k.p.T K L B 9.m.m.m.m.m.m.m.m.m.m.m.m.m.m.m.V.{.*X=X=X=X=X*X=X*X-X*X*X*X*X3X{.C.n.m.m.m.m.A.:X;X=X$X1X,X;X",
"=X=X>X8X8X4X=X+Xs t g.k.X.K K H E m.m.m.m.m.m.m.m.m.m.m.m.m.m.m.m.m.D.>X>X;X*X*X*X*X-X-X6X6X*X*X3X/.m.m.m.m.m.m.m.).4X3X,X1X1X1X",
"9X1X8X>X8X6X4XO.7 2.k.h.} K K F Q m.m.m.m.m.m.m.m.m.m.m.m.m.m.m.m.m.V.}.1X8X=X=X*X*X-X8X9X,X*X%X*XA.m.m.m.m.m.m.n.A.$X;X,X1X8X9X",
"9X9X>X8X8X4XT.& +.s.k.h.{ K L b ~ m.m.m.m.m.m.c.5.4.0.m.m.m.m.m.m.m.m.~.9X1X1X>X,X6X;X8X9X,X,X*X{.V.m.m.m.m.m.m.m.M.`.@X&X1X9X0X",
"0X9X6X;X*X=Xj w #.g.k.f.Y L L v ~ m.m.m.m.m.8.R n n M _ n.m.m.m.m.m.m.C.{.>X>X&X*X*X*X=X6X;XOXOX~.m.m.m.m.m.m.m.m.M.I.+X+X,X9X0X",
"9X9X9X-X=XK.# *.<.h.k.a.P L L c ;.m.m.m.m.q.R < n n < n 5.m.m.m.m.m.m.m.^.@X+X+XoXoX+X+XoX*XOX[.Z.m.m.m.m.m.m.m.n.M.j.].+X,X8X9X",
"9X0X9X6X-Xj 7 &.,.k.k.a.P K L c ;.m.m.m.m.8.m < < < m < / m.m.m.m.m.m.m.C.].W..XQ..XXXoXoXOXOX_.N.m.m.m.n.m.m.m.m.w.e.!.%X&X8X8X",
"0X9X9X7X|.% e *.2.k.k.i.P K L v ! m.m.m.m.5.m < m < < < / m.m.m.m.m.m.m.m./..XXX.XXX+X*X*X2X*X~.m.m.m.m.m.m.m.m.m.r.e.I.@X-X6X8X",
"0X9X9XwXH.$ h *.3.k.k.a.P K L C y m.m.m.m.c.N < m < < m 4.m.m.m.m.m.m.m.m.Z.[.+X+X*X*X-X6X7X<XC.m.m.m.m.m.m.m.m.n.r.e.I.-X,X;X1X",
",X,X-X6Xj $ *.*.u.h.k.a.P K K F y m.m.m.m.m.4.N < < < / v.m.m.m.m.m.m.m.m.m.).%X*X=X&X6X7XwX'.m.m.m.m.m.m.m.m.m.N.r.e.x.-X&X*X&X",
"*X*X*XoX4 * %.*.u.k.h.d.Y K K H y b.m.m.m.m.m.8._ ( 4.b.m.m.m.m.m.m.m.m.m.m.Z.[.%X+X*X1X8X0XF.m.m.m.m.m.m.m.m.m.n.e.e.z.$X+X+XoX",
"*X*X2XR.% 0 &.*.3.k.h.g.U K L J , 9.m.m.m.m.m.m.m.m.m.m.m.m.m.m.m.m.m.m.m.m.m.(.oXXX%X-X8X}.C.m.m.m.m.m.m.m.m.m.M.e.e.z.[.+XXXoX",
"7X7X6XP.$ 0 &.*.2.k.h.h.} K K L < :.m.m.m.m.m.m.m.m.m.m.m.m.m.m.m.m.m.m.m.m.m.A.[.+X+X$X-X).m.m.m.m.m.m.m.m.m.n.r.e.e.z.$X%X*X*X",
"wXwX9XK.$ 0 &.*.,.k.h.h. .J K L v Q m.m.m.m.m.m.m.m.m.m.m.m.m.m.m.m.m.m.m.m.m.V.`.+X&X%X$XF.m.m.m.m.m.m.m.m.m.n.e.e.e.z.#X*X-X1X",
"7XqXwXJ.$ 0 &.=.<.h.h.k.y.P L K F y b.m.m.m.m.m.m.m.m.m.m.m.m.m.m.m.m.m.m.m.m.m.D.[.%X&X{.V.m.m.m.m.m.m.m.m.m.M.e.e.e.z.%X%X;X,X",
"4X8X0XJ.$ = %.-.#.g.h.k.f.U K K K > 7.m.m.n.m.m.m.m.m.m.m.m.m.m.m.m.m.m.m.m.m.m.V._.%X&X^.m.m.m.m.m.m.m.m.m.m.r.e.e.e.I.=X=X=X$X",
"=X2X4XK.* ; h =.@.s.k.h.g.| J L L v ! m.m.m.m.m.m.m.m.m.m.b.0.4.5.v.m.m.m.m.m.m.m.D.+X$XS.m.m.m.m.m.m.m.m.m.N.e.e.e.e.I.;X-X*X%X",
"%X%X2XP.% * h -.*.3.k.h.k.i.I L K J 1 9.m.m.m.m.m.m.m.m.b.( M < n R 0.m.m.m.m.m.m.C._._.V.m.m.m.m.m.m.m.m.m.w.e.e.e.e.`.6X;X*X*X",
"3X*X%X X- * e -.=.<.h.h.h.k.| J L L b Q n.m.m.m.m.m.m.m.4.< < < n < W b.m.m.m.m.m.n.D.D.m.m.m.m.m.m.m.m.m.N.e.e.e.e.j.{.8X;X;X-X",
"9X4X4X%Xp * 8 =.-.@.i.h.h.k.i.U K K J x :.m.m.m.m.m.m.m.W < < m n n M 0.m.m.m.m.m.m.C.C.m.m.m.m.m.m.m.m.m.w.e.e.e.e.x.$X6X8X8X1X",
"6X9X7X4Xo.* = *.-.*.>.g.h.h.k.y.I K K J n :.m.m.m.m.m.b.W < m < n n M 0.m.m.m.m.m.m.m.m.m.m.m.m.m.m.m.m.N.e.e.e.e.e.(.@X-X6X6X,X",
"4X4X4X9XJ.* ; e -.=.*.u.k.h.h.h...P K K J B ~ b.m.m.m.m._ < < < n < R v.m.m.m.m.m.m.m.m.m.m.m.m.m.m.n.n.r.e.e.e.e.j.].&X&X*X*X*X",
"%X2X4X8XE.5 ; 0 &.&.&.#.d.k.h.h.h...P K K J v y 7.m.m.m.q.W m < < N 5.m.m.m.m.V.m.m.m.m.m.m.m.m.m.m.n.w.e.e.e.e.e.I.&X&X1X&XoX.X",
"oX%X;X=X+Xi ; ; h -.-.-.$.g.h.h.h.h...I K K K F : Q c.m.m.v.4.( _ 0.m.m.m.m.m.m.m.m.m.m.m.m.m.m.m.n.M.e.e.e.e.e.j.!.-X&X&X&XoXXX",
"%X*X=X&X*Xl * ; 0 &.-.-.*.>.h.h.h.h.h.y.U J K K J x 2 :.b.m.m.m.m.m.m.m.m.m.m.m.m.m.m.m.m.m.m.m.n.M.e.e.e.e.e.e.I.%X*X*X&X%XXXXX",
"=X=X=X;X7XP.* ; ; 8 =.-.-.*.>.f.k.h.h.h.a.} T L K K F > y 7.m.m.m.m.m.m.m.m.m.m.m.m.m.n.m.m.m.N.r.e.e.e.e.e.e.l.].3X4X4X;X&X%X+X",
"=X-X4X6X6X%Xp * ; ; e &.-.-.&.$.s.l.k.k.h.g.X.U J L L J v , ! c.m.m.m.m.m.m.m.m.m.m.m.m.m.n.N.r.e.e.e.e.e.e.j.!.*X*X-X6X6X;X&X%X",
"&X-X=X*X*X6XH.O * ; ; e -.-.-.-.#.3.h.k.h.h.h.a.} T K K L J z 2 7.m.m.m.m.m.m.m.m.m.m.m.N.w.e.e.e.e.e.e.e.j.U.XX+X+X%X&X1X9X1X$X",
";X=X*X*X*X-X%Xs . $ ; ; r -.-.-.&.+.>.d.h.h.h.h.g.X.Y J L K K b 3 ;.m.m.m.m.m.m.m.n.N.r.e.e.e.e.e.e.e.e.e.I.+X%X+X+XXX+X%X;X,X;X",
";X*X%X*X2X-X-XE.4   o $ * q &.-.&.&.+.#.u.h.l.h.h.h.a.{ J K K K H : ;.N.N.M.M.M.w.e.e.e.e.e.e.e.e.e.e.e.I.+X%X*X%X+X.XW.[.*X;X;X",
"$X=X*X*X*X4X;X;XT.4   X o O & r &.-.-.&.-.1.f.l.h.h.k.g. .T K K L J > ` e.e.e.e.e.e.e.e.e.e.e.j.e.e.j.).&X&X*X3X=X&XXX X.X+X=X>X",
"$X*X2X*X-X-X-X-X=XR.p . X X X + 9 r &.&.-.=.#.u.h.h.k.h.k.y.Y K T H A 3 6.e.e.e.e.e.e.e.e.e.e.e.e.z.!.&X;X&X-X-X=X&X%X+X.X.X+X=X",
"+X+X*X=X-X=X-X=X&X-XXXk o   X X X + 9 e r r r f ,.i.i.i.y.i...D A A A x E j.e.e.e.e.e.e.e.e.e.j.I.].&X&X4X4X3X%X%X@X$X&X%X+X.X+X",
".X+X&X;X8X-X&X&X*X*X-X6XK.4     X X o # q q q q q g [ t.3.t.t.` D A A A > 6.e.e.e.e.e.e.e.j.x.`.$X&X;X>X3XqX3X+X+X+X+X=X%X.X.X.X",
"XX+X&X6X8X8X;X=X=X=X3X9X9X+XO.%     X X @ 9 w w q q d ] 3.[ 3...] S Z A c ^ z.e.e.e.e.l.I._.&X-X>X>X;X>X9XwXqX3X%X+X%X*X%X%X.X%X",
"*X%X&X6X9X1X>X>X3X3X4X6X9X9X6X XO.4 o     o 7 w w q w d [ t...3.t.] A Z A B l.z.x.U.!.[.oX*X=X-X>X>X8X8X9X9X0X0X8X%X%X.XoX*X*X*X",
"3X*X=X=X;X>X&X&X*X%X*X-X-X6X*X*X2XoXL.k 4 o   @ 9 9 q w d ] 3...t.t.' b z ' ].$X%X*X*XOX+X+X%X%X&X-X3X-X-X=X8X7X8X=X%X%X%X3X3X4X",
"6X=X%X*X*X@X@X+XoX+X+X+X+X*XOXXX+X%X=X=X@XT.G.k i t & # # t u u u u a 6 o.E.;X;X@X-X-X*X*X%X+XXX+X+X*X+X+X+X%X2X*X&X&X*X*X;X4X4X",
"8X-X*X*X%X.X[..X X.XoX.XOXOXoX X+X%X*X3X4X>X1X8X*X.XE.T.K.P.P.T.R.|.oX%X3X;X=X4X*X-X-X;X-X;X%X+X X.XOXoX.X.XoXOXXXXX+X&X+X+X@X=X",
"6X6X*X*X+X X.XXX.XXX+X%X2X2XOX*X+X+X%X*X=X=X=X=X&X&X%X&X;X4X6X8X0X0X0X9X4X4X=X%X%XoX*X;X,X;X=X%XXXoX%X+X+X+X%X%XXX.X+X+XXX.XXX&X",
";X=X*X*X+X.X+X+X&X%X*X3X6XqX7X3X*X+X+X&X=X=X=X&X%X+X%X=X=X;X6X8X8XwX8X8X9X4X=X+XXX X.X%X-X,X;X-X@X=X-X-X=X=X;X-X+XXX+X+X.X.X.X+X",
"XXXX*X-X*X+X%X*X%X*X=X8XwXwXqX4X4X+XXX&X&X*X&X+X+X%X=X;X=X*X%X=X>X4X4X4X4X7X3X.X|.E.W..X*X;X;X8X8X8X1X4X8X3X,X;X&X+X+X+X&X%X+X+X",
" X+X%X=X-X-X*X%X*X+X&X8X9X9X9X9X3X*XXX+X+X=X%X+X+X%X3X3X*X+X+X+X%X*X*X*X4X4X=X.X X|.W..X+X*X,X9X9X9X8X1X,X,X;X=X&X%X+X&X;X>X&X*X",
".X+X%X;X6X*X%X%XoX+X+X=X;X8X8X8X=X&X+XXX%X=X=X%X+X%X%X=X*X+XoXoX*X4X*X*X=X3X3X%X.XoX+XoX+X+X*X,X9X9X1X;X=X-X-X;X=X%X%X&X&X1X1X,X",
"%X-X4X4X3X*X*X&X+X+X+X&X=X;X1X1X;X*X%X+X*X4X=X%X*X%X=X2X*X%X+X4X7X4X4X=X*X3X%X*X+X*X*X;X*X*X*X*X6X8X8X&X&X=X6X6X6X-X;X&X&X:X1X8X",
"4X4X8X4X3X%X*X%X%X+X&X+X&X=X;X1X4X*X%X&X3X4X3X=X2X=X*X2X2X%X=X7XwXwX8X>X*X*X*X%X%X&X6X4X-X*X*X*X6X6X6X;X%X$X1X8X7X7X>X>X>X>X8X8X"
};
