/* XPM */
static char *_06c98a4a32c406b8e5b137f4e714f5cipntK1nT6YshGiKC[] = {
/* columns rows colors chars-per-pixel */
"64 64 212 2 ",
"   c #0E0D0C",
".  c #11120E",
"X  c #131311",
"o  c #191A14",
"O  c #211F1B",
"+  c #1A2819",
"@  c #1A361B",
"#  c #22231F",
"$  c #27371E",
"%  c #2B2926",
"&  c #292926",
"*  c #342E25",
"=  c #2A3A26",
"-  c #33352B",
";  c #343333",
":  c #363B35",
">  c #393838",
",  c #781913",
"<  c #631F0E",
"1  c #67210F",
"2  c #7F2107",
"3  c #742C0F",
"4  c #67390C",
"5  c #6B2211",
"6  c #443B2B",
"7  c #423927",
"8  c #423D34",
"9  c #72382B",
"0  c #643B2A",
"q  c #264926",
"w  c #27582B",
"e  c #354634",
"r  c #345031",
"t  c #2C622F",
"y  c #2D6631",
"u  c #366439",
"i  c #356B38",
"p  c #36753A",
"a  c #30612F",
"s  c #70511C",
"d  c #6E4E12",
"f  c #574C36",
"g  c #514C35",
"h  c #66593B",
"j  c #6C5128",
"k  c #506D2E",
"l  c #5C5621",
"z  c #3C7B40",
"x  c #6D5E42",
"c  c #7D6C4B",
"v  c #786746",
"b  c #871315",
"n  c #9D141A",
"m  c #941419",
"M  c #A7121B",
"N  c #B4141C",
"B  c #812407",
"V  c #872C08",
"C  c #8E3110",
"Z  c #AB2A1C",
"A  c #B31622",
"S  c #AE1421",
"D  c #AA2721",
"F  c #B03120",
"G  c #C6141F",
"H  c #DB1721",
"J  c #D81A22",
"K  c #E41923",
"L  c #ED1A24",
"P  c #F01B24",
"I  c #D62522",
"U  c #D22A21",
"Y  c #D92722",
"T  c #CB3921",
"R  c #D43622",
"E  c #E02423",
"W  c #994609",
"Q  c #895010",
"!  c #A6570A",
"~  c #8B680B",
"^  c #97760B",
"/  c #936C1C",
"(  c #B56C0A",
")  c #BE780B",
"_  c #A8781A",
"`  c #A7700F",
"'  c #AB4720",
"]  c #AD7D24",
"[  c #B47822",
"{  c #B26A22",
"}  c #86573B",
"|  c #CA5422",
" . c #D24F23",
".. c #CA6523",
"X. c #CA7824",
"o. c #D37125",
"O. c #887753",
"+. c #937D57",
"@. c #8C6949",
"#. c #50873D",
"$. c #6A8837",
"%. c #798532",
"&. c #3E8543",
"*. c #3E8B44",
"=. c #428E45",
"-. c #4D8A40",
";. c #419147",
":. c #429549",
">. c #A6860B",
",. c #B5930C",
"<. c #8D892F",
"1. c #9A872B",
"2. c #858932",
"3. c #978E30",
"4. c #999031",
"5. c #BF8424",
"6. c #AD942E",
"7. c #B9962C",
"8. c #CB8A0C",
"9. c #D6990C",
"0. c #CF9214",
"q. c #CCA70C",
"w. c #DEA40D",
"e. c #DBB50C",
"r. c #E3AB0C",
"t. c #F1BD0D",
"y. c #FFBE17",
"u. c #FFB51C",
"i. c #FFBB19",
"p. c #E7BA0D",
"a. c #C18624",
"s. c #C49A2B",
"d. c #DE9628",
"f. c #D89A27",
"g. c #D68926",
"h. c #E29C29",
"j. c #E08F28",
"k. c #D9A22B",
"l. c #E4A42A",
"z. c #ECAA2B",
"x. c #EAA72A",
"c. c #F3AF2C",
"v. c #FEB622",
"b. c #F4B02C",
"n. c #FBB92E",
"m. c #FAB62A",
"M. c #F9BA37",
"N. c #EAC10D",
"B. c #F4C40D",
"V. c #FDCD0E",
"C. c #F6C90D",
"Z. c #FFD10D",
"A. c #FFC414",
"S. c #FFC911",
"D. c #FBCF1E",
"F. c #FED014",
"G. c #FDD01C",
"H. c #FACE2B",
"J. c #F9CE27",
"K. c #FBD028",
"L. c #F6CD3C",
"P. c #F8CE33",
"I. c #FBD33B",
"U. c #948159",
"Y. c #A0895E",
"T. c #A58F62",
"R. c #AA9466",
"E. c #B59D6C",
"W. c #B9A06E",
"Q. c #BBA370",
"!. c #F5BC48",
"~. c #F2BE53",
"^. c #C4AA75",
"/. c #D2B57D",
"(. c #D6B97F",
"). c #D1B572",
"_. c #ECBF64",
"`. c #F4CD49",
"'. c #F6CB44",
"]. c #EDC858",
"[. c #F4CB55",
"{. c #F1CB4B",
"}. c #ECC768",
"|. c #F2C864",
" X c #E8C679",
".X c #F1CD75",
"XX c #F3D077",
"oX c #F6D368",
"OX c #DBBE82",
"+X c #D4BA81",
"@X c #DEC185",
"#X c #DDC388",
"$X c #E2C486",
"%X c #EACA84",
"&X c #E4C689",
"*X c #E6C98B",
"=X c #EBCC8D",
"-X c #E7C786",
";X c #F0CF8E",
":X c #F0CF83",
">X c #EFD08F",
",X c #F0D08F",
"<X c #F2D383",
"1X c #ECCF90",
"2X c #EED191",
"3X c #EED191",
"4X c #F1D292",
"5X c #F2D493",
"6X c #F2D695",
"7X c #F2D392",
"8X c #F5D896",
"9X c #F4DA9A",
/* pixels */
"3X3X3X3X1X*X*X*X&X-X-X$X*X=X=X;X=X*X$X&X=X;X1X*X*X*X*X*X1X&X=X1X9X9X3X1X1X*X*X&X*X=X1X*X=X*X&X*X3X4X3X*X&X=X;X6X6X6X4X;X%X%X;X5X",
"*X*X=X1X=X*X&X&X$X$X$X*X%X;X;X;X;X*X&X$X*X=X=X=X=X*X*X1X*X&X&X1X3X4X1X1X*X=X*X*X&X&X=X=X*X&X=X=X4X4X1X1X*X=X;X;X1X1X*X=X;X=X;X5X",
"OX$X*X=X1X=X*X&X@X$X&X=X;X;X;X4X=X*X$X@X&X=X*X&X#X*X*X*X*X@X@X@X*X*X*X*X*X1X*X*X@X@X@X$X$X&X*X=X4X5X4X1X*X1X1X=X*X&X&X&X=X;X;X1X",
"OX@X*X=X=X=X&X&X&X&X*X;X6X8X6X4X1X*X@X$X&X=X&X@X&X*X*X1X=X$X&X&X*X*X*X*X*X1X1XOX(./.+XOX&X*X=X4X6X5X4X1X1X;X;X=X=X&X&X&X;X=X=X*X",
"OX$X*X*X*X&X&X&X*X*X1X1X8X9X6X1X*X*X&X$X=X*X&X$XOX*X=X=X=X=X=X=X1X1X1X1X1X4X1XOX(././.@X=X1X1X;X4X4X;X4X;X1X;X1X&X$X$X$X&X&X$X@X",
"*X*X*X*X&XOX@X&X&X*X*X*X4X6X4X1X&X$X$X*X=X%X=X=X&X&X$X=X=X=X;X;X4X6X6X4X4X4X*X&XOXOXOX*X=X;X1X=X=X*X*X=X=X=X1X*X&X@X$X@X@XOXOX$X",
"4X1X*X*X&XOXOX$XOXOX&X*X*X*X*X*X$X&X*X*X=X%X=X%X*X*X-X-X=X;X7X5X6X8X8X4X;X1X*X=X&X&X&X=X1X=X=X&X@X@X&X&X&X&X&X*X@X@X$X$X@XOX@X*X",
"5X=X=X*X&XOXOXOX+XOX#XOX*X*X*XOX$X&X*X=X=X4X,X,X*XOX/.^.E.E.Q.^.^.+X#X*X=X=X1X*X=X=X=X1X=X=X*X@XOXOX&X@XOXOX@X&X@X@X$X=X$X@X*X=X",
";X=X&X*X*X&X&X&X@X&X@X&X&X*X&X&X$X&X*X>X#X^.Y.v g g - $ $ 7 s s s j j 9 @.+X1X1X*X*X=X*X*X&X&X@XOX@X*X&X@XOX*X1X=X$X*X=X*X=X;X1X",
"1X=X&X1X;X=X%X%X*X*X=X=X*X1X*X*X=X$XW.v 6 o . @ w w a a k 5.a.a.a.a.' A m } $X-X-X&X*X*X&X@X&X&X=X=X1X1X*X1X1X4X;X=X&X&X&X=X1X=X",
"*X&X=X1X5X;X,X;X1X1X1X2X4X4X1X+X+.6 o   . + q y t t a k >.a.5.5.a.{ D A S C m.n.M.~.}. X&X=X=X1X;X;X;X;X5X8X9X6X;X=X$X@X@X=X=X*X",
"OX@X=X;X5X;X=X*X*X*X1X;X6X&X+.*     . X + w y y t t k ] a.a.5.5.[ D A A n ` i.u.u.u.v.n.!._.-X1X;X=X1X;X5X9X1X1X$X$X$X&X&X$X$X@X",
"OX@X&X=X4X=X=X*X*X*X=X=XE.6     X . o q t t y y y l 5.a.a.a.a.[ Z A A A , 0.u.u.u.u.u.u.u.v.M._.=X=X=X=X;X8X1X&X@X$X&X=X&XOXOX@X",
"&X&X*X=X=X=X=X=X*X*X$Xc o   X X . @ w y y p p k 1.f.f.k.f.f.X.Z A A A m s v.u.u.u.u.u.u.u.u.u.v.!. X$X=X1X1X1X&X$X&X*X=X&XOXOX&X",
"*X*X1X*X*X=X1X=X=X/.g   . . X o w p *.*.*.*.$.f.b.b.m.c.c.g.R K K J A 1 0.u.u.u.u.u.u.u.u.u.u.u.u.n._.;X=X=X=X=X=X-X&X@XOXOX&X=X",
"=X*X*X*X=X3X=X=X^.7   X o # e p :.:.:.:.:.4.l.b.c.b.b.x.o.E L L L K , _ u.u.u.u.u.u.u.u.u.u.u.u.u.u.v.!.-X&X*X=X;X-X@XOXOXOX=X1X",
"=X%X&X*X*X1X1X/.6   o % ; u =.:.:.:.*.$.s.c.b.c.b.b.h. .K L L P J , ^ S.S.S.A.A.y.i.u.u.u.u.u.u.u.u.u.u.!.$X&X*X&X&XOXOXOX=X=X;X",
"=X1X*X&X*X1X@Xh X & ; : u *.:.:.:.-.3.l.b.b.c.b.c.X.R K L L L N 1 >.Z.Z.V.Z.F.Z.Z.S.A.y.u.u.u.u.u.u.u.u.u.!.$XOX&X&X@X$X*X=X1X=X",
"=X=X=X=X*X1XT.O ; > > i ;.:.:.;.$.7.c.c.b.b.b.d.| J L L L H b 4 q.Z.Z.Z.Z.Z.Z.Z.Z.Z.Z.Z.S.y.u.u.u.u.u.u.u.u.~.$X@X&X&X*X;X;X=X*X",
"=X=X=X1X3X&Xf ; > > u :.:.:.;.%.f.c.c.c.b.c.X.T L L L K N < ^ t.Z.Z.Z.Z.Z.Z.Z.Z.Z.Z.Z.Z.Z.V.S.y.u.u.u.u.u.u.v._.&X=X*X1X;X;X=X&X",
"*X*X=X1X6XQ.; > > r *.:.:.=.<.l.b.c.b.b.h.| I P L L G , d q.Z.Z.Z.Z.Z.Z.Z.Z.Z.Z.Z.Z.Z.Z.Z.Z.Z.V.i.u.u.u.u.u.u.n. X=X=X=X;X*X&X$X",
"*X=X=X=X1Xc ; > e &.:.:.=.<.z.b.c.c.b.g.T K L P K m 4 ,.Z.Z.Z.Z.Z.Z.Z.Z.Z.Z.Z.Z.Z.Z.Z.Z.Z.Z.Z.Z.V.y.u.u.u.u.u.u.!.&X*X=X=X&X$X@X",
"$X*X1X*X*Xf > ; z ;.;.=.2.z.b.c.c.z.X.I L P L G 3 ~ N.Z.Z.C.8.( ) p.Z.Z.Z.Z.Z.Z.Z.Z.Z.Z.Z.Z.Z.Z.Z.Z.A.u.u.u.u.u.v._.=X=X=X$X@X@X",
"$X=X1X1X+X8 > e ;.:.*.$.l.c.c.c.z.X.I L L K M d q.Z.Z.Z.p.! B 2 2 V w.Z.V.Z.Z.Z.Z.Z.Z.Z.Z.Z.Z.Z.Z.Z.V.y.u.u.v.u.u.!.-X=X=X&X$X@X",
"*X1X4X4XR.; ; u :.:.-.s.b.c.c.b.X.I L L J C ` C.Z.Z.Z.Z.) 2 2 2 2 2 W B.Z.Z.Z.Z.Z.Z.Z.Z.Z.Z.Z.Z.Z.Z.Z.V.i.u.u.u.u.m._.=X=X=X*X*X",
"4X;X3X3X@.; > &.:.*.2.c.c.c.b.g.U P L K B ,.F.Z.Z.Z.Z.C.! 2 2 2 B B V r.Z.Z.Z.Z.Z.Z.Z.Z.Z.Z.Z.Z.Z.Z.Z.Z.S.u.u.u.u.u.~.=X=X1X1X1X",
"3X1X1X*Xf ; r :.:.-.f.b.c.b.l.T L L L m ,.Z.Z.Z.Z.Z.Z.Z.! 2 B B B B V r.Z.Z.Z.Z.Z.Z.F.F.Z.Z.Z.Z.Z.Z.Z.Z.V.y.u.u.u.u.M.-X1X;X2X4X",
"1X*X*X+X; ; z :.*.2.c.c.c.z...K L P N ~ Z.Z.Z.Z.F.Z.Z.Z.8.B B B B 2 ! B.Z.Z.Z.Z.Z.Z.'.'.Z.Z.Z.Z.Z.V.Z.Z.Z.S.u.u.u.u.v..X2X1X1X1X",
"*X*X*X^.* > z *.;.7.b.c.b.h.U L L K 3 N.Z.Z.Z.Z.Z.Z.Z.Z.C.( V 2 B W r.Z.Z.Z.Z.Z.Z.F.}.}.F.Z.Z.V.Z.Z.Z.Z.Z.Z.y.u.u.u.u.|.2X=X=X*X",
"*X*X1XE.% : &.:.-.k.b.c.c...K L P M ~ Z.Z.Z.Z.Z.Z.Z.Z.Z.Z.V.w.8.9.B.Z.Z.Z.Z.Z.Z.Z.L.$X%XK.Z.Z.Z.Z.Z.Z.Z.Z.Z.V.u.u.u.u.~.2X=X=X&X",
"1X1X3XR.& > &.:.$.z.c.c.l.T L L L , q.Z.Z.Z.Z.Z.Z.Z.Z.Z.Z.Z.Z.Z.Z.Z.Z.Z.Z.Z.Z.Z.S.}.$X-X`.Z.Z.Z.Z.Z.Z.Z.Z.Z.V.i.u.u.u.M.=X*X=X*X",
"9X9X8XR.& e *.*.<.c.c.b.g.J P P J 4 C.Z.Z.Z.Z.Z.Z.Z.Z.Z.Z.Z.Z.Z.Z.Z.Z.Z.Z.Z.Z.Z.P.$X-X=X.XF.Z.Z.Z.Z.Z.Z.Z.Z.Z.y.u.u.u.n.$X*X=X1X",
"9X9X6XE.& e *.;.3.b.c.b...K L P M ~ Z.Z.Z.Z.Z.Z.Z.Z.Z.Z.Z.Z.Z.Z.Z.Z.Z.Z.Z.Z.Z.F.}.$X-X-X-XH.Z.Z.Z.Z.Z.Z.Z.Z.V.S.i.u.u.n.-X&X=X1X",
"9X3X1XQ.% e *.;.6.b.b.c.| L L L , ,.Z.Z.Z.Z.Z.Z.Z.Z.Z.Z.Z.Z.Z.Z.Z.Z.Z.Z.Z.Z.Z.H. X$X$X*X=X[.Z.Z.Z.Z.Z.Z.Z.Z.Z.Z.i.u.u.n.%X&X*X*X",
"*X*X*X/.* : =.=.7.c.c.x.T P L K 5 e.Z.Z.Z.Z.Z.Z.Z.Z.Z.Z.Z.Z.Z.Z.Z.Z.Z.Z.Z.Z.F.].$X#X$X=X3XXXG.Z.Z.Z.Z.Z.Z.Z.Z.Z.A.u.u.n.-XOX$X$X",
"*X*X*X@X6 - &.;.s.b.b.l.R P L J 4 C.Z.Z.Z.Z.Z.w.) ( 0.B.Z.Z.Z.Z.Z.Z.Z.Z.Z.Z.J.%X&X&X*X>X6X8XI.Z.Z.Z.Z.Z.Z.Z.Z.Z.S.u.u.n.-X&X$X&X",
"1X3X*X3Xv & &.-.s.b.b.h.U L P G d V.Z.Z.Z.Z.8.V 2 2 B ! B.Z.Z.Z.Z.Z.Z.Z.Z.Z.].&X&X*X=X>X8X9XoXZ.Z.Z.Z.Z.Z.Z.Z.Z.S.u.u.M.%X=X*X=X",
"6X6X6X8XT.# p ;.7.b.b.d.Y L P N ~ Z.Z.Z.Z.p.W 2 2 2 B V 8.Z.Z.Z.Z.Z.Z.Z.Z.J. X&X&X&X*X>X3X6X<XJ.V.Z.Z.Z.Z.Z.Z.Z.V.i.u.M.=X=X;X=X",
"5X6X6X6X+X* i ;.6.b.b.d.Y L P M ^ Z.Z.Z.Z.9.B B B B B 2 ! Z.Z.Z.Z.Z.Z.Z.C.{.OX@X@X@X$X*X*X>X*X'.Z.Z.Z.Z.Z.Z.Z.Z.Z.y.u.~.=X=X3X,X",
"4X6X6X3X=Xh q ;.4.b.b.d.I L P n >.Z.Z.Z.Z.w.V B B B B 2 ( Z.Z.Z.Z.Z.Z.Z.D. XOXOX(.OX#X#X&X#X#X].Z.Z.Z.Z.V.Z.Z.Z.Z.y.u._.&X*X,X5X",
"5X6X5X=X=XE.$ *.2.M.b.k.R P P n >.Z.Z.Z.Z.N.W 2 B B 2 V 9.Z.Z.Z.V.Z.Z.Z.`.$X$X$X@X$X$X$X&X*X&X$XJ.Z.Z.Z.Z.Z.Z.Z.Z.A.v.(.-X=X;X5X",
"6X5X4X;X=X=Xx y $.z.b.l.R L L M >.Z.Z.Z.Z.Z.w.W B 2 V ) V.Z.Z.Z.Z.Z.Z.G.XX>X=X=X*X*X*X=X=X1X*X*X'.Z.Z.Z.Z.Z.Z.Z.V.A.!.$X-X;X7X8X",
"6X5X,X,X;X4X^.q k k.b.z. .L P N ^ Z.Z.Z.Z.Z.Z.t.9.8.r.V.Z.Z.Z.Z.Z.Z.Z.'.6X>X>X>X3X=X=X>X6X4X1X*X}.F.Z.Z.Z.Z.Z.Z.Z.A.}.=X;X;X7X8X",
"4X,X,X,X4X1X=X+.q 6.b.b. .L P G ~ C.Z.Z.Z.Z.V.Z.Z.Z.Z.Z.Z.Z.Z.Z.Z.Z.F.XX3X>X=X=X*X=X=X4X3X1X*X*X%XP.Z.Z.Z.Z.Z.Z.Z.H.%X1X;X,X7X7X",
"=X;X;X4X4X1X=X&Xh l c.b.o.L L J Q C.Z.Z.Z.Z.Z.Z.Z.Z.Z.Z.Z.Z.Z.Z.Z.Z.L.>X3X3X=X*X*X*X=X=X=X=X*X*X3X[.Z.Z.Z.Z.Z.Z.S.[.1X=X;X5X;X7X",
"*X*X1X3X3X=X=X=X(.f _ b.j.E L L C p.Z.Z.Z.Z.Z.Z.Z.Z.Z.Z.Z.Z.Z.Z.Z.F.}.1X>X*X=X=X*X*X=X=X=X*X*X=X*X.XG.Z.Z.Z.Z.Z.H.:X=X=X%X;X1X=X",
"*X%X1X3X1X=X*X=X>X/.j _ x.R L L N ` Z.Z.Z.Z.Z.Z.Z.Z.Z.Z.Z.Z.Z.Z.Z.P.=X*X*X=X=X=X*X*X*X*X*X=X3X1X&X$XP.Z.Z.Z.Z.F.oX2X;X-X=X1X=X=X",
"*X=X*X1X=X&X&X-X%X,X(.h / o.L L K Z q.Z.V.Z.Z.Z.Z.Z.Z.Z.Z.Z.Z.Z.Z.|.*X*X*X>X=X=X*X=X=X-X=X1X1X*X$X@X].Z.Z.Z.Z.'.=X;X=X=X&X1X%X*X",
"$X&X*X*X*X&X&X@X=X=X;XOX@.s A L P K C e.Z.Z.Z.Z.Z.Z.Z.Z.Z.Z.Z.Z.L.=X&X*X*X=X*X*X$X-X-X=X*X=X&X$X@X@X XF.Z.Z.J. X*X>X=X;X;X=X=X=X",
"@X&X=X*X&X&X&X&X1X;X;X=X*XR.0 n H P J Q C.Z.Z.Z.Z.Z.Z.Z.Z.Z.Z.F.|.*X*X*X=X2X*X*X-X$X$X-X*X-X$X$X$X&X&XL.Z.G..X*X&X&X%X=X=X;X=X&X",
"$X*X=X=X&X=X1X;X;X;X1X*X*X>X#X+.9 n M ~ Z.Z.Z.Z.Z.Z.Z.Z.Z.Z.Z.J.%X%X1X=X=X=X*X&X$X$X@X-X*X*X-X-X*X=X>X|.J.oX3X*X&X%X-X=X=X=X=X=X",
";X=X;X*X*X*X1X;X2X1X*X*X=X>X6X6X(.T.+.).G.Z.Z.Z.Z.Z.Z.Z.Z.Z.Z.].=X=X=X1X1X1X=X*X$X@X$X-X=X;X=X&X=X%X>X%XXX3X*X#X&X&X=X=X=X=X=X=X",
";X=X=X*X%X1X;X;X>X>X=X*X>X>X5X3X=X*X*X*XXXH.Z.Z.Z.Z.Z.Z.Z.Z.D. X*X=X=X=X2X2X=X*X$X$X-X;X;X1X=X&X$X$X&X=X=X>X*X*X-X=X=X*X&X*X1X3X",
"=X*X&X&X=X=X=X;X*X*X*X>X>X>X6X3X*X&X&X*X=X:X`.S.Z.Z.Z.Z.Z.Z.].@X&X=X=X*X*X=X=X=X-X=X2X4X;X=X@X@X(.(.#X*X*X=X*X*X*X=X=X*X=X*X>X=X",
"&X@X@X&X=X=X=X=X>X*X=X=X>X3X5X>X*X$X@X$X&X&X$X}.H.V.Z.Z.Z.D. X@X&X&X=X=X=X2X2X=X*X*X=X1X=X&X@X+X(.@X*X*X=X>X3X3X*X;X>X=X*X=X=X=X",
"&X@XOX*X*X&X&X=X=X=X*X=X>X3X3X>X*X@X@XOXOXOXOXOX X}.P.F.Z.{.@X@X&X=X1X;X;X=X=X*X$X$X&X*X&X@XOX+X(.&X>X*X=X>X3X8X=X;X4X=X=X*X*X*X",
"*X*X*X*X*X-X&X=X*X=X*X*X3X6X6X3X&X@XOXOXOX(.(.OX@X&X&X}.[. X*X*X*X1X3X3X1X;X=X*X@X@X@X$X$X@XOXOXOX@X1X1X1X1X2X2X4X;X;X%X*X$X=X*X",
"=X1X=X1X*X$X$X-X&X&X*X=X3X9X6X3X*X&X$X$X$X@X$X$X$X-X*X*X>X3X3X3X4X1X1X1X1X1X;X*X&X@X$X*X&X@X@XOXOX=X2X7X;X1X1X=X=X=X=X*X&X-X=X=X",
"4X4X3X*X$XOXOX@X@X@X&X=X3X9X6X3X;X=X=X;X=X=X;X;X*X-X&X=X>X3X3X4X4X4X1X1X1X1X1X1X=X=X&X=X=X&X@X@X&X=X7X5X;X;X=X$XOX@X$X$X*X1X;X=X",
"4X5X6X*X&XOXOX@X&X$X$X=X8X9X8X3X4X4X;X4X4X4X;X=X*X-X&X>X>X>X3X=X*X*X*X*X1X3X1X=X1X=X-X=X=X*X=X=X1X1X2X;X1X=X&X$X$X$X$X&X%X;X4X;X",
"4X4X4X=X*X&X#X&X*X&X$X=X3X5X5X5X6X6X4X4X;X*X=X*X=X=X*X1X3X=X*X*X*X#X&X*X*X1X1X=X1X=X&X&X&X=X=X1X;X7X;X1X1X1X=X&X-X-X&X&X=X1X;X;X",
",X,X4X=X*X1X=X=X*X&X$X*X3X5X6X6X4X4X4X;X=X$X&X&X=X%X=X1X3X=X*X*X*X=X=X=X=X1X=X3X1X=X&X&X$X=X=X1X7X;X;X1X1X8X;X1X;X=X=X$X$X=X1X7X",
"=X>X,X=X=X>X*X=X=X-X-X=X,X,X5X6X;X1X=X&XOX&X$X&X1X4X;X1X*X*X*X=X3X3X3X=X=X*X=X=X=X=X*X&X&X-X=X1X7X1X1X1X=X;X1X1X;X2X=X$X$X$X=X;X",
"3X3X=X1X=X=X=X&X-X$X-X-X>X,X5X5X;X&X&XOXOX&X&X*X3X4X4X*X*X*X1X3X3X9X8X3X=X*X*X=X=X=X*X*X&X*X=X=X2X1X1X;X=X=X=X1X2X7X1X&X$X$X=X2X"
};
