/* XPM */
static char *_80bb140eaa247cecad1d6e3678b6ab9Yl5oWr7KgVtktJap[] = {
/* columns rows colors chars-per-pixel */
"64 64 214 2 ",
"   c #0D0D0C",
".  c #11120E",
"X  c #131311",
"o  c #191A14",
"O  c #211F1B",
"+  c #1A2F1A",
"@  c #22221F",
"#  c #26391F",
"$  c #2B2926",
"%  c #282825",
"&  c #342E25",
"*  c #2B3A28",
"=  c #33352A",
"-  c #343333",
";  c #363B35",
":  c #3A3839",
">  c #771913",
",  c #631F0E",
"<  c #67210E",
"1  c #7F2208",
"2  c #732C0F",
"3  c #67390B",
"4  c #6A2211",
"5  c #443C2B",
"6  c #413827",
"7  c #423D34",
"8  c #71382B",
"9  c #643B29",
"0  c #254926",
"q  c #354634",
"w  c #2D542D",
"e  c #2C622F",
"r  c #2D6631",
"t  c #366439",
"y  c #356B38",
"u  c #36753A",
"i  c #30612E",
"p  c #574E1D",
"a  c #70511C",
"s  c #724C0F",
"d  c #574C36",
"f  c #514C35",
"g  c #65593B",
"h  c #6B5128",
"j  c #506C2E",
"k  c #6A6826",
"l  c #3C7B40",
"z  c #6D5E42",
"x  c #7C6B4A",
"c  c #8A1217",
"v  c #9D141A",
"b  c #951518",
"n  c #A7121B",
"m  c #B4141C",
"M  c #812508",
"N  c #862B08",
"B  c #882F08",
"V  c #8B3309",
"C  c #8E3113",
"Z  c #B0261A",
"A  c #B31622",
"S  c #AE1421",
"D  c #AA2721",
"F  c #AA3320",
"G  c #C6141F",
"H  c #DB1721",
"J  c #D81A22",
"K  c #E31923",
"L  c #ED1A24",
"P  c #F01B24",
"I  c #D62522",
"U  c #D62822",
"Y  c #CB3921",
"T  c #D43622",
"R  c #E02423",
"E  c #90480C",
"W  c #A2530A",
"Q  c #8A680B",
"!  c #99780B",
"~  c #926617",
"^  c #8F710A",
"/  c #AD610B",
"(  c #B56C0B",
")  c #BD780B",
"_  c #A8781B",
"`  c #A4740F",
"'  c #AB4720",
"]  c #997F27",
"[  c #AD7D24",
"{  c #B47822",
"}  c #B16A22",
"|  c #86583B",
" . c #C95422",
".. c #D14F23",
"X. c #CA6523",
"o. c #C97724",
"O. c #D37725",
"+. c #D36C24",
"@. c #937E57",
"#. c #897250",
"$. c #50873D",
"%. c #698837",
"&. c #798633",
"*. c #3E8B44",
"=. c #3E8543",
"-. c #428E45",
";. c #4D8A40",
":. c #419147",
">. c #429549",
",. c #A6870A",
"<. c #B5930B",
"1. c #8D892F",
"2. c #998D2F",
"3. c #858932",
"4. c #9A9031",
"5. c #BF8424",
"6. c #AD942E",
"7. c #BA962C",
"8. c #CB8A0C",
"9. c #D6990C",
"0. c #CF9214",
"q. c #CBA70C",
"w. c #DEA40D",
"e. c #DBB50C",
"r. c #E3AB0D",
"t. c #EABA0D",
"y. c #FFBE17",
"u. c #FFB51C",
"i. c #FFBB19",
"p. c #F1BE0D",
"a. c #C18624",
"s. c #C49A2B",
"d. c #DE9628",
"f. c #D89A28",
"g. c #D68826",
"h. c #E19A29",
"j. c #D9A22B",
"k. c #E4A42A",
"l. c #ECAA2B",
"z. c #EAA72A",
"x. c #F3AF2C",
"c. c #FEB622",
"v. c #F4B02C",
"b. c #FBB72C",
"n. c #FABA37",
"m. c #F4C30D",
"M. c #FDCD0E",
"N. c #F6C90D",
"B. c #FFD10D",
"V. c #FFC314",
"C. c #FFCA11",
"Z. c #FBCF1E",
"A. c #FED013",
"S. c #FDD11C",
"D. c #EAC10D",
"F. c #FACE2B",
"G. c #F9CE26",
"H. c #FBD028",
"J. c #F6CD38",
"K. c #FBD33B",
"L. c #A0895D",
"P. c #A48F63",
"I. c #AA9466",
"U. c #B69D6C",
"Y. c #B9A06E",
"T. c #BBA370",
"R. c #938159",
"E. c #F5BD47",
"W. c #F2BE53",
"Q. c #C3AA75",
"!. c #C5AA75",
"~. c #D2B57D",
"^. c #D5B87F",
"/. c #D1B572",
"(. c #EBBE63",
"). c #F4CD4A",
"_. c #F6CA44",
"`. c #EDC957",
"'. c #F4CB54",
"]. c #F1CB4B",
"[. c #EDC964",
"{. c #ECC669",
"}. c #F2C966",
"|. c #F5D267",
" X c #E8C678",
".X c #F1CD76",
"XX c #F3D178",
"oX c #D5BA81",
"OX c #DBBD82",
"+X c #DEC185",
"@X c #DEC389",
"#X c #E2C486",
"$X c #EACA84",
"%X c #E4C689",
"&X c #E8C789",
"*X c #E6C98B",
"=X c #EDCE8E",
"-X c #EACC8D",
";X c #E7C885",
":X c #F0CF8F",
">X c #F1CF84",
",X c #EFD08F",
"<X c #F0D08F",
"1X c #F1D383",
"2X c #ECCF90",
"3X c #ECCF90",
"4X c #EED191",
"5X c #EED191",
"6X c #F1D291",
"7X c #F2D595",
"8X c #F2D392",
"9X c #F4D896",
"0X c #F4DA9A",
"qX c #F0CF91",
/* pixels */
"4X=X6X6X6X4X=X-X%X%X*X4X=X&X+X#X&X&X&X-X6X7X7X7X6X8X7X<X3X*X5X0X0X2X*X*X-X6X6X2X#X#X*X*X-X&X3X-X-X&XOXOX+X%X2X4X6X6X-XOXoXOX*X3X",
"2X=X6X6X7X5X=X*X+X+X*X,X=X&X&X%X&X-X-X-X6X6X7X7X7X7X7X<X*X*X5X0X0X5X*X*X-X3X4X2X*X*X*X-X-X3X3X*X-X&X%X#X#X&X*X-X3X3X-X@X#X#X-X3X",
"2X=X6X6X5X5X2X%X+X+X@X&X-X2X-X*X-X=X3XqX<X6X6X6X7X7X7X=X*X*X:X8X0X9X3X*X%X2X4X4X3X3X3X3X-X3X%X%X*X*X*X&X&X-X&X%X*X*X*X%X&X*X-X5X",
"-X2X-X=X-X*X2X-X*X%X*X&X-X*X*X*X3X3X6X6X6X:X=X=X4X7X9X4XOX~.T.U.I.I.U.T.oX*X4X7XqX&X*X2X3X-X%X*X*X*X-X=X3X4X-X&X*X*X*X2X-X3X3X3X",
"2X2X2X%X@X@X*X-X-X*X-X-X*X%X%X*X-X2X3X6X<X,X-X-X-XoXP.z 5 $ $ $ $ $ $ & ; d #.I.oXOX*X7X3X-X*X-X2X-X-X3X8X8XqX-X%X+X%X*X-X2X2X*X",
"-X-X-X%XOXOX#X&X&X&X-X-X-X%X%X%X-X-X3X3X,X7X&XU.g & % % = ; q q q ; : : - - - - f d x T.*X3X2X-X2X2X*X2X:X6X-X#X+XOXOX%X*X2X*X*X",
"*X-X-X%XOXOX#X&X&X-X-X4X5X-X%X@X&X&X-X-X-X!.z 0 0 y l -.*.*.*.*.*.=.=.u t q ; - : : - - d P.#X-X-X-X-X3X=X:X-X;XOX+X+X%X*X&X*X*X",
"*X-X-X%X+X+X%X&X&X-X,X5X5X5X%X%X&X&X-X#X@.0 r *.>.:.-.-.-.-.:.:.:.>.>.>.>.:.=.y q - : : - o g ~.2X-X-X%X-X:X&X#XOX+X%X%X%X%X&X*X",
";X*X-X*X@X+X%X-X=X-X2X2X5X5X5X*X&X=XoXg 0 $.%.3.4.6.7.s.s.7.6.2.3.%.$.-.*.>.>.>.*.u q : : -   6 Q.*X-X*X*X,X*X#XoX+X#X*X%X+X#X;X",
"#X%X%X%X%X+X%X-X-X-X-X-X2X5X,X-X=X~.d p 6.j.l.v.v.v.v.v.v.v.c.v.x.l.f.7.&.$.>.>.>.>.=.t : : %   = ~.2X*X*X,X*X@XOX+X*X*X%X@X+X;X",
";X#X@X%X@X%X*X*X-X-X-X*X-X=X-X<X^.h [ l.v.v.v.v.v.v.v.v.v.x.x.x.x.x.v.v.x.f.1.;.:.>.:.:.t : - o   d +X-X-X-X-X@X+X#X*X-X&X#X#X&X",
"-X&X%X-X,X-X*X2X-X-X-X-X*X*X-XOXg _ v.v.v.l.z.h.d.d.d.h.k.z.x.v.v.v.x.x.x.v.x.s.%.:.>.>.>.t : % X   x ,X6X7X&X#X+X%X-X4X6X&X&X&X",
",X=X,X5X7X7X5X5X=X:XqX-X-X-X%Xx ~ l.h.+.....T U U U U U T Y  .+.g.z.v.v.x.x.v.v.k.3.-.>.>.:.t - o X o U.8X8X=X%X@X*X5X9X9X,X&X&X",
"6X6X7X7X9X9X7X7X6XqXqX:X4X4XI.a +.T R L L L L L L L P P P L K K J Y X.d.l.v.l.v.x.z.1.-.>.>.-.t O X   5 #X7X,X*X*X2X9X0X9X,X=X=X",
"9X8X8X8X9X9X7X5X6X6X6X9X9XOX9 Z L L L P P P P P L L P L L L L L P P K U X.k.v.v.x.x.l.1.-.>.>.-.0 X X   R.4X-X%X@X-X5X9X8X6X,X=X",
"8X9X8X8X5X5X5X5X5X4XqX6X9X@.v P L P L H G m n v v n m G H K P P L L L P K Y g.l.x.x.x.z.&.:.>.>.u o X   & oX%X@X@X@X-X7X6X<X<X=X",
"<X<X8X9X8X:X&X&X%X*X*X2XoX8 H P L m C E Q ! ,.,.,.! s s s < > n J L L L L L U o.l.x.v.v.j.%.>.>.>.w X X   @.@X@X@X%X*X-X,X-X=X-X",
"$X:X8X7X8X-X#X+X+X%X%X*XP.b P K F ` t.N.N.B.B.B.B.B.B.B.D.e.<.^ s > n K P L L J o.x.x.x.x.7.$.>.>.j + X   f +X%X%X#X#X%X%X*X*X*X",
";X&XqX7X6X&X#XOXOX@X%X*X@.b G C q.B.B.B.B.B.B.B.B.B.B.B.B.B.B.B.m.q.^ 2 m L L L I o.x.x.l.x.2.-.*.*.w o . X Y.*X*X;X;X#X+X+X;X%X",
"+X;X-X6X7X=X%XOXOX#X*X-X(.~ E e.B.B.B.B.B.B.B.B.B.B.B.B.B.B.B.B.B.B.B.e.Q b K P L U g.v.v.v.k.%.*.*.r 0 .   x ,X*X*X*X#X%X+X%X;X",
"+X#X&X3X6X=X#X^.OX;X-X.XG.B.N.B.B.B.B.B.B.B.B.B.B.B.B.B.B.B.B.B.B.B.B.B.B.<.M K L L Y h.v.x.v.s.>.*.u e +   f ^.-X-X-X*X%X%X*X&X",
"@X+X#X-X<X=X#X^.oX;X>XF.B.B.B.B.B.B.B.B.B.B.B.D.w.9.t.B.B.B.B.B.B.B.B.B.B.B.<.C K L K  .l.x.x.x.4.>.u r e o o Q.<X-X-X&X*X-X3X4X",
"#X#X#X-X:X:X#X^.OX#X).B.B.B.B.B.B.B.B.B.B.B.w.E N 1 V 8.M.B.B.B.B.B.B.B.B.B.B.` v L L U O.x.x.v.k.%.u r e 0 . L.<X<X&X*X*X*X-X4X",
"%X&X&X&X:X-X;XOXOX[.A.B.B.B.B.B.B.B.B.B.B.m.V M N 1 N V w.B.B.B.B.B.B.B.B.B.B.N.s G P P Y f.c.x.v.s.j r r r + x <X-X*X#X+X&X*X-X",
"4X4X-X*X&X&X;XOX#XF.B.B.B.B.B.B.B.B.B.B.B.9.1 1 M M M 1 ) B.B.B.B.B.B.B.B.B.B.B.q.4 K L L  .l.x.x.x.] i r e 0 f &X&X#X#X+X#X%X-X",
"5X7X=X&X*X#X#X%X`.A.B.A.B.B.B.B.B.B.B.B.B.8.1 N M M M 1 ( B.B.B.B.B.B.B.B.B.B.B.B.^ b P L J O.x.x.x.f.k e e e f +X&X%X%X&X%X*X-X",
"4X5X-X-X*X;X*X;XF.B.B.B.B.B.B.B.B.B.B.B.B.r.B 1 M M M M 0.B.B.B.B.B.B.B.B.B.B.B.B.t.3 G P L T d.x.v.f.5.j e e = ~.;X;X-X*X*X*X*X",
"*X-X,X4X,X-X*X{.Z.B.B.B.B.B.B.B.B.B.B.B.B.M.) M 1 1 1 / m.B.B.B.B.B.B.B.B.M.N.B.B.B.<.4 L L L  .z.v.f.a._ j e # Q.&X&X2X2X2X*X2X",
"*X-X=X4X6X:X2X'.B.B.B.B.B.B.B.B.M.B.B.B.B.B.M.9.( / 8.m.B.B.B.B.B.B.B.N.8.W W ) m.B.N.s m P L K +.v.f.a.a.[ j # Y.-X-X-X*X*X-X*X",
"*X*X-X=X=X<X4X X].S.B.M.B.B.B.B.B.B.B.B.B.B.B.B.B.B.B.B.B.B.B.B.B.B.M.( 1 1 1 1 W m.B.q., K L P U g.f.a.a.a.[ p Y.=X-X;X@X@X%X*X",
"-X*X*X*X=X6X4X*X#X X].G.B.B.B.B.B.B.B.B.B.B.B.B.B.B.B.B.B.B.B.B.B.B.w.B 1 1 1 1 1 8.B.B.^ c P P P T o.5.a.5.a.a T.6X,X*X%X#X%X-X",
",X-X*X*X=X6X4X*X+X+X+X X`.F.B.B.B.B.B.B.B.B.B.B.B.B.B.B.B.B.B.B.B.B.8.1 N 1 N 1 1 ( B.B.D.3 m P P L F _ a.a.a.a Q.8X7X-X@X@X-X5X",
"7X5X*X*X-X4X4X-X%X#X*X*X*X$X|.F.B.B.M.B.B.B.B.B.B.B.B.B.B.B.B.B.B.B.9.N 1 1 N 1 M ) B.B.B.q.< J L K A F { 5.5.a !.0X9X,X*X@X7X0X",
"7X5X*X*X*X5X4X5X*X*X&X-X-X-X-X*X[.J.A.M.B.B.B.B.B.B.B.B.B.B.B.B.B.B.D.W 1 1 1 1 V r.B.B.B.B.,.4 K J A S F } 5.a oX0X5X5X*X*X5X0X",
"7X5X*X@X%X2X4X4X5X-X-X-X-X,X*X@X2X%X|.K.Z.B.B.B.B.B.M.B.B.B.B.B.B.B.B.r.W B B E 9.B.B.B.B.B.B.,.> A A A A S ' h @X9X7X2X*X*X5X5X",
"4X5X-X*X-X-X4X4X-X-X*X-X5X-X-X@X*X-X-X>XXX_.S.M.B.B.B.B.B.B.B.B.B.B.B.B.N.r.r.m.B.B.B.B.B.B.B.C._ , b A A A S 8 *X5X5X5X*X*X,X4X",
"-X-X*X-X2X2X5X,X,X-X*X5X5X-X*X-X-X*X-X4X7X6XXX).Z.M.M.M.B.M.B.B.B.B.B.B.B.B.B.B.B.B.B.B.B.B.B.C.u.0.s c v S c #.,X,X7X5X2X*X-X-X",
"*X-X-X5X4X4X-X=X-X,X-X5X4X-X-X2X2X-X-X5X6X<X=X;X X].G.B.B.B.B.B.B.B.B.B.B.B.B.B.M.B.B.B.B.A.B.C.u.c.c.0.} C | ~.*X,X5X5X5X-X-X%X",
"*X2X-X,X4X3X-X-X-X5X5X-X-X*X&X-X2X2X-X-X-X<X-X#X+X+X X`.G.B.B.B.B.B.B.B.B.B.B.B.B.B.B.B.B.B.B.V.u.u.u.i.c.x. X-X-X-X-X*X*X-X%X@X",
"*X-X2X-X=X-X-X*X-X-X-X%X%X&X*X&X-X-X-X%X-X<X&X#XOX+X#X@X;X`.F.B.B.B.B.B.B.B.B.B.B.B.B.B.B.B.B.V.u.u.u.u.i.n. X5X-X*X@X+X@X*X*X*X",
"2X2X,X,X,X-X%X@X#X&X&X#X+X#X#X#X%X*X-X*X*X5X*X@X^.+X#X%X%X@X#X[.F.A.B.B.B.B.B.B.B.B.B.B.B.B.B.y.u.u.u.u.u.n.;X*X-X%X+X^.^.+X#X*X",
"*X*X*X,X-X%X@X+X#X*X-X%X+X#X#X&X;X*X-X*X*X2X*X+X+X+X;X*X%X@X+X#X#X{.J.A.B.A.B.B.B.B.B.B.B.B.C.i.u.u.u.u.u.W.&X*X*X%X^.~.~.+X*X-X",
"*X*X*X*X-X;X%X+X*X-X3X*X#X+X;X&X*X&X-X-X-X-X*X%X@X%X*X-X-X#X;X;X*X%X#X{.J.A.B.B.B.B.B.B.B.B.V.u.u.u.u.u.u.{.*X2X,X%X+X~.^.#X*X5X",
"@X*X@X*X&X-X%X#X*X3X6X2X&X&X&X&X&X&X-X5X6X6X-X@X@X@X2X5X,X-X;X&X&X&X;X{._.A.B.B.B.B.B.B.B.C.V.u.u.u.u.u.v. X*X*X,X-X*X+X+X@X*X,X",
";X#X#X*X-X*X;X%X%X2X3X3X3X*X-X&X*X2X*X3X7X8X=X;X@X-X5X0X7X4X-X&X.X).G.B.B.B.B.B.B.B.B.B.B.C.u.u.u.u.u.u.E.#X%X*X-X,X,X%X#X#X*X-X",
"*X*X-X-X*X%X@X@X#X&X-X-X-X&X&X&X2X2X*X*X=X7X2X*X@X2X7X0X9XXX'.F.A.B.B.B.B.B.B.B.B.B.B.B.M.V.u.u.u.u.u.c.{.*X%X%X*X-X,X-X*X%X%X;X",
"&X-X-X-X&X#X+X^.OXOX#X&X&X&X%X%X2X2X*X*X*X2X*X%X@X-XXX|.K.S.B.B.B.B.B.B.B.B.B.B.B.B.B.B.C.u.u.u.u.u.u.n.&X&X%X#X*X-X,X,X,X%X*X%X",
"-X,X4X,X-X;X#X^.oXoXOX&X&X&X@X#X3X2X2X*X*X*X@X X[.J.H.B.B.B.B.B.B.B.B.B.B.B.B.B.B.M.B.C.i.u.u.u.u.u.c.{.=X-X*X+X#X#X,X5X5X5X-X-X",
"4X5X7X<X-X#X+XOX^.^.^.#X&X-X;XOX#X*X3X-X$X.X).G.B.B.B.B.B.B.B.B.B.B.B.B.B.B.B.B.B.B.M.i.u.u.u.u.u.u.E.&X:X:X&X+XOXOX&X7X8X8X7X6X",
"4X4X7X6X4X-X*X%X@X+XOX#X=X=X#X+XOX%X X'.H.A.B.B.B.B.B.B.M.B.B.B.B.B.B.B.B.B.B.B.B.M.V.u.u.u.u.u.u.b. X-X=XqX&X&X+X@X*X4X8X8X4X7X",
"=X<X<X<X6X5X5X5X-X*X@X*X-X-X*X X`.F.A.B.B.B.B.B.B.B.B.B.B.B.B.B.B.B.B.B.B.B.B.B.M.V.u.u.u.u.u.u.u.}.&X&X=XqX2X*X#X%X-X4X<X7X4X4X",
"=X-X-X=X6X7X4X=X-X*X*X&X$X[.J.S.B.B.B.M.B.B.B.B.B.B.B.B.B.B.B.B.B.B.B.B.B.B.B.C.y.u.u.u.c.u.u.u.W.=X&X:XqXqX-X#X+X%X-X5X<X=X&X-X",
"-X=X4X=X4X6X,X=X-X*X*X2X.XG.B.B.B.B.B.B.B.B.B.B.B.B.B.B.B.B.B.B.B.B.B.B.B.M.C.i.u.u.u.u.u.u.u.E.$X3X3X6X6X6X-X+XOX#X-X,X,X-X&X*X",
"&X6X9X4X&X-X4X4X3X2X2X5X4X|.S.B.B.B.B.B.B.B.B.B.B.B.B.M.B.B.B.B.M.B.B.B.C.y.u.u.u.u.u.u.u.u.E.#X%X-X3X7X0X0X-X@XOX;X-X:X,X-X-X&X",
"=X4X4X&X*X%X2X5X5X5X-X*X*X2X.XG.M.B.B.B.A.B.B.B.B.B.B.B.B.B.B.B.B.B.C.y.u.u.u.u.u.u.u.u.u.W.#X%X&X*X3X2X7X0X5X%X#X%X3X3X4X=X,X,X",
"-X=X=X*X#X#X-X5X5X5X*X%X*X*X*X.XK.A.B.B.B.B.B.B.B.B.B.B.B.B.M.M.V.y.u.u.u.u.u.c.u.u.u.b.(.#X#X*X3X-X#X%X3X7X5X2X@X%X-X-X=X=X4X7X",
"4X6X3X&X+X#X*X6X4X-X*X*X#X;X&X*X-X|.H.B.B.B.C.B.B.M.A.C.V.V.i.i.u.u.u.u.u.u.u.u.u.c.E. X*X@X#X*X=X&X#X+X&X4X3X*X+X+X%X&X*X*X4X7X",
"4X4X=X%X+X#X&XqX,X,X&X*X;X&X&X&X:XqX>X'.F.V.V.y.y.y.y.i.u.u.u.u.u.u.u.u.u.u.u.c.E.{.*X-X*X#X@X&X&X&X&X#X#X&X-X&X#XOXOX#X%X%X5X5X",
"4X-X&X%X%X#X&X6X6X6X-X-X&X-X-X-X=X=X=X3X-X}.E.b.c.u.u.u.u.u.u.u.u.u.u.u.c.n.W.(.&X-X*X-X-X&X+XOX#X&X-X&X#X+X&X&X%X+X+X#X%X&X-X5X",
"%X&X#X#X&X;X&X&X-X-X-X-X-X$X:X:X&X&X-X3X=X*X#X(.(.W.n.n.n.b.b.b.n.n.].}..X-X*X*X=X&X-X,X3X-X+XoXoX#X&X*X%X+X%X*X&X#X#X;X&X&X-X3X",
"#XOX#X&X&X-X&X;X*X-X*X*X-X:X:X:X&X&X=X=X6X&X;X;X;X*X=X&X&X;X;X;X;X-X3X3XqXqX-X&X&X&X&X=X4X,X&XOXOXOX#X*X%X@X*X*X;X#XOX&X&X=X-X>X",
"#X;X&X<X6X-X*X;X*X*X2X-X&X-X-X-X-X=X4X6X6X=X=X-X&X-X=X&X#X#X;X&X*X&X3X-X:XqX-X-X&X&X*X&X=X7X-X*X+XOXOX+X%X*X-X-XOXoXOX&X3X6X:X&X",
"&X-X3X6X4X=X*X%X*X-X-X5X-X-X-X-X=X=X:X8X6X8X7X6X,X<X,X*X#X@X&X-X-X-X*X-X3X6XqX&X#X+X+X&X&X=X=X=X&X#X+XOX#X*X2X=X&X#XOX%X-X:X:X:X",
"4X4X4X6X4X5X2X-X-X-X-X6X=X&X&X&X&X&X-X8X8X7X7X7X7X7X<X&X#X@X-X3X-X-X*X*X3X6X5X*X@XOX+X;X&X&X=X:X6X*X#X+X@X*X-X3X2X&X#X+X;X:X8X<X"
};
