/* XPM */
static char *_759672eebcb4643e3c689cd34a91994tMS709jUKsYXkqkb[] = {
/* columns rows colors chars-per-pixel */
"64 64 212 2 ",
"   c #0D0D0E",
".  c #0F0F10",
"X  c #141413",
"o  c #1C1B19",
"O  c #1C2016",
"+  c #1B221B",
"@  c #27261D",
"#  c #262525",
"$  c #2C2B2B",
"%  c #302F2D",
"&  c #283924",
"*  c #383226",
"=  c #333333",
"-  c #373B37",
";  c #393835",
":  c #39393A",
">  c #582F17",
",  c #662819",
"<  c #762B15",
"1  c #782819",
"2  c #64381A",
"3  c #7B3117",
"4  c #77351E",
"5  c #423D2F",
"6  c #7B2421",
"7  c #693A2D",
"8  c #2D492A",
"9  c #364727",
"0  c #33542F",
"q  c #384336",
"w  c #3B4C38",
"e  c #395935",
"r  c #3E6538",
"t  c #3D6638",
"y  c #69461D",
"u  c #4D452B",
"i  c #4A4534",
"p  c #554C38",
"a  c #415E3C",
"s  c #624E2B",
"d  c #7A4A21",
"f  c #775B24",
"g  c #685739",
"h  c #42653C",
"j  c #4D6C3A",
"k  c #7D6124",
"l  c #746B33",
"z  c #5F5440",
"x  c #625741",
"c  c #645A43",
"v  c #466B41",
"b  c #486F43",
"n  c #497443",
"m  c #4C7C46",
"M  c #756346",
"N  c #7B6F52",
"B  c #84351D",
"V  c #892722",
"C  c #972724",
"Z  c #823922",
"A  c #9A3227",
"S  c #AA2B27",
"D  c #A32A2A",
"F  c #B62D29",
"G  c #BB302E",
"H  c #C4302D",
"J  c #CA322E",
"K  c #C83A2F",
"L  c #D0342F",
"P  c #CB3930",
"I  c #D33530",
"U  c #DA3732",
"Y  c #D03930",
"T  c #DB3832",
"R  c #89431C",
"E  c #8C481E",
"W  c #895726",
"Q  c #AC4A2D",
"!  c #BB5732",
"~  c #9E652A",
"^  c #8B7229",
"/  c #8C7132",
"(  c #A46727",
")  c #AD722B",
"_  c #B37A2D",
"`  c #A46431",
"'  c #BC6835",
"]  c #AD7D36",
"[  c #C1412F",
"{  c #C35733",
"}  c #C36836",
"|  c #C57739",
" . c #80644A",
".. c #857757",
"X. c #7D823F",
"o. c #598649",
"O. c #558B4D",
"+. c #568F50",
"@. c #579251",
"#. c #599351",
"$. c #658747",
"%. c #788643",
"&. c #9D852E",
"*. c #AD8B32",
"=. c #BD8731",
"-. c #B68539",
";. c #B8863A",
":. c #BE8D39",
">. c #B59936",
",. c #C88D39",
"<. c #D08B3F",
"1. c #C5913E",
"2. c #CC9838",
"3. c #C8A73B",
"4. c #CBAE3C",
"5. c #D6A43C",
"6. c #DAB43F",
"7. c #848943",
"8. c #898841",
"9. c #9B8C40",
"0. c #93805E",
"q. c #AA9442",
"w. c #B59541",
"e. c #998662",
"r. c #A28E66",
"t. c #A7946D",
"y. c #AF9D73",
"u. c #B09B72",
"i. c #C89A44",
"p. c #D79D43",
"a. c #CEA144",
"s. c #D8A446",
"d. c #DEA846",
"f. c #D7B840",
"g. c #DBBB41",
"h. c #E1AB47",
"j. c #E4AD48",
"k. c #E8AF49",
"l. c #E5BA42",
"z. c #E6BB42",
"x. c #E7B14A",
"c. c #EAB24A",
"v. c #F4B746",
"b. c #F5BB46",
"n. c #F3B748",
"m. c #F3B94C",
"M. c #EEBC5B",
"N. c #F2BB53",
"B. c #C1AB7D",
"V. c #EBBE68",
"C. c #EBC344",
"Z. c #E9C745",
"A. c #F6C247",
"S. c #F3CB47",
"D. c #F6C748",
"F. c #F6CC48",
"G. c #F9CB49",
"H. c #F9D247",
"J. c #F7D14C",
"K. c #F8D249",
"L. c #EECC5D",
"P. c #F3CF57",
"I. c #F1CF5C",
"U. c #F6D153",
"Y. c #F4D15A",
"T. c #EECD64",
"R. c #EDC16D",
"E. c #EDCC6A",
"W. c #F1C964",
"Q. c #F1D168",
"!. c #E8C776",
"~. c #E4C27C",
"^. c #EACC7B",
"/. c #F2D273",
"(. c #C5AF81",
"). c #CBB585",
"_. c #CCB585",
"`. c #D3BA87",
"'. c #D5BD8A",
"]. c #D9BE8A",
"[. c #D9C38C",
"{. c #DCC28E",
"}. c #D6C493",
"|. c #DDC591",
" X c #DEC894",
".X c #DFCA9B",
"XX c #E5CA82",
"oX c #E7C884",
"OX c #E1C58E",
"+X c #E5CA8B",
"@X c #ECCD8B",
"#X c #EDD085",
"$X c #F2D48F",
"%X c #E1C791",
"&X c #E4CB94",
"*X c #E9CE96",
"=X c #E6CE99",
"-X c #E4CD9A",
";X c #E9CF99",
":X c #EBD097",
">X c #E6D09A",
",X c #EAD199",
"<X c #EBD29B",
"1X c #EDD299",
"2X c #E9D29E",
"3X c #EFD89F",
"4X c #F0D59C",
"5X c #E7D2A2",
"6X c #EBD5A1",
"7X c #EDD9A3",
"8X c #EEDCAA",
"9X c #F0DAA2",
/* pixels */
"5X=X=X=X=X=X=X&X|.|.%X&X*X;X4X4X<X*X|.|.[.|.|.&X2X6X,X*X-X&X-X;X6X7X6X;X*X=X-X&X&X&X-X X|.&X&X=X6X2X=X=X&X&X&X>X>X2X>X%X{.OX*X5X",
"2X*X;X=X&X*X&X&X%X%XOX&X*X4X4X4X*X*X%X{.|.].].%X;X=X;X;X-X=X%X|. X X-X=X%X*X=X=X=X&X X|. X%X&X*X,X2X*X*X>X:X:X:X<X>X*XOX{.OX*X=X",
"2X:X,X*X&X-X*X*X=X%X[.%X*X4X4X4X4X4X*X*X&X}.].%X*X*X|.(.t.N x p 5 5 5 i z ..t.`.>X,X&X&X|.%X*X;X1X2X=X*X,X,X,X:X:X*X%X{.{.%X*X5X",
"1X1X,X*X%X|.[.|. X X|.&X;X<X4X<X4X4X4X<X*X*X%X_.r.N p ; % % = = = = = = $ # @ % p r.[.;X&X*X=X*X,X,X;X*X>X=X&X X%X X|.OX+X*X<X2X",
"6X4X1X*X|.[.'.[.[.|.[.=X2X7X1X1X1X1X,X4X&Xu.c ; = = = : : - w e v v b b v v v w 8 # ; ..].*X&X*X*X*X<X<X,X&X|.[.{.{.{.OX*X:X:X1X",
"<X<X>X-X|.`.'.].[.[.|.=X2X9X7X2X*X*X*XB.p $ = : : : - v n O.+.#.+.#.#.#.+.@.+.+.#.O.j 8 p u.].%X{.*X2X1X2X+X|.|.[.[.OX%X&X&X:X2X",
"=X=X*X&X X[.|.{.[. X X&X2X4X7X<X&XOXr.# o : : : q v O.#.#.#.@.O.O.$.$.%.7.7.7.7.%.%.$.O.t 8 ..'.[.%X,X,X:X*X*X&X*X%X%XOX+XOX&X>X",
"=X&X%X&X&X%X+X*X&X&X%X&X>X2X9X=X&Xe.o X ; : ; a O.#.#.+.+.o.%.9.w.i.d.j.k.k.k.j.j.h.s.i.q.%.9 c _.%X=X*X*X:X2X2X;X*X*X*X%X{. X=X",
"-X{.[.|.*X%X&X+X&X;X&X&X*X,X2X,Xu.@   $ : - n #.#.#.@.o.8.i.h.c.n.c.c.c.c.c.c.x.c.c.c.c.k.k.p.f g `.>X&X&X,X2X2X*X*X*X*X%X%X*X=X",
" X{.].|.%X+X&X&X*X&X&X*X=X,X2X'.*   o = q m #.#.#.O.X.i.c.c.c.c.k.k.c.c.c.c.k.x.x.x.x.x.v.k.k.c.^ M [.&X&X>X>X=X*X*X=X*X&X&X&X-X",
"-X X{.%X*X%X*X>X*X&X&X=X:X,X,Xc   X # q m #.#.#.o.*.d.c.c.c.c.c.c.j.p.i.| ' } ! { { } | | i.p.k.d.k ..OX*X>X.X X&X*X*X&X.X&X-X2X",
"=X&X&X&X&X*X:X:X=X&X&X&X*X1Xr.X X o = n @.#.#.o.q.x.c.c.c.c.x.p.| ! K I Y U U T T U U I I Y Y { } i.s y.>X&X&X|.OX%X&X&X&X&X-X2X",
"=X*X*X%X&X&X>X:X,X*X*X%X*X}.* X X + h #.#.#.o.w.c.c.k.c.n.p.' K P U T T T U T T T T T T T T T T T Y Q p &X=X=X&XOX%XOX&X&X&X*X2X",
"=X%X;X%X%X%X&X>X,X,X*X%X&X..  X   8 O.#.#.o.q.c.c.c.c.j.| Q I T U U T T T T I Y H H H J J I T T T T U V ..=X*X%X%X%X+X*X*X%X%X-X",
"|.|.=X%X X{. X%X*X>X*X&X`.* . X o o.#.#.O.9.c.c.c.c.d.' P T T T T T L F C 1 , > 2 s 2 y 4 4 B A H U T J 7 '.*X&XOX%X&X*X*X*X*X.X",
"|.|.&X&X&X%X[.{.%X&X*X*Xe.. X X 0 #.#.@.N h.c.c.c.s.! Y T T T I S 1 , y ^ *.4.g.Z.S.S.S.Z.g.4.*.W S U T C e.*X&X%X@X*X*X*X*X*X X",
"=X%X*X=X&X X|.{.+X*X*X%X5 X X & j @.@.$.i.c.c.c.d.! Y T T I C 2 k >.g.K.K.K.K.K.K.K.K.K.K.K.K.K.S.*.A I F  .*X*X*X*X*X+X%X=X%X&X",
"&X%X*X;X=X*X*X%X*X*X@XB.o X O e O.@.o.q.c.c.c.j.' L T T H 4 ^ g.K.K.K.K.K.K.K.K.K.K.K.K.K.K.K.K.K.K.>.Z 3 r.*X*X;X*X:X%X*X*X&X=X",
"&X%X=X1X;X=X*X*X+X%X+X..  X 9 h O.O.X.h.c.k.x.| P T U F d 3.K.K.K.K.K.K.K.K.K.K.K.K.K.K.K.K.K.K.K.K.H.6.4.I.[.%X*X=X*X%X*X:X*X=X",
"-X*X;X1X2X=X&X%XOXOX[.p   $ t t O.o.3.c.c.k.p.Q T U F f 6.K.K.K.K.K.K.K.K.K.K.F.S.Z.K.K.K.K.K.K.K.K.K.K.H.H.L.[.%X*X=X*X:X:X:X2X",
"1X1X:X:X1X;X*X%X{.[.B.@ o t t h o.q.c.k.c.h.! U U J 4 g.K.K.K.K.K.K.K.K.H.K.Z.) E R ( 6.K.K.K.K.K.K.K.K.K.K.K.E.|.*X>X>X*X4X4X1X",
"7X1X,X:X*X,X*X&X[.|.y.@ 0 t t t 7.k.c.k.k.| L U U 1 >.K.K.K.K.K.K.K.K.K.H.S.( < < < < E z.K.K.K.K.K.K.K.K.K.K.J.XX&X%X%X&X*X4X6X",
"7X1X,X*X*X=X&X&X+X&X0.& t t t j p.c.k.n.i.K U T C k K.K.K.K.K.K.K.K.K.K.K.5.3 < < < < < =.K.K.K.K.K.K.K.K.K.K.K.I.%X%XOXOX:X1X7X",
"7X1X2X*X%X&X&X*X X&XN 8 t t e ] k.k.k.p.{ U U J 2 6.K.K.K.K.K.K.K.K.K.K.H.,.< 3 < < < < ) K.K.K.K.K.K.K.K.K.K.K.J.^.{.{.OX*X1X6X",
"6X1X7X,X*X%X*X;X%X*Xc 8 t e / :.x.c.c.| Y T T 1 ] K.K.K.H.K.K.K.K.K.K.F.K.5.3 < < < < < =.K.K.K.K.K.J.K.K.K.K.K.K.Y.%X{.OX%X,X6X",
"6X4X7X1X,X*X&X%X X[.p 0 r l -.i.k.c.i.K T T S y Z.S.K.K.H.S.K.K.K.K.K.K.K.S.~ < < < < R z.K.K.K.K.K.S.K.K.K.K.K.K.J.^.%X&X*X,X1X",
"3X1X1X2X2X<X*X[.[.).i 0 l -.-.1.c.d.[ T U I , >.H.H.g.=.=.5.S.H.K.K.K.K.K.H.l.) R R ( 6.K.K.K.K.K.K.K.K.K.K.K.K.K.S.Q.&X*X*X,X2X",
"2X>X>X>X=X2X&X[.`.B.9 l -.-.-.1.h.} L T T C k K.H.2.Z < < 3 _ S.K.K.K.K.K.H.H.S.C.C.F.K.K.K.K.K.K.K.K.K.K.K.K.K.J.Y.^.>X&X%X%X=X",
"=X%X X&X&X>X*X[.[.B.u ] ;.;.;.i.| Y T T H > g.K.z.R < < < < < 2.K.K.K.K.K.K.K.K.K.K.K.K.K.K.K.K.K.K.K.K.K.K.J.Y.!.+X-X-X&X|.[. X",
".X&X&X X%X*X&X|.}.(.s ] ;.;.;.` K T T L , &.K.K.2.< < < < 3 < ) K.K.K.K.K.K.K.K.K.K.K.K.K.K.K.K.K.K.K.K.J.Y.^.OX[.|.&X&X X[.}.}.",
"7X2X>X&X&X&X&X X|.[.g ] ;.;.` A J T T C f S.K.K.3.< < < < < < ) K.K.K.K.K.K.K.K.K.K.K.K.K.K.K.K.K.S.J.T.XX:X&X&X|. X.X&X%X|.%X=X",
"8X7X3X:X&X%X X X X|.g ] ;.` A D G T S 2 g.K.K.K.z.R < < < < 3 2.K.K.K.K.K.K.K.K.K.K.K.K.K.K.K.K.J.E.^.|. X>X&X+X>X&X&X-X&X%X*X2X",
"7X3X1X,X&X&X X&X*X%XM ` Q C D D S S 2 4.H.K.K.F.K.2.R 3 < 3 _ S.K.K.K.K.K.K.K.K.K.K.K.K.K.K.U.Q.#X%X|.[.{.|.|.&X;X=X;X&X&X&X&X=X",
"5X>X1X>X&X%X*X=X*X%XN V D D D D V 2 3.K.K.K.K.K.H.K.f.,.=.5.F.K.K.K.K.K.K.K.K.K.K.K.K.K.U./.$X3X1X;X%X%X{.].[.%X;X<X;X=X&X&X&X=X",
".X.X&X&X&X*X&X=X*X;X..C D D C , d s.D.F.K.K.K.K.K.K.K.K.K.K.K.K.K.K.K.K.K.K.K.K.H.K.Y./.@X,X3X4X4X,X,X*X|.}.].%X*X;X;X;X=X%X&X.X",
"&X|.|. X&X>X&X*X*X=X'.x 6 4 W ,.n.b.S.K.K.K.K.K.K.K.K.K.K.K.K.K.K.K.K.K.K.K.K.K.Y.!.[.&X2X3X1X1X4X4X4X4X;X*X*X*X%X%X*X;X;X;X%X-X",
">X&X X%X=X,X=X*X=X&X%X`.i.5.v.b.v.v.b.K.K.K.K.K.K.K.K.K.K.K.K.K.K.K.K.K.K.S.L.!.{.|.[.=X2X3X3X1X1X,X;X4X<X*X*X*X%X X%X,X;X*X*X;X",
"2X,X>X>X=X=X,X*X=X&X%X%XW.v.v.v.v.v.b.K.K.K.K.K.K.K.K.K.K.K.K.K.K.K.K.U.W.~.`.[.[.[.|.=X3X7X7X<X*X:X&X*X*X*X*X*X&XOX|.*X;X,X1X2X",
"2X,X>X>X;X;X*X*X|.|.%X&XV.v.v.v.v.v.b.K.K.K.K.K.K.K.K.K.K.K.K.K.H.U.Q.XX%X{.[.[.OX%X X*X>X7X3X>X%X|.{.[.].].[.{.OX{.%X%X*X*X,X2X",
"-X>X>X,X*X*X=X%X].].|.].~.v.v.v.v.v.b.S.K.K.K.K.K.K.K.K.K.K.K.U.Q.XX%X X:X+X&X&X&X&X%X%X>X3X2X=X[.[.].].`.`.`.].{.|.%X&X%X&X X.X",
" X X=X*X*X*X*X&XOXOX|.&XoXm.v.v.v.v.v.A.K.K.K.K.K.K.F.K.K.Y.E.+X|.[.[.|.&XOX+X&X*X&X&X*X*X2X1X=X%X[.].'.'.].'.].{.%X&X*XOX%X[.}.",
" X X*X%X&X-X=X&X&XOX*X=X&XM.v.v.v.v.b.b.K.K.K.K.K.K.K.K.K.E.#X&X X|.].|.&X%X&X*X&X&X&X*X*X,X<X,X%X}.}.|.%XOXOX%X|.%X&X&X*XOX}.'.",
".X&X*X%X&X-X=X*X&X&X;X;X2XR.n.v.v.v.v.v.D.K.K.K.K.K.K.K.K.K.U.T.^.OX|.&X&X&X>X:X>X&X&X&X,X,X1X,X&X|.|.%X*X*X*X%X%X X&X&X%X%X|.}.",
"&X&X*X*X>X>X*X X{.OX%X*X=X+XN.n.v.v.v.v.b.K.K.K.K.K.K.K.K.K.K.K.H.P.T.^.+X*X:X,X>X=X X&X,X2X1X1X&X X%X%X*X*X*X*X%X*X&X=X*X%X%X%X",
">X&X&X,X>X>X&X X{.].OX%X&X*XV.v.v.v.v.v.v.D.K.K.K.K.K.K.K.K.K.K.H.H.S.K.Y.Q.#X:X,X>X&X X&X=X<X,X&X|.{.%X&X=X&X%X%X&X*X*X;X*X%X%X",
">X&X&X&X&X&X%X%XOX].{.OX%X&XoXm.v.v.v.v.v.b.S.K.K.K.K.K.K.K.K.K.K.K.K.K.K.K.J.Y./.#X*X&X&X=X>X=X&X}.{.|.&X&X|.{.[.{.{.&X;X4X*X=X",
">X+X X X X*X*X XOX{.OX%X%X%XOXV.v.v.n.v.v.v.b.K.K.K.K.K.K.K.K.K.K.K.K.K.K.K.K.K.K.J.T./.+X*X&X|.{.{.{.|. X|.|.[.|.{.].{.%X=X*X;X",
";X&X|. X.X*X*X%XOX%X+X&X%X&X%XOXN.v.v.v.v.v.n.A.K.K.K.K.K.K.K.K.K.K.K.K.K.K.K.K.K.K.K.K.U.Q.^.XX{.{.|.*X%X|.|.&X&XOX].`.'.&X*X=X",
"=X&X&X X-X=X*X&X%X%X+X&X&X=X>X&X~.m.v.v.v.v.v.v.A.K.K.K.K.K.K.K.K.K.F.K.K.K.K.K.K.K.K.K.F.K.K.P.E.^.OX*X&X X%X>X&XOX].'.'.{.%X,X",
"&X%X&X&X&X&X*X&X&X&X%X X&X&X>X*X XR.n.n.v.v.v.v.v.A.F.K.K.K.K.K.K.K.K.K.K.K.K.K.K.K.K.K.K.K.K.K.K.K.I./.#X+X&X&X&X&XOX[.].].%X>X",
"}.|. X*X*X%X%X*X&X&X&X*X&X&X&X&X*X%XR.v.v.v.v.v.v.v.b.S.K.K.K.K.K.K.K.K.K.K.K.K.K.K.K.K.K.K.K.K.K.K.H.H.J.#X*X|.OXOXOX%X.X].].|.",
"].].|.*X;X*X*X%X|.%X&X>X>X&X X X&X,X*XR.n.v.n.v.n.v.v.n.b.K.K.K.K.K.K.K.K.K.K.K.K.K.K.K.K.K.K.K.K.F.K.K./.3X&X|.[.{.%X*X|.].'.].",
"|.|.%X*X3X,X*X*X&X-X*X,X1X,X%X%X&X=X2X*XV.N.v.v.v.v.v.v.v.b.b.G.K.K.K.K.K.K.K.K.K.K.K.F.K.K.K.K.K.K.K./.1X9X1X=X%XOX|. X}.|.}.|.",
".X&X%X=X4X*X1X*X>X&X*X,X1X1X>X&X&X-X2X*X=XV.m.v.v.v.v.v.v.v.v.b.A.D.F.K.K.K.K.K.K.K.K.K.K.K.K.K.K.Y.#X*X1X9X7X6X*X%X}.'. X&X&X=X",
"=X&X%X*X*X*X%X%X X%X X&X&X-X&X X%X&X=X=X*X&XoXV.m.b.b.b.v.v.v.v.v.v.b.A.D.S.K.K.K.K.K.K.K.K.K.U.E.+X=X*X*X*X=X6X*X&X&X|.&X*X=X=X",
"6X*X|.|.%XOXOX{.[.[.|.[.|. X|.[.{.}.&X%X%X*X*X%X~.M.m.v.v.v.v.v.v.v.v.v.v.b.b.b.A.D.D.D.S.S.T.~.].{.%X|.].]. X&X%X%X%X%X%X%X=X2X",
"2X*X%X X|.].].].'.'.[.[.|.}.}.[.].|.&X*X*X*X*X*X&X%XoXV.N.b.v.v.v.v.n.v.v.v.v.v.c.n.v.M.V.oXOX[.'.].}.[.].'.}.|.].{.{.%XOX].%X=X",
"2X>X*X X|.'.].[.].].[. X.X>X.X X|.{.%X%X&X*X*X*X%X%X%X%X+X~.V.W.M.m.m.m.m.m.N.N.V.V.V.*X*X;X*XOX].|.|.|.{.|. X X{.].{.OX].`.{.=X",
"=X%X&X X{.].'.|.%X%X%X-X>X3X3X-X&X|.OX%X%X*X%X%X%X%X%X%X*X*X;X1X$X$X@X@X@X@X+X].'.'.'.&X*X=X;X&X*X&X*X*X*X*X=X&X{.{.[.{.].'.].|.",
"}.[.|.&X&X%X%X|.|.%X*X,X3X9X3X2X=X%X].|.%X&X|.[.].%X=X*X&X%X%X%X=X=X=X=X2X;X*X].).)._.].%X*X;X<X<X;X,X;X*X;X*X*X%X%X{.OX%X&X%X}.",
"].].%X*X*X&X|.%X|.%XOX*X3X3X3X:X=X%X].|.%X%X%X}.].%X&X=X&X}.[.|.%X|. X X*X=X&X}.'._.'.'.[. X=X,X4X4X1X*X=X;X;X*X%X%X%X%X*X*X&X&X",
"}.|.|.*X=X-X%X|.[.[.OX&X&X:X:X:X*X%X|.].|.*X%X|.%X%X&X&X&X[.[.|. X-X&X&X%X*X*X%X].].}.|.|.|.&X>X<X4X,X&X%X*X*X*X%X%X%X%X*X*X;X=X",
"-X=X=X*X-X&X%X|.{.OX|.%X%X&X:X:X*X&X|.|.%X;X&X&X-X&X&X.X.X|.%X=X6X2X*X*X&X&X|.|.|. X&X&X%X%X&X&X,X2X:X&X%X%X=X2X2X;X*X%X@X*X;X6X",
"5X5X6X5X5X.X.X-X=X%X.X&X=X>X2X2X.X-X.X-X-X6X5X5X.X.X.X-X.X-X=X6X8X8X6X5X-X-X.X-X=X=X5X5X5X&X.X=X5X6X5X=X-X=X6X6X8X6X5X5X;X;X1X8X"
};
