/* XPM */
static char *_8b7b138be9e45e290dbb4292742d65e5t3OLWwClCPgZ71X[] = {
/* columns rows colors chars-per-pixel */
"64 64 256 2 ",
"   c #1D1410",
".  c #290A08",
"X  c #2C170D",
"o  c #281A15",
"O  c #391B19",
"+  c #320D15",
"@  c #1B3613",
"#  c #27290B",
"$  c #272718",
"%  c #38251B",
"&  c #2D3A16",
"*  c #2A2527",
"=  c #3B2524",
"-  c #3C2B23",
";  c #382928",
":  c #383327",
">  c #383333",
",  c #3E1C2C",
"<  c #4F130F",
"1  c #690808",
"2  c #671409",
"3  c #710C0C",
"4  c #422C1C",
"5  c #782706",
"6  c #70330B",
"7  c #471D24",
"8  c #462927",
"9  c #453528",
"0  c #523629",
"q  c #482C36",
"w  c #4C3634",
"e  c #4A3939",
"r  c #553738",
"t  c #5A2A39",
"y  c #733228",
"u  c #1A5718",
"i  c #135115",
"p  c #244E1C",
"a  c #0E6E12",
"s  c #1A5528",
"d  c #2D4927",
"f  c #1C7925",
"g  c #1C6520",
"h  c #227A25",
"j  c #247A1F",
"k  c #744911",
"l  c #4B473A",
"z  c #544B36",
"x  c #744738",
"c  c #706528",
"v  c #4D3845",
"b  c #3D7B47",
"n  c #594548",
"m  c #574F4C",
"M  c #684E5D",
"N  c #655757",
"B  c #69524A",
"V  c #76645C",
"C  c #706A52",
"Z  c #735E69",
"A  c #766866",
"S  c #797676",
"D  c #6F6E6A",
"F  c #981B07",
"G  c #921308",
"H  c #AC1201",
"J  c #A51807",
"K  c #B81805",
"L  c #AE150F",
"P  c #8A270A",
"I  c #95291B",
"U  c #983A19",
"Y  c #8C3111",
"T  c #A62409",
"R  c #A9300E",
"E  c #953828",
"W  c #8E362A",
"Q  c #A5382A",
"!  c #8C1F25",
"~  c #D80B00",
"^  c #C61802",
"/  c #D51903",
"(  c #CF1108",
")  c #E51801",
"_  c #D32C0A",
"`  c #995216",
"'  c #A34E12",
"]  c #B6791E",
"[  c #944F2E",
"{  c #AE4C34",
"}  c #91702D",
"|  c #AA6D31",
" . c #8A7617",
".. c #C36E27",
"X. c #CC4D13",
"o. c #8F574F",
"O. c #BC5947",
"+. c #8C6E52",
"@. c #AB6A49",
"#. c #B86856",
"$. c #B36E4D",
"%. c #8A7D7C",
"&. c #987469",
"*. c #AB7A69",
"=. c #C56C55",
"-. c #C86D51",
";. c #CA7965",
":. c #078514",
">. c #17971A",
",. c #099011",
"<. c #30921D",
"1. c #07A919",
"2. c #0BB51B",
"3. c #05B717",
"4. c #11B41B",
"5. c #14AB17",
"6. c #2AB01D",
"7. c #189123",
"8. c #2E932B",
"9. c #06AA21",
"0. c #14AA22",
"q. c #09B922",
"w. c #16B728",
"e. c #1FB132",
"r. c #35AD2D",
"t. c #47972F",
"y. c #6C992D",
"u. c #44A939",
"i. c #4AAC33",
"p. c #5AAE21",
"a. c #08C11B",
"s. c #0EC62A",
"d. c #3BCE2D",
"f. c #61CB32",
"g. c #4C8F46",
"h. c #7A9279",
"j. c #47AC42",
"k. c #AA951B",
"l. c #9CA41C",
"z. c #A7A51D",
"x. c #8D9330",
"c. c #B19128",
"v. c #95A72D",
"b. c #B7AB33",
"n. c #98821D",
"m. c #C69127",
"M. c #CDAA2A",
"N. c #E4B92F",
"B. c #AEC52D",
"V. c #F1D51B",
"C. c #FEE516",
"Z. c #D6C62B",
"A. c #DBC938",
"S. c #DBD83F",
"D. c #FBD82A",
"F. c #FBDC35",
"G. c #E6CE34",
"H. c #FDE32C",
"J. c #FBE929",
"K. c #FEE533",
"L. c #FDEA33",
"P. c #FEE93A",
"I. c #FFF232",
"U. c #ECE222",
"Y. c #AA8C4E",
"T. c #918874",
"R. c #BA886A",
"E. c #AD8679",
"W. c #BB8B72",
"Q. c #A8947A",
"!. c #B28D73",
"~. c #A1954B",
"^. c #C38A5E",
"/. c #E88155",
"(. c #CC8665",
"). c #C68976",
"_. c #C5937C",
"`. c #D79172",
"'. c #D4AE5A",
"]. c #E5DA43",
"[. c #F2E742",
"{. c #DECD41",
"}. c #9F7D81",
"|. c #888685",
" X c #9C9998",
".X c #968E8F",
"XX c #AE938F",
"oX c #B1A898",
"OX c #A69DA5",
"+X c #9CACA1",
"@X c #A7A5A3",
"#X c #B8A8A6",
"$X c #B5B9B2",
"%X c #999E9A",
"&X c #CC9989",
"*X c #C8A48C",
"=X c #DAA58A",
"-X c #D7A491",
";X c #D9B695",
":X c #CBAD98",
">X c #E4A88A",
",X c #EAAB98",
"<X c #E6B699",
"1X c #FFBB9B",
"2X c #F8B79B",
"3X c #F8AD8D",
"4X c #C8B6B0",
"5X c #E8B6A8",
"6X c #FBBCA6",
"7X c #F3B3AD",
"8X c #B9C2BF",
"9X c #FAC19B",
"0X c #CBC6B8",
"qX c #DECBA3",
"wX c #FCC6A9",
"eX c #E7C9B1",
"rX c #FEC7B5",
"tX c #F3D3B2",
"yX c #CBC39F",
"uX c #BBBFC0",
"iX c #BDC3C3",
"pX c #C8C7C5",
"aX c #D8D7D5",
"sX c #D2D0D2",
"dX c #F0D2C8",
"fX c #DCE3D9",
"gX c #E4E5DE",
"hX c #FDEDD4",
"jX c #E3DEE9",
"kX c #DEE0E3",
"lX c #E5E4E4",
"zX c #EBEBE4",
"xX c #EDEDED",
"cX c #E6E8E7",
"vX c #F3EBE5",
"bX c #F2ECEE",
"nX c #FBE6EF",
"mX c #E7F1EA",
"MX c #ECF2ED",
"NX c #EAF6E7",
"BX c #F1F2EE",
"VX c #F7F7ED",
"CX c #EDEEF1",
"ZX c #E8E6F4",
"AX c #F2EDF1",
"SX c #F7EDF9",
"DX c #ECF2F2",
"FX c #EDF4F8",
"GX c #F3F3F3",
"HX c #FBF4F5",
"JX c #F5FAF5",
"KX c #FCFCF5",
"LX c #F4F5FA",
"PX c #FCF5FB",
"IX c #F6FCFC",
"UX c #FDFDFD",
/* pixels */
"xXxXxXxXPXUXUXUXJXxXxXxXGXUXUXUXUXxXGXxXxXPXUXUXUXPXMXDXCXxXUXJXUXUXxXCXCXxXPXUXUXUXUXxXxXMXxXUXUXUXUXJXxXxXxXGXUXUXUXIXxXxXBXxX",
"GXxXGXxXUXUXUXUXPXxXxXxXGXUXUXUXPXMXGXMXAXJXUXUXUXUXcXxXxXAXUXUXUXUXxXxXxXcXUXUXUXUXPXGXMXxXGXUXUXUXUXAXxXxXxXPXUXUXUXUXbXxXxXBX",
"xXxXxXxXIXUXUXUXJXxXxXxXGXUXUXUXUXGXxXxXxXPXUXUXUXJXAXGXGXAXUXUXUXUXBXGXBXmXJXIXUXUXPXxXxXAXGXUXUXUXUXGXxXxXxXLXUXUXUXIXxXxXxXxX",
"xXxXxXGXPXUXUXIXGXxXxXxXJXUXUXUXUXxXxXBXxXJXUXUXPXPXxXCXcXCXUXUXUXPXMXcXMXxXPXUXUXUXPXxXxXcXxXUXUXUXPXGXAXMXxXAXUXUXUXPXGXbXxXxX",
"PXIXUXPXGXGXGXGXJXPXIXPXGXGXGXGXGXJXPXIXPXJXMXxXJXCXUXGXUXUXUXFXFXUXUXUXJXUXAXLXxXCXGXJXUXUXHXBXJXGXGXJXLXHXPXJXGXGXAXJXPXIXPXIX",
"UXUXUXUXGXxXxXxXJXUXUXUXPXxXxXxXxXUXUXPXUXGXxXBXxXAXUXUXMX$X#XgXjX$X$XCXPXUXSXlXxXxXPXUXLXUXUXxXxXxXMXPXUXUXUXHXxXxXxXGXUXUXUXUX",
"UXUXUXUXMXxXxXxXGXUXUXUXUXxXxXxXBXUXUXUXUXxXxXUXPXIXPX4Xe ; > n n 8 ; e 4XPXUXHXUXxXxXUXUXUXIXBXxXxXxXPXUXUXUXJXxXxXxXGXUXUXUXUX",
"UXUXUXUXGXxXxXxXJXUXUXUXPXxXxXxXDXPXUXUXUXUXlX@XS T.D ; 8 8 7 7 8 O 8 9 > D S T.@XcXUXUXUXUXPXDXxXxXxXUXUXUXUXJXxXxXxXGXUXUXUXUX",
"LXJXJXGXGXJXPXJXPXGXJXGXGXJXPXGXVXLXLXVXJXkXn % 8 7 8 = $ & p g g p & # = 8 8 8 % n jXKXNXPXLXKXGXPXJXGXHXJXJXLXGXGXJXGXGXJXJXGX",
"xXAXxXMXPXUXUXUXJXxXxXxXAXUXUXUXPXmXFXxXJXZ 8 n r q d 7.0.4.s.3.3.s.w.0.7.d q w n 4 Z JXzXCXmXUXUXUXPXAXxXxXxXGXUXUXUXPXGXxXCXxX",
"xXbXxXxXPXUXUXUXGXxXxXxXJXUXUXUXPXDXbXSXpX8 e O p 7.a.2.w.w.1.0.w.1.0.e.q.3.7.& O v 8 pXSXxXAXUXUXUXUXJXxXCXxXHXUXUXUXPXxXxXbXxX",
"xXxXxXxXUXUXUXUXPXxXxXxXAXUXUXUXUXSXbXUXh.8 O g w.0.2.5.2.q.q.w.w.2.2.2.5.4.q.w.a O 8 T.UXbXnXIXUXUXUXxXxXxXxXLXUXUXUXUXxXxXxXxX",
"AXJXAXGXJXPXPXIXJXGXJXGXJXPXJXUXFXHXCX+Xe - j w.2.4.w.q.q.2.1.9.1.1.9.2.a.e.0.3.e.7.- r +XAXHXLXUXJXPXGXGXJXAXJXUXLXPXJXGXGXGXDX",
"UXUXUXPXGXxXxXxXGXPXUXUXPXGXxXxXSXfXz q % f s.5.6.a.3.7.t.y.v.b.b.v.y.t.7.1.3.6.2.2.f 8 9 l kXGXxXxXGXUXUXUXPXGXxXxXxXGXPXUXUXUX",
"UXUXUXUXMXxXAXxXGXUXUXUXLXxXxXxXUXD 4 7 a s.5.q.9.>.x.A.D.K.L.K.L.P.K.H.G.v.>.2.w.1.s.g O % D IXCXxXxXJXUXUXUXGXxXxXxXGXUXUXUXUX",
"UXUXUXUXGXxXAXxXJXUXUXUXUXxXxXxXvXm 7 @ 7.9.3.1.x.A.P.J.J.L.J.J.L.J.J.J.H.P.A.y.1.9.4.>.$ , B CXxXMXxXPXUXUXUXJXxXBXxXGXUXUXUXUX",
"UXUXPXUXGXMXxXbXJXPXUXUXUXxXxXGXgXe % u 2.4.>.v.I.L.L.L.Z.M.m.| ] ] M.G.L.L.J.I.v.>.2.4.u O e gXJXxXxXPXUXPXUXJXbXxXMXGXUXPXUXIX",
"xXGXxXGXLXUXUXUXGXGXxXGXGXPXUXUX@X, # a 4.1.z.[.D.P.M.' L H H ~ ~ K H K ' M.P.J.[.l.9.5.:.# = @XPXUXPXJXGXxXGXDXUXUXUXPXGXxXxXBX",
"GXxXxXxXPXUXUXUXGXAXxXxXGXUXUXPXz e @ ,.9.y.P.C.[.' L ( / _ ) _ ( / / _ ( L ` S.J.P.y.2.:.@ w n PXUXUXGXxXxXGXJXUXUXUXPXxXxXBXDX",
"xXxXxXxXIXUXUXUXJXxXxXAXDXUXUX$X- t p :.7.A.J.].U ^ ) ~ K K K K T ^ K ^ / ) ^ R S.J.A.7.,.i t - $XUXUXGXxXxXxXJXUXUXUXUXxXxXbXxX",
"xXxXxXxXUXUXUXUXPXcXxXxXxXUXUXS % r i :.y.J.[.` ) / T Q O.-.;.(.(.(.#.O.{ K _ / ' S.C.y.:.i r % S UXUXxXMXCXcXLXUXUXUXPXxXxXxXxX",
"KXPXIXPXPXBXGXGXJXUXUXJXJXGXLX X. 9 i a l.I.| ( T { `.3X2X6X6XwX6X1X6X6X`.(.{ K ( | I.l.a i 9 .  XPXGXGXJXPXPXJXAXGXJXJXJXPXLXPX",
"UXUXUXUXxXxXxXxXMXUXUXUXUXcXGXxX%.8 p a N.S.H K *.wXwXwXwX2X5X6X7X7XwXwXrXwX1X).K H S.N.a p 8 %.DXGXxXUXUXUXUXMXxXxXxXxXUXUXUXUX",
"UXUXUXUXMXGXxXxXPXUXUXUXPXxXxXCXKXM # a k.] J (.6X*.V B C -X6X2X1X2X=XC N V E.5X(.H ] z.u @ M UXGXxXxXHXUXUXUXPXxXxXGXGXUXUXUXUX",
"UXUXUXUXxXxXxXxXMXUXUXUXIXzXNXCXmX% X s c.Y { R.y 1 1 < < +.dXwX1XdX+.< 1 1 2 y !.{ T k.i # 9 ZXCXmXzXUXUXPXUXMXxXxXMXxXUXUXUXUX",
"PXJXJXPXGXJXJXGXGXPXLXUXFXHXHXGXAXD < # n.5 G J P { ;.[ F L _.>X<X).J Q *.Q R I L F 5 n.$ + N HXAXHXJXLXPXJXIXHXGXJXGXGXPXJXJXPX",
"xXxXGXxXPXUXUXUXIXlXCXxXbXUXUXIXIXsX*   k P H :X$.` eX<X` Q P ! ! I { [ qXtX[ | [ H 5 k * ; sXIXIXUXUXBXDXDXcXLXPXUXUXPXGXxXxXxX",
"xXxXxXxXUXUXUXUXHXHXmXzXvXUXUXHX Xr q V Q.y G _.qXY { hXR.P Q ,X-XF `.$.' dX=XU [ F x Q.o.* l  XHXUXUXvXgXmXHXGXUXUXUXUXxXxXGXxX",
"xXxXxXxXPXUXUXUXGXxXmXAXGXUXpXb % 8 % <XrX:XI Y eX;.5 R.hXW { rXwX{ [ <X5 @.hX$.P I :XrX2X: 7 # b pXUXGXGXDXxXGXUXUXUXPXcXxXxXxX",
"DXGXGXGXPXIXUXUXHXFXFXDXIX:X~.p.a X ; ,X;.W.I 5 @.tX` 5 eX{ #.6XwX#.1 ).).5 _.hX[ ! W.^.5X$ + h p.~.#XJXAXFXCXGXUXUXPXJXGXGXGXxX",
"UXUXUXUXBXxXxXxXHXPXUXIX+X< R A.<.* q E.2X(.[ F 6 &X:X6 y W ;X6XwX,X! 5 :X[ 6 XXQ [ ;.1X}.7 & 8.A.R < +XPXIXUXHXxXxXGXGXUXUXUXUX",
"UXUXUXUXBXMXxXCXNXPXUX4X= v < ` z l % - XX`.&X{ G F [ J J @.>X6X6X>X@.G F U G J { =X`.E.% q 9 z ` 2 v = 0XUXPXNXxXxXxXGXUXUXUXUX",
"UXUXUXUXxXxXxXxXFXLXJXl w q , M t q # 9 o V &.6X`.$.O.;.,X-X*.R.R.E.=X=X=.=.=.`.6X&.C O q X v q M O 8 w l LXPXJXCXxXxXBXUXUXUXUX",
"UXUXUXUXGXGXxXxXNXPX#X9 0 .  Xg.:.d o r % X r >XwXrXwXwX6X5X>X;X,X=X<XwXtXrX7XtX,Xq o ; e $ p ,.g. X+ r 9 #XPXNXxXxXBXGXUXUXUXUX",
"GXGXGXBXPXIXUXUXMXUX.XX X OX0Xx.B.t.> t + l 8 &.rX2X1X6X_.@.=.#.O.-.@.T.C k } rX&.8 l + t > t.B.x.0XOXX X .XUXDXUXUXUXIXCXGXJXAX",
"xXxXxXcXUXUXUXUXPXMXkX.XiXUX[ H X.} @ s @ = & : <X6X6XrX).o.#XoX$X%.y x o.o.&X5X; & = @ u @ x._ H o.PXuX.XgXDXPXUXUXUXPXxXxXxXxX",
"xXxXxXxXIXUXUXUXPXlXVXLXUXsX4 0 1 < i.f.t.g r.8.C 5XwX<X2X-./.`.`./.#.5XeXwXwXC r.r.g t.f.p.< 2 8 4 sXUXUXVXgXVXUXUXUXPXcXxXAXxX",
"xXxXGXxXPXPXUXUXVXCXmXgXKXOX4 q * z ..X.} x.m...C ~._.wXtX*X#.=.-.=.:X6X9X`.+.y...m.x.| X...n o e 8 OXUXfXzXBXKXUXUXUXPXbXMXxXxX",
"JXPXJXPXGXJXJXGXJXLXLXJXIXS : r = A G < < Y J 3 x E 2 n XX,XrX1X3XrX,X*Xn < o.y 1 J Y < 2 3 A % 8 8 S UXPXUXLXGXJXJXJXGXLXPXPXJX",
"UXUXUXUXxXxXxXxXFXUXPXUXJXV r X e .X: 0 * + r - 8 N > X @XfXE.:X=XT.kX@X. q M = 9 t + $ r > .Xr % r C JXUXPXIXFXxXxXxXBXUXUXUXUX",
"UXUXUXUXGXCXxXxXBXUXUXUXUX%.- . }.sX; r 4 O > r O S l O n 0X+.W.&X+.0Xv r M |.&.0 q O 4 w = aX|.. ; %.UXUXUXUXGXxXxXGXxXUXUXUXUX",
"UXUXUXUXBXxXxXxXIXIXUXUXPXfXA A cXIXN - . 9 Z 9 . S #X; n.Z.M.~.c.b.A. .+.:X4X&Xo A q o 9 N UXlXA V gXPXUXUXUXPXxXxXxXAXUXUXUXUX",
"UXPXIXJXJXJXGXbXGXUXIXLXJXPXUXKXPXJXaXN l  XIX|.n pXcXc.L.L.K.U.G.P.[.C.'.&X;XT.S UX.Xe m aXJXIXLXUXJXJXLXIXUXGXAXGXGXJXJXPXPXIX",
"xXxXxXxXPXUXUXUXHXcXMXbXxXPXUXIXIXmXJXHXbXUXUXUXUXLXQ.V.K.G.H.J.H.F.F.U.'.-X&X4XUXUXUXBXJXPXxXIXIXUXUXxXbXBXlXJXPXUXUXUXxXxXxXBX",
"xXBXxXxXUXUXUXUXJXAXxXAXGXUXUXUXUXJXcXcXxXJXUXIXVXfXz.L.G.Z.H.F.J.L.G.b.&XR._.XXIXUXPXBXxXxXGXUXUXUXUXAXAXxXbXGXUXUXUXPXxXxXxXxX",
"CXxXxXxXPXUXUXUXPXbXAXzXPXUXUXUXUXbXAXCXAXPXPXUXKX$Xc.P.b.Z.P.H.D.H.G.M.~.T.V :XUXUXLXCXxXxXbXUXUXUXUXPXcXAXxXJXUXUXUXJXxXxXCXBX",
"bXMXxXBXPXUXUXUXLXMXMXBXxXPXUXUXUXAXHXmXDXHXPXUXPX4X@.~.c D.K.D.D.L.G.c ~.=X:XIXUXPXKXxXxXJXbXUXUXUXPXMXBXGXxXGXUXUXUXPXGXxXxXBX",
"UXUXUXIXGXxXxXGXGXUXUXUXKXxXxXxXMXPXUXIXUXBXGXcXAX#X3X:XT.V.I.P.J.J.V.#XoX`.eXFXxXxXJXUXPXIXPXxXxXxXmXKXUXUXUXHXDXxXxXGXUXUXUXUX",
"UXUXUXUXBXxXxXxXGXUXUXUXUXxXxXxXxXUXUXUXUXGXxXGXGXaXXX&X*.l.Z.A.A.Z.l.yXKXsXHXMXGXxXGXUXUXUXUXxXxXxXxXUXUXUXUXGXxXMXxXbXUXUXUXUX",
"UXUXUXUXGXxXxXxXPXUXPXUXPXMXxXMXxXIXUXUXUXGXxXxXzXKXKXsXOXf >.h f 8.f sXUXUXJXcXxXxXGXUXUXUXUXxXBXxXxXPXUXUXUXPXxXxXxXGXUXUXUXUX",
"UXUXUXUXBXMXxXxXJXUXUXUXPXGXxXxXBXPXUXUXUXGXxXxXxXMXUXUXcXu.d.i.r.d.<.nXPXUXJXmXxXxXGXUXUXUXIXBXxXxXDXIXUXUXPXJXDXMXMXGXPXUXUXUX",
"GXGXGXGXPXIXPXUXJXAXGXGXGXPXJXUXPXGXGXBXGXJXPXUXUXJXxXGXZXg.d.j.j.d.g.ZXFXMXHXJXUXPXJXxXGXGXGXPXIXPXHXJXAXGXGXGXPXPXPXJXGXAXJXGX",
"xXxXxXxXPXUXUXUXGXxXxXxXDXUXUXUXUXGXxXxXMXLXUXUXLXIXMXAXAXg.d.r.j.d.g.CXmXzXPXPXUXUXLXMXxXxXMXUXUXUXUXGXxXxXxXJXUXUXUXIXMXxXxXxX",
"xXxXxXxXIXUXUXUXPXxXxXxXGXUXUXUXIXGXxXxXBXPXUXUXUXHXlXDXPXh.6.i.j.d.h.PXbXMXLXUXPXUXPXbXxXxXBXUXUXUXUXGXxXxXxXHXUXUXUXPXxXxXxXxX",
"xXxXxXAXPXPXUXUXJXxXbXxXxXUXUXUXPXGXxXxXxXPXUXUXUXPXxXNXHX$Xe.j.u.r.$XFXAXZXJXHXUXUXJXxXxXxXMXUXUXUXUXAXxXMXxXJXUXUXUXPXDXxXxXxX",
"JXPXJXGXJXJXPXJXJXGXLXJXGXJXPXJXJXGXJXGXJXPXGXGXJXGXPXBXUXsX<.t.8.8.sXJXAXUXNXJXJXJXLXGXJXPXGXPXJXHXJXGXLXHXGXLXJXPXGXJXGXHXLXJX",
"UXUXUXUXAXxXcXxXGXPXUXUXUXxXxXxXxXUXUXUXUXGXxXxXcXKXIXUXfX^.@.[ @.| R.dXLXUXVXcXxXxXxXUXUXUXUXxXxXxXMXPXUXUXUXGXxXxXxXDXUXUXUXUX",
"UXUXUXUXGXbXxXxXLXUXUXUXUXxXxXxXxXUXUXUXUXGXxXxXLXbXKXUXQ.k ` k k ` k Q.UXUXbXLXxXxXGXUXUXUXUXxXMXxXxXIXUXUXUXGXxXxXxXGXUXUXUXUX",
"UXUXUXUXDXxXxXxXPXUXUXUXPXxXxXxXxXPXUXPXUXGXxXxXcXHXUXIXmX0X4X8X8X$X0XCXUXUXHXzXxXxXJXUXUXUXIXxXxXxXMXPXUXUXUXJXxXxXxXbXUXUXUXUX",
"PXUXKXPXGXGXGXJXJXHXPXLXJXGXAXJXJXJXPXJXPXJXGXGXBXGXUXIXIXPXPXIXIXUXPXUXIXLXBXJXGXGXGXPXPXPXPXJXGXGXGXJXPXPXPXJXGXDXGXGXPXIXPXUX",
"MXxXxXGXPXUXUXUXGXAXMXxXGXPXUXUXUXGXxXxXAXJXUXUXPXPXbXzXzXvXKXKXKXUXvXvXzXxXPXPXUXUXPXxXxXxXGXPXUXUXPXJXxXxXGXAXUXUXIXKXGXMXbXxX",
"xXxXxXxXIXUXUXUXJXxXxXxXGXUXUXUXUXDXxXxXxXUXUXUXUXJXxXGXCXFXUXIXIXIXDXxXGXxXLXUXUXUXIXBXxXxXMXUXUXUXUXGXxXxXxXJXUXUXUXPXMXxXxXxX",
"xXGXMXxXPXUXUXUXPXxXxXxXGXUXUXUXUXxXBXBXCXPXUXUXUXMXxXbXxXGXPXUXUXUXGXxXBXMXMXUXUXUXPXxXxXMXGXUXUXUXUXGXxXxXxXPXUXUXIXUXxXGXMXAX",
"xXAXxXxXUXUXUXUXGXxXxXxXGXUXUXUXUXxXbXxXxXIXUXUXPXPXzXAXAXMXUXKXUXIXMXAXAXzXUXPXUXUXIXxXxXAXxXUXUXUXUXGXxXxXxXJXUXUXUXPXxXxXxXxX"
};
