/* XPM */
static char *_871eb545b9b4dddf7b024a4c0bf4ae34BgVNmYSUF9o1Q04[] = {
/* columns rows colors chars-per-pixel */
"64 64 197 2 ",
"   c #2A2F32",
".  c #2C3135",
"X  c #2E3439",
"o  c #333636",
"O  c #3F3A37",
"+  c #30363B",
"@  c #32393E",
"#  c #3C3C3C",
"$  c #42372F",
"%  c #49382B",
"&  c #553C29",
"*  c #463C33",
"=  c #433D39",
"-  c #613E23",
";  c #3E403E",
":  c #5A412B",
">  c #44433E",
",  c #4E413A",
"<  c #594436",
"1  c #54463C",
"2  c #5C4738",
"3  c #644327",
"4  c #6A452A",
"5  c #6F4B32",
"6  c #77533C",
"7  c #2E3940",
"8  c #353D44",
"9  c #363F48",
"0  c #374047",
"q  c #3A4145",
"w  c #374048",
"e  c #3E454A",
"r  c #4A4746",
"t  c #4B4B45",
"y  c #4E4E46",
"u  c #41464A",
"i  c #454848",
"p  c #565547",
"a  c #5B554A",
"s  c #444C51",
"d  c #4D5151",
"f  c #4D5459",
"g  c #515451",
"h  c #545757",
"j  c #665243",
"k  c #685949",
"l  c #735E50",
"z  c #6D6552",
"x  c #676559",
"c  c #6B675B",
"v  c #716A55",
"b  c #736F5E",
"n  c #79715D",
"m  c #565C61",
"M  c #60696E",
"N  c #7A7562",
"B  c #666E72",
"V  c #8D5631",
"C  c #84583B",
"Z  c #8C5C3E",
"A  c #915A34",
"S  c #AD6B3D",
"D  c #BA703F",
"F  c #845D43",
"G  c #8A664B",
"H  c #916245",
"J  c #9D6541",
"K  c #8C6C56",
"L  c #A46B46",
"P  c #AA6C42",
"I  c #B87041",
"U  c #A87452",
"Y  c #B57B53",
"T  c #C77947",
"R  c #C37A4A",
"E  c #CA7D4A",
"W  c #D27F49",
"Q  c #9A8C3B",
"!  c #A99938",
"~  c #D2A139",
"^  c #EBB236",
"/  c #F2D22C",
"(  c #BE8259",
")  c #948665",
"_  c #9B8A66",
"`  c #9C8D6A",
"'  c #9F916C",
"]  c #A18F69",
"[  c #A5936D",
"{  c #A8976F",
"}  c #A49673",
"|  c #B7A47A",
" . c #BAA579",
".. c #BDA97C",
"X. c #CE824F",
"o. c #D6834C",
"O. c #D78849",
"+. c #C88856",
"@. c #D58752",
"#. c #D58B53",
"$. c #DD8951",
"%. c #E48E55",
"&. c #E4925B",
"*. c #EA945B",
"=. c #EE985E",
"-. c #F1995F",
";. c #D08D60",
":. c #CC9663",
">. c #DA9B62",
",. c #E89963",
"<. c #F39C63",
"1. c #F99F63",
"2. c #DDA36A",
"3. c #C6AA77",
"4. c #C4AD7C",
"5. c #CDB37D",
"6. c #D3B57D",
"7. c #DCB37A",
"8. c #D5B87E",
"9. c #D9BA7F",
"0. c #E2A36A",
"q. c #E4A96D",
"w. c #FCA266",
"e. c #F4A168",
"r. c #FEA569",
"t. c #FDA96D",
"y. c #F6AC71",
"u. c #E8BA7D",
"i. c #F6B275",
"p. c #F4B579",
"a. c #F8B87B",
"s. c #F9BA7D",
"d. c #7A8084",
"f. c #86888D",
"g. c #909297",
"h. c #BDAD82",
"j. c #ACACB2",
"k. c #AFB0B8",
"l. c #BAB6B5",
"z. c #BBB8B6",
"x. c #C0AF80",
"c. c #CBB481",
"v. c #C8B584",
"b. c #D1B781",
"n. c #D4BB83",
"m. c #DBBD83",
"M. c #D4BD8A",
"N. c #CDBB95",
"B. c #D3BD92",
"V. c #E2BF82",
"C. c #E9BD81",
"Z. c #C2BFBD",
"A. c #DEC185",
"S. c #DEC48A",
"D. c #DDC98D",
"F. c #DBC498",
"G. c #E3C386",
"H. c #EAC486",
"J. c #EAC887",
"K. c #E4C689",
"L. c #E9C788",
"P. c #E6C98C",
"I. c #EBCC8C",
"U. c #F4C688",
"Y. c #F1CE8E",
"T. c #EED08F",
"R. c #EFD08F",
"E. c #F1D08F",
"W. c #E0C795",
"Q. c #E4CA94",
"!. c #EACE90",
"~. c #ECCF90",
"^. c #EDCF90",
"/. c #E3CC99",
"(. c #E9CE99",
"). c #EED192",
"_. c #EBD596",
"`. c #ECD39A",
"'. c #F0D191",
"]. c #F2D292",
"[. c #F2D393",
"{. c #F4D291",
"}. c #F2D493",
"|. c #F5D592",
" X c #F5D896",
".X c #F8DA96",
"XX c #F3D798",
"oX c #F4DA9A",
"OX c #D5C3A3",
"+X c #DAC6A2",
"@X c #C3C1BF",
"#X c #EBD7A3",
"$X c #BEBEC4",
"%X c #C6C2C2",
"&X c #C9C5C3",
"*X c #C5C4CB",
"=X c #C9C8CE",
/* pixels */
"~.~.I.~.!.P.P.P.G.G.K.J.E.{.{.{.].I.G.G.m.A.G.G.}.}.v.| | |  .....h.h.......I.T.I.I.P.K.K.P.I.~.).].~.~.I.J.I.I.)._.].J.G.H.G.T.",
"~.~.~.~.!.!.T.I.J.J.K.P.E.E.|.|.{.I.P.K.K.A.G.G.5. .h e e e e e e e e e e g | v.P.I.P.K.K.P.L.~.).).~.I.T.T.T.T.).].I.G.G.H.L.).",
"~.].].I.I.!.I.I.I.K.G.P.E.{.|..X{.{.E.I.K.K.M.| > # 9 0 0 0 0 0 w w 0 0 0 0 e d ..P.L.K.K.L.~.~.).].].Y.]._.].~.T.I.J.G.G.P.T.).",
"{.|.|.I.P.S.G.K.P.K.G.I.).}.}.{.{..X|.{.].I.4.> . @ 9 0 0 0 e t y i 0 0 0 0 0 0 d c.I.L.P.P.~.Y.E.E.E.~.I.~.I.P.K.P.P.G.J.T.].|.",
"{.{._.I.K.m.m.A.S.S.S.!._.XXXX}.}.}.{.{.].}.4.o   X 8 8 8 0 F ~ / Q 0 0 0 0 0 0 u 4.L.I.I.P.P.J.~.Y.[.).~.I.K.S.A.G.G.J.J.T.E.E.",
").].).I.S.m.m.A.A.S.K.!.XXoXXX).I.I.I.I.I.T.4.#     o . . @ H ^ / ! 0 0 0 0 . . 8 4.I.L.P.K.K.G.V.I.~.[.].I.K.K.A.S.G.G.J.T.T.T.",
"I.I.~.!.K.G.G.K.G.G.K.I.).XXXX).P.G.G.S.G.G.9.] o     @ 8 0 H O.^ ! 0 0 0 0 ; 0 [ m.G.K.K.G.S.m.V.I.!.[.E.E.!./.J.I.J.J.K.J.P.T.",
"I.P.P.P.I.J.J.J.I.I.P.I.T.XX_.T.G.S.A.m.9.8.9.3.#   . . 8 0 y j k 1 0 0 0 + X ; 4.G.A.G.P.m.m.9.m.W.!.~.I.E.^.).T.T.Y.I.J.G.P.P.",
"S.G.S.K.J.J.J.I.I.I.I.I.I._.].).P.A.M.M.m.9.V.3.& % C * . X X X ; X X X > C % : 3.G.P.P.K.S.m.9.9.S.!.I.I.T._._.I.E.].I.P.K.J.Q.",
"K.G.m.K.I.J.Y.I.T.I.I.I.).).].!.P.A.A.S.L.J.L.3.& & D L Z Z Z Z 6 Z Z Z J X.- 3 6.J.I.T.I.P.m.n.9.A.P.P.I.T._.!.I.Y.).I.I.I.I.I.",
"P.K.G.P.I.I.I.I.I.I.I.I.!.].{.].P.D.D.P.I.Y.E.6.% & D A V V I o.O.X.V V S &.- , 5.I.).).).I.G.A.9.9.A.P.I.I.Q.I.J.I.T.I.P.I.T.I.",
"~.~.J.I.I.I.).).).I.I.Q.~.].].}.!.K.K.J.Y.Y.I.m.G & 6 , $ $ 5 F Z 6 O ; 2 G & G 8.G.I.I.].I.J.G.G.G.K.I.I.!.P.K.G.J.I.I.Q.I.).).",
"I.I.I.I.P.I.).).].I.I.I.I.~.}.].I.K.A.P.I.).J.H.,., 2 ; 8 w X 1 2 . 0 0 e k 2 ,.C.G.G.K.I.I.J.J.J.I.I.I.I.].I.K.G.L.L.I.I.P.I.T.",
"L.I.!.L.K.K.I.).].~.!.I.P.~.).~.P.G.A.K.P.I.P.C.e.A D , X 9 r Y ( 1   ; a >.P e.H.G.H.K.P.J.L.J.I.I.I.I.I.E.I.I.J.J.L.L.I.I.J.I.",
"G.K.I.P.K.K.K.P.I.].I.L.I.~.!.L.G.G.S.K.K.K.K.G.y.o.T F j k L *.t.( 6 k K e.r.y.u.G.H.J.I.P.G.G.G.G.P.I.I.T.I.I.L.L.Y.Y.E.I.I.P.",
"G.K.Q.P.P.K.G.K.J.I.Y.I.P.I.P.K.G.G.P.P.P.S.S.K.G.@.o.=.w.r.%.%.w.r.e.e.r.r.t.L.G.G.J.L.J.P.P.G.S.S.G.J.I.I.Q.I.L.L.L.Y.Y.I.I.P.",
"L.J.I.!.!.P.K.K.J.Y.Y.I.I.J.I.J.K.J.J.T.I.G.P.T.H.@.o.<.r.*.T I E &.,.r.r.r.t.U.P.P.J.P.I.!.T.I.G.G.G.P.I.I.I.).I.E.I.L.I.I.I.P.",
"K.I.I.!.~.I.I.H.J.Y.U.I.I.I.J.J.I.P.K.I.I.I.I.I.H.@.W *.w.L 4 3 4 4 P r.r.r.t.L.J.P.J.P.P.I.!.T.G.G.G.K.P.K.P.I.I.].I.J.J.).I.I.",
"L.I.].].].~.I.I.I.J.J.P.I.J.J.J.K.K.J.I.T.T.I.S.V.#.E o.-.<.@.T T @.<.r.r.r.i.U.I.I.P.I.P.P.I.I.I.I.J.K.G.A.G.G.I.E.I.I.I.E.T.I.",
"I.I.Y.{.].~.I.P.G.A.V.K.P.I.I.I.I.I.I.T.)._.).K.G.7.#.o.=.r.r.w.1.1.r.r.r.i.C.P.K.P.I.).).!.K.P.I.).).P.S.n.m.A.J.~.).I.T.E.E.E.",
"].].Y.{.].~.!.K.G.A.A.S.K.I.L.Y.Y.Y.I.I.}.oX}.I.K.G.7.X.o.-.r.r.r.r.r.r.y.H.I.P.I.P.!.].}.T.P.K.I.).).I.G.A.9.m.S.I.T.T.T.E.|.E.",
"}.{.{.E.~.~.~.J.G.G.S.K.K.K.J.I.Y.].].].}. XoXXXI.S.z 1 P o.@.o.,.1.r.;.k v G.!.).!.!.].}.).T.P.P.).).).J.G.G.G.K.P.I.J.J.E.{. X",
"}.}.}.I.I.I.~.I.P.P.P.P.S.K.K.K.L.I.I.I.I.I.).D.N a o   , 2 < < j l l a X 9 c N n.P.P.I.T.T.D.S.P.P.Q.I.I.L.J.L.K.I.J.G.G.T.|.}.",
"}.}.}.I.P.I.I.I.J.P.Q.P.P.K.G.S.V.G.P.K.G...N c w X 8 @ .         X . + 8 9 9 w x b 4.K.D.P.S.S.S.S.P.I.I.Y.I.I.I.I.K.G.G.T.}.}.",
"}.}.XX).~.L.~.I.I.I.!.I.I.I.K.G.m.S.A.G.3.x 0 8 0 0 0 0 8 + X     . o 8 9 9 q 9 9 9 c 4.K.D.D.A.S.G.P.I.I.E.T.I.I.P.P.G.G.I.).].",
"}.XXXX}.).~.I.P.G.K.P.I.T.I.I.K.m.A.P.x.x 9 0 0 0 0 0 0 0 0 8 X . 8 9 9 9 9 9 q 0 0 0 c ..).!.S.G.G.P.P.I.I.I.I.P.K.K.P.J.I.T.].",
" X|.}._.XX~.!.K.m.n.m.P.I.].T.I.K.I.x.b 9 0 0 0 0 0 0 0 w 0 w @ 7 9 9 9 0 0 0 0 q 0 0 8 b v.`.T.P.G.G.J.L.I.J.P.K.G.P.I.I.I.T.).",
"E.~.!.~.~.).P.m.b.6.6.S.P.I.).).].{.` 8 0 0 0 9 8 0 0 0 0 0 0 + + 9 9 9 0 0 0 @ 8 0 0 9 0 } .XXXI.K.G.K.J.I.P.G.G.K.I.I.I.P.P.J.",
"P.P.P.P.!.).P.A.n.5.8.m.K.P.I.}.|.M.z X w w 9 @ . @ 9 0 0 0 w + o 0 0 0 0 9 @ o @ 9 9 9 w N M.].~.P.G.G.K.I.K.S.S.K.!.!.I.G.G.S.",
"P.P.P.P.I.!.!.P.A.A.G.S.G.K.P.T.{.)   X 0 9 @ .     + 9 0 0 w @ + 0 0 0 0 8       + 9 9 w 7 ) {.I.J.G.S.K.I.P.K.G.S.P.!.P.S.S.S.",
"`._._.I.J.P.P.K.G.P.I.P.K.G.P.I.}.[ = . 8 X o t .     8 0 0 0 X + 9 0 0 0 9 X   t o X 9 9 > _ E.I.J.G.K.P.I.T.K.P.P.P.P.P.K.K.J.",
"oXoX}.~.I.P.P.K.P.I.).!.I.P.P.P.I.a.U O   o v x.p o   8 0 0 0 o o 0 0 0 0 0 q a ..z o o # U i.Y.I.P.K.K.P.!.I.I.I.I.!.P.I.P.I.T.",
"oX`.].).I.P.P.I.P.!.P.P.P.L.P.!.a.r.r.U = z S.I.5.;   0 0 0 w + X w 0 0 0 9 d 5.K.m.z o H *.r.a.~.I.K.V.V.K.K.K.).).].!.P.I.I.I.",
").).).).I.I.Q.I.~.P.P.G.K.L.I.~.p.r.r.<.0.G.I.E.A.>   @ 0 0 w + + w 0 0 0 0 g n.P.K.7.+.%.w.r.a.{.I.I.K.S.S.S.G.~.].~.~.Q.H.I.I.",
"P.P.I.I.I.I.I.).~.I.P.K.K.L.I.~.q.*.r.r.r.a.E.I.A.;   8 0 0 w + + w w 0 0 0 g M.I.G.>.<.r.r.r.a.}.{.].I.P.G.G.K.I.I.~.~.).I.P.K.",
"P.P.K.P.I.I.).I.~.~.P.L.P.P.!.~.J.0.*.r.r.r.i.L.8.>   0 0 0 w + + w 0 0 0 8 g n.G.,.,.1.r.r.a.Y..X|.{.{.].I.I.I.J.I.I.~.].I.P.P.",
"I.P.K.P.I.).).I.~.~.L.P.J.P.!.!.I.J.0.$.*.r.r.i.5.>   @ 0 0 0 + X 0 0 0 0 8 g 5.>.,.1.r.r.C.].[.].{.|.{.{.].E.I.L.P.P.~.].I.I.I.",
"_.).Q.).!.).).I.P.L.L.L.P.K.G.G.K.I.J.u.q.$.%.r.2.# . 8 0 0 0 + X 0 0 0 0 0 t +.<.1.r.C.U.].XX].!.I.I.I.Y.I.I.I.J.G.K.I.!.].].|.",
").).).).!.~.I.I.K.K.K.P.G.G.A.A.S.K.).}.J.0.$.r.&.= . @ 0 0 w + + w 0 0 0 0 r R 1.r.C.L.).oXXX_.I.K.G.G.G.A.G.G.G.G.K.I.I.!.).).",
"I.T.).).].I.I.Q.V.m.V.K.G.S.m.b.9.K.).I.I.u.$.r.,.=   8 0 w 0 + X w 0 0 0 0 r R 1.t.C.P.Y.XXXX!.K.m.M.m.m.8.m.9.G.K.P.P.J.I.P.P.",
"S.I.T.T.I.I.).P.G.G.K.K.K.S.m.8.9.G.!.I.I.u.@.*.o.= . @ 0 0 0 X + w w w 8 @ r R %.*.u.I.I.].].!.P.A.A.M.m.9.9.9.S.K.I.I.L.P.K.A.",
"S.K.T.I.I.I.I.I.K.I.T.T.I.P.A.9.9.A.P.P.I.G.:.Z 6 o X f 0 + s f f s @ @ . . # F :.2.G.I.E.].[.!.P.A.A.G.L.L.J.G.G.K.P.J.L.L.A.A.",
"P.P.I.K.I.!.).I.J.I.).).T.I.G.A.9.9.G.P.I.)...o   . w B u   m d.d.h .         # c.!.I.I.~.].].].P.D.S.P.I.E.E.I.P.P.P.I.J.K.S.A.",
"I.I.I.T.).).!.P.G.G.P.T.T.T.J.K.G.G.K.J.I.)...o . . 8 h e . f M M f X X X . . # c.~.I.I.~.].{.}.!.K.K.J.Y.Y.I.I.J.I.!.!.I.J.G.S.",
"P.I.T.!.).).I.S.A.G.G.P.!.I.L.J.J.I.I.I.I.)...o       q 0 0 8 8 8 8 9 9 8 o 0 z M.].I.I.I.).}._.!.K.S.P.I.!.P.K.K.P.I.T.).Y.J.P.",
"P.I.I.!.P.I.I.K.G.G.u.G.P.J.J.L.I.I.I.I.T.].c.y . . . @ 0 8 r p p t 8 8 9 9 d M.].].I.I.P.!.).).P.S.G.G.I.I.P.S.G.S.K.J.).}.I.J.",
"I.I.P.P.I.).I.K.G.H.L.L.J.P.G.G.K.K.P.I.!.I.I.4.y . . 8 0 X ) K.m._   + 9 8 g b.I.].I.I.Q.).I.J.G.S.G.K.K.K.K.G.K.G.A.G.K.T.T.I.",
"I.I.K.D.P.I.I.P.G.H.L.J.I.P.K.G.G.m.G.I.I.I.I.I.3.>   8 0 . ` J.P.`   X 8 9 d 5.J.I.Y.L.J.I.P.G.G.G.K.P.P.S.K.P.P.G.m.9.V.P.I.E.",
"I.I.P.P.I.!.).I.K.P.J.P.I.!.I.I.G.G.G.P.I.I.!.~.M.>   8 0 X ` J.J.'   X 0 0 d 5.J.Y.Y.I.I.I.I.L.G.I.J.I.I.K.I.Q.I.J.G.m.9.G.H.).",
"K.J.I.I.I.I.I.I.P.P.I.J.P.!.T.T.K.K.G.K.P.P.J.I.m.>   8 0 X ` I.I.'   X 0 0 d b.Y.Y.U.L.I.I.L.L.J.J.K.!.I.I.I.I.I.J.L.G.m.m.K.I.",
"S.G.P.I.I.I.I.I.I.P.I.P.Q.I.P.I.I.I.I.P.S.m.S.L.m.>   @ 8 . ` T.J.]   X 0 0 d A.J.J.L.P.I.L.L.L.J.P.P.I.).I.I.P.G.J.J.P.K.m.m.G.",
"A.G.P.I.T.T.I.J.P.P.I.T.T.P.P.P.I.~.~.J.S.m.m.m.6.>   8 9 X [ {.T.[   . 0 0 s A.J.G.A.K.I.I.I.L.I.I.J.I.]._.!.K.G.G.G.I.P.A.m.m.",
"A.G.K.E.}.E.I.L.P.I.I.].}.I.I.K.I.)._.I.G.m.m.m.5.>   8 9 X ' ].|.[   . 0 0 d 5.G.G.A.S.K.P.I.I.I.Y.J.].[.oX[.I.K.G.G.K.K.A.G.S.",
"K.K.I.).].E.E.Y.).!.~.).}.].).I.P._.).~.J.G.G.G.c.> . @ q . [  X.X{   o 0 0 d 6.G.G.S.S.K.K.J.!.Y.].].].]. XoXoX].P.K.A.D.P.P.P.",
"I.I.P.I.T.Y.J.I.P.P.P.I.!.).P.S.K.P.!.I.I.L.L.L.b.>   8 w X '  X X{   . 0 0 d 8.J.P.P.P.K.S.K.K.J.I.!.!.I.I.).`.I.I.P.K.K.I.~.~.",
").I.K.P.P.G.L.G.G.A.K.G.S.P.S.S.S.K.P.I.I.Y.Y.L.n.>   8 w o '  X X{   X w q d A.P.P.I.I.K.K.G.G.G.G.P.G.V.G.K.Q.I.L.L.K.I.I.~.~.",
").T.P.P.S.V.V.A.m.M.S.S.S.D.S.A.A.K.P.I.I.~.Y.I.n.>   8 9 X ] }. X{   X 0 0 d A.L.I.T.I.I.I.P.G.n.A.S.S.m.m.S.S.V.S.G.K.G.G.G.J.",
"T.!.I.P.S.A.9.A.m.V.S.P.K.Q.D.S.G.G.K.I.I.I.Y.I.8.=   8 9 X ] |. X{   X 0 0 d v.K.K.P.I.).T.I.G.S.A.K.K.G.S.P.P.m.m.G.G.H.m.K.J.",
"I.I.P.P.G.m.S.G.G.K.P.I.).}._.).P.K.G.L.I.I.L.I.6.>   8 9 + ] |..X' . X 0 0 d v.M.m.m.P.I.).~.I.J.J.J.I.I.I.I.I.K.G.m.G.G.8.A.S.",
"A.S.P.I.K.K.K.K.P.P.I.].oXoXoX).I.K.V.H.P./.F.B.[ #   + 8 X n M.`.}   . @ 8 i [ N.N.N.K.J.I.).].[.[.E.).E.I.T.T.L.G.G.K.K.P.G.A.",
"9.A.K.T.I.I.K.K.G.P.J.].}. XXXE.~.K.M.F.OX*X&Xj.8             d.=Xf.    .     # g.$X*XN.F.Q.T.).].}.}.~.T.T.T.I.J.K.G.J.J.Y.H.K.",
"V.A.P.I.!.I.P.K.S.S.G.L.T.E.E.T.Y.H.+X&X*X*X*Xk.g u u u u u u f.=Xg.u u u u u e f j.*X*X@X+XP.T.}.}.}.I.I.T.I.I.P.K.K.J.Y.].T.T.",
"P.P.I.).).P.P.P.G.G.G.J.I.I.T.E.I.P.K.OX&X&X&X%Xz.z.z.z.z.z.z.Z.&XZ.z.z.z.z.l.l.z.%X&X%XF.P.P.!.).].].I.J.I.T.).).).I.I.U.Y.E.}.",
"!.).).).I.P.P.J.G.G.L.K.J.I.T.T.!.P.K.P.Q.(././.Q./.Q.W.Q.Q.Q.`.#X#X`.(.Q.W.W.D.W./.(.(.I.P.K.I.).).).P.K.J.T.oX_._.T.E.J.J.E.}."
};
