/* XPM */
static char *edac9a3da2754bcb989f989ac14c419dhtkldnUxCnuG6aBU[] = {
/* columns rows colors chars-per-pixel */
"64 64 184 2 ",
"   c #282C2F",
".  c #2A2F32",
"X  c #2D3235",
"o  c #2F353A",
"O  c #3B3531",
"+  c #31373B",
"@  c #33393E",
"#  c #383C3F",
"$  c #3E3935",
"%  c #46392E",
"&  c #49392D",
"*  c #493526",
"=  c #543823",
"-  c #453931",
";  c #4D3E34",
":  c #473F3B",
">  c #4B423D",
",  c #53463D",
"<  c #5A473A",
"1  c #5C4230",
"2  c #7B4D2E",
"3  c #624939",
"4  c #6D4E38",
"5  c #69503F",
"6  c #78533C",
"7  c #78723F",
"8  c #353D44",
"9  c #3A3E41",
"0  c #343E48",
"q  c #374047",
"w  c #3B4146",
"e  c #394248",
"r  c #3B454B",
"t  c #434A4E",
"y  c #494847",
"u  c #5C5A44",
"i  c #464D53",
"p  c #4B4F52",
"a  c #4A5156",
"s  c #4C545A",
"d  c #525659",
"f  c #555A5E",
"g  c #585C5F",
"h  c #6A5344",
"j  c #68584E",
"k  c #795741",
"l  c #785947",
"z  c #786051",
"x  c #585E62",
"c  c #5D656A",
"v  c #5B6267",
"b  c #61676B",
"n  c #646A6E",
"m  c #6A6561",
"M  c #77716D",
"N  c #6C6F71",
"B  c #6D7173",
"V  c #757A7E",
"C  c #707375",
"Z  c #8A5837",
"A  c #975D37",
"S  c #965F39",
"D  c #97613C",
"F  c #A36339",
"G  c #A6693F",
"H  c #B86F3F",
"J  c #8C654B",
"K  c #926141",
"L  c #9F6C4B",
"P  c #9F6844",
"I  c #8F6A51",
"U  c #916B53",
"Y  c #A46941",
"T  c #A56C48",
"R  c #AA7147",
"E  c #AE7957",
"W  c #BB7D54",
"Q  c #B47B57",
"!  c #B9764A",
"~  c #C17644",
"^  c #D17F49",
"/  c #8C813E",
"(  c #93873C",
")  c #B8913B",
"_  c #DDA43A",
"`  c #E6A03D",
"'  c #FAD32D",
"]  c #BF835C",
"[  c #D5824C",
"{  c #DC864F",
"}  c #C3845A",
"|  c #CB8555",
" . c #DD8B55",
".. c #DA8B57",
"X. c #DF905C",
"o. c #E28C54",
"O. c #EA9157",
"+. c #EE965C",
"@. c #E9955E",
"#. c #F59A5F",
"$. c #C58C67",
"%. c #CC9069",
"&. c #D79468",
"*. c #DB9F78",
"=. c #CA9674",
"-. c #E0996B",
";. c #F49C62",
":. c #F89F63",
">. c #FDA366",
",. c #FFA669",
"<. c #FFA96F",
"1. c #E3A176",
"2. c #E4A57C",
"3. c #FBAA73",
"4. c #FCB17F",
"5. c #767D81",
"6. c #7B7D81",
"7. c #828586",
"8. c #87898B",
"9. c #8D8F93",
"0. c #AFA59E",
"q. c #9B9CA3",
"w. c #9FA1A5",
"e. c #A4A6A9",
"r. c #A9ABAD",
"t. c #A5A8AA",
"y. c #B8A9A0",
"u. c #AEAEB5",
"i. c #AFB0B5",
"p. c #B2B4B6",
"a. c #BEBAB7",
"s. c #B5B7B9",
"d. c #B7B9BB",
"f. c #BABBBC",
"g. c #DCA785",
"h. c #DBA886",
"j. c #FDB585",
"k. c #FCB98D",
"l. c #FAB78A",
"z. c #EFB690",
"x. c #F9BC93",
"c. c #C4BBB5",
"v. c #CBC2BC",
"b. c #FEC6A1",
"n. c #E5CCBD",
"m. c #F3D4BF",
"M. c #BABBC0",
"N. c #BFC1C2",
"B. c #C1C3C6",
"V. c #C4C5CB",
"C. c #CACACE",
"Z. c #C7C9CB",
"A. c #DCD0C8",
"S. c #CCCCD2",
"D. c #CFD1D2",
"F. c #D3D4D5",
"G. c #D6D7D9",
"H. c #D9DADB",
"J. c #D7D9DA",
"K. c #D4CBC5",
"L. c #EEDACD",
"P. c #E9D5C8",
"I. c #F5DBCA",
"U. c #F9DCC8",
"Y. c #EBDFD8",
"T. c #FBE0CE",
"R. c #EEE3DB",
"E. c #EFE0D6",
"W. c #F3E1D6",
"Q. c #F2E5DD",
"!. c #F7E9DF",
"~. c #DFDFE0",
"^. c #EEEEEE",
"/. c #E4E4E7",
"(. c #F4E9E2",
"). c #F8ECE4",
"_. c #F1EEEC",
"`. c #F2F0EE",
"'. c #EFEFF0",
"]. c #EFF0F0",
"[. c #F3F3F3",
"{. c #F6F7F8",
"}. c #F8F8F8",
"|. c #F8F8F7",
/* pixels */
"}.^.{.^.{.^.{.[.[.[.`.{.^.{.^.{.^.{.^.{.`.{.[.[.[.[.[.^.{.^.|.^.{.^.{.^.[.[.[.[.[.[.`.|.^.|.^.{.^.{.].{.'.{.[.[.[.].{.^.{.^.|.^.",
"^.{.^.{.^.[.`.[.[.'.[.^.{.^.[.^.{.^.[.`.[.`.[.].[.[.`.{.^.{.^.{.`.[.`.{.`.[.`.[.[.].[.].|.^.{.`.[.`.[.].[.`.[.[.[.[.].{.^.[.`.{.",
"{.^.[.`.[.[.[.[.[.[.[.{.`.{.`.{.`.{.].[.].[.[.[.[.[.[.[.{.'.}.].|.[.{.[.{.'.[.[.[.[.[.[.].|.].[.].{.`.[.].{.].[.[.`.[.'.[.`.{.^.",
"^.{.`.{.[.[.[.[.[.[.[.].{.`.[.^.[.].{.[.{.`.[.[.[.{./.J.G.J.G.J.F.J.F.J.F.^.[.[.[.[.[.[.[.].[.].{.`.{.`.[.`.[.[.[.[.[.[.`.[.^.{.",
"[.`.{.^.[.[.[.[.].[.[.[.[.[.].{.].{.].[.[.[.`.[.^.F.t.a i a i i i a a a a e.G./.|.[.[.[.[.[.].[.].[.].[.[.[.[.[.[.[.[.].[.].{.^.",
"^.{.`.[.[.[.].[.[.[.[.`.[.`.[.[.[.[.[.`.[.[.[.^.t.w w q q q 0 8 0 0 0 8 8 r a r./.[.[.].[.[.[.[.{.`.[.[.[.[.[.].[.[.[.[.[.[.`.{.",
"[.[.[.[.[.[.[.[.[.[.[.[.[.[.[.[.].[.[.[.[.[.[.B.# X 8 q q 8 y u u y q q q q q i B.|.[.[.[.[.].[.`.[.].[.[.[.[.[.[.[.[.[.[.^.[.[.",
"[.[.[.[.[.[.`.[.[.[.[.].[.[.[.[.[.[.[.`.[.[.{.N.o   o # 8 8 l _ ' / 0 q q 8 8 8 f.[.[.[.[.[.[.[.[.[.[.[.[.[.[.[.[.[.[.[.[.[.[.[.",
"[.[.[.[.`.[.[.[.[.[.[.[.[.[.[.`.[.[.[.[.[.[.[.C.d X X X o + l ` ' ( q q q + X d Z.[.[.[.[.[.[.[.[.[.[.[.[.'.[.[.`.[.[.[.'.[.[.[.",
"[.].[.[.[.[.[.[.[.[.[.[.[.[.].[.`.[.[.[.`.[.[.[.s.X   X q q h R ) 7 q q q + q i.[.[.[.[.[.[.].[.^.[.[.[.[.[.[.[.[.[.[.[.[.[.[.^.",
"[.[.`.[.'.[.[.[.[.[.[.[.[.`.[.[.[.[.[.[.[.[.[.{.f.O - > X 8 8 @ @ q 8 @ > % O a.[.[.[.[.[.[.[.[.[.[.[.[.[.[.[.[.].[.[.[.[.[.[.[.",
"{.'.{.].[.[.[.[.'.[.].[.[.{.^.{.^.{.].[.].[.[.{.v.= 2 Y 3 < 3 < < 3 3 < R Z = c.[.[.[.[.[.[.[.[.^.{.^.[.[.[.[.[.[.[.[.[.[.^.{.^.",
"^.{.`.[.^.[.[.[.[.[.[.[.[.`.[.'.{.`.[.^.[.[.[.{.a.* 2 ! F F H ^ { ~ D F  .D * a.|.[.[.[.[.].[.].{.`.{.^.{.`.[.[.[.[.[.[.`.{.^.{.",
"{.^.{.`.{.`.[.[.[.[.].{.'.{.^.{.].[.`.{.].[.`.[.K.5 1 4 & & 4 S T 6 % % J 4 4 v.[.[.[.[.[.[.[.[.^.[.^.{.^.[.].[.[.[.[.^.{.^.[.^.",
"^.[.^.{.^.{.^.[.[.[.[.'.[.^.{.^.{.^.{.`.{.`.{.[.U.} ; < 8 q + , , + q q j 1 ] T.[.[.[.[.[.[.[.^.{.`.{.`.[.[.[.[.`.[.`.{.`.{.`.{.",
"|.^.{.^.[.[.[.[.[.[.`.{.`.{.`.{.^.{.].{.].[.`.[.T.X.F D o + y Q } , o 8 ] | ..P.[.{.[.[.].[.[.{.^.[.^.{.[.[.].[.[.[.[.^.{.^.{.^.",
"^.{.^.[.`.[.[.[.[.[.[.^.{.^.{.^.{._.{.^.[.[.[.[.R.z.[ ! J I R O.,.} J I &.,.x.(.[.[.[.].{.^.[.^.{.`.{.^.{.[.[.[.[.[.`.{.^.[.^.|.",
"|.^.{.^.{.`.[.[.[.[.[.[.`.{.^.{.^.{.^.{.`.[.[.[.[.n.[  .,.,.+.{ ;.<.,.,.,.,.U.[.[.[.[.{.`.{.`.{.^.[.^.{.].[.^.[.[.[.[.^.{.^.{.^.",
"^.[.`.{.].[.[.[.[.^.[.[.{.^.{.^.[.^.{.`.{.].[.[.[.P.[  .,...D Z D Y ..,.,.,.m.[.[.`.[.].[.].{.^.{.^.{.`.[.[.[.[.[.[.^.{.`.{.^.{.",
"{.^.{.`.{.^.[.[.[.[.[.[.^.[.`.{.`.{.`.[.].[.[.[.[.n.^ [ +.@.P D A G X.,.,.,.U.[.[.[.`.{.`.[.].{.^.{.`.[.`.[.[.[.[.[.[.[.[.`.{.^.",
"'.[.^.[.`.[.[.[.[.[.[.'.[.^.{.].{.^.[.[.[.`.[.[.[.(.h.[  .,.>.+.O.>.,.>.>.b.!.[.[.].[.[.[.].{.].[.`.{.`.[.[.[.[.[.[.[.[.[.{.^.{.",
"{.`.{.[.[.[.[.[.[.[.[.[.[.[.[.[.[.[.[.[.[.[.[.[.[.[.R.h.[ +.,.,.<.,.,.,.b.(.[.[.[.[.[.[.[.[.`.[.[.[.].[.'.[.].[.[.[.[.^.[.`.[.^.",
"[.[.^.[.[.[.[.[.[.[.[.`.[.[.[.].[.`.[.[.[.[.[.[.[.[.V.m S [ o. .;.>.>.Q M V.[.[.[.].[.[.[.].[.[.[.[.[.[.[.[.[.[.`.[.[.[.[.[.[.[.",
"[.[.[.[.[.'.[.[.].[.[.[.[.[.[.[.[.[.].[.[.[.[.].D.V d . $ < 3 < h z z y o c V V.[.[.[.[.[.[.[.[.[.[.[.[.[.[.[.[.[.[.[.[.[.[.[.[.",
"[.[.[.[.[.].[.[.[.[.[.[.[.[.`.[.[.[.[.[.[.[.F.5.c 8 8 8 + .     . o X + q 0 0 v V C.[.[.[.[.[.[.[.[.[.[.].[.`.[.[.[.[.[.[.[.[.`.",
"^.[.[.[.[.[.[.[.[.`.[.].[.[.[.[.[.].[.[.[.D.n 8 8 q 8 8 8 8 + X . o 0 8 q q q 8 8 n D.[.[.[.[.`.[.[.[.[.[.[.[.[.[.[.[.[.[.[.].[.",
"[.[.[.].[.[.[.[.[.[.[.[.[.[.[.[.[.[.[.[.F.n q q q q 0 q q q q o o 0 q q q q q q q q c D.].[.[.[.`.[.^.[.[.[.[.[.[.[.[.[.[.`.[.[.",
"^.{.`.[.[.[.[.[.[.[.[.[.[.^.{.`.{.^.{.J.n q q q q 8 q q q q q + o q q q q q q q q q q c H.[.{.].{.'.{.[.[.'.[.[.'.[.].[.[.{.^.{.",
"{.^.[.`.[.[.[.[.[.[.[.[.`.{.`.{.^.{.`.Z.w 8 q q 8 + q q q q q 8 + q q q q q o 8 q q q i B.{.`.{.^.[.`.{.[.[.[.[.[.[.[.`.[.^.{.^.",
"^.{.^.{.`.[.^.[.[.^.[.^.{.^.[.^.{.`./.g o 8 8 # X X + 0 q q q + + q q q q + X X @ q q q c F.{.^.{.^.{.^.[.[.[.[.[.[.[.{.'.{.`.{.",
"|.`.{.^.{.[.[.[.[.[.[.{.^.[.`.{.^.|.F.y X 9 8 + #   . o q q q + + q q q q o   # + 8 8 8 y H.`.{.^.{.^.{.^.[.].[.[.^.[.`.{.`.{.^.",
"^.[.^.{.^.[.[.[.[.'.[.'.{.^.{.^.{.^.W.%.> . X n e.y . o q q q + + q q q q q t t.C o + : $.I.|.^.{.`.[.^.{.[.[.[.[.[.[.[.^.[.^.{.",
"{.`.{.'.[.[.[.].[.[.`.{.`.[._.{.'.).l.,.| , b J.`.t.X o q q q 8 + q q q q e r.[.H.B > R :.j.Q.{.^.{.^.{.`.[.[.[.[.[.[.`.}.].[.^.",
"^.{.^.[.].[.[.[.[.[.[.].{.^.{.^.{.R.3.,.>.1.L.[.{.f.X o q q q + + q q q q e p.{.[.A.%.+.>.3.!.^.{.^.[.`.[.[.[.[.[.[.[.[.].}.].}.",
"{.^.{.`.{.`.[.[.[.[.[.[.^.{.^.{.'.(.1.;.,.,.l.!.{.p.X o q q q + + q q q q q d.[.Y.2.;.,.,.j.Q.{.^.{.`.[.].[.[.[.[.].[.].[.].[.].",
"^.{.].[.[.[.[.[.[.[.[.`.{.`.{.^.{.].W.*.;.:.,.k.!.d.X o q q q o + q q q q q p.Q.2.;.>.,.j.W.{.^.{.`.{.].[.].[.].[.[.[.[.`.[.^.}.",
"[.[.[.[.[.[.[.[.[.[.[.[.[.{.^.[.'.{.].E.*.&.;.:.k.y.X o q q q 8 + q q q q q 0.2.;.>.4.k.W.[.].{.`.[.].[.[.[.[.[.[.[.[.[.[.`.{.].",
"`.[.[.[.].[.[.[.[.].[.].[.'.[.[.[.].[.[.[.L.&.o.,.} X o q q q + + q q q q q T ;.,.j.W.^.[.[.[.`.[.[.[.].[.[.[.[.[.[.[.[.[.[.[.[.",
"[.`.[.[.[.[.[.`.[.[.[.[.[.[.`.[.'.[.[.[.[.[.P.o.>.} X + q q q + + q q q q q L ;.<.I.[.[.[.[.].[.].[.[.[.[.[.[.[.[.[.[.[.[.].[.[.",
"[.[.[.[.].[.[.[.[.[.[.[.[.[.[.[.[.[.[.[.[.[.P. .#.W . + q q q o + q q q 8 8 L O.;.I.[.[.[.[.[.[.[.[.[.[.[.[.[.].].[.`.[.[.[.[.[.",
"[.[.[.[.[.[.[.[.[.[.[.`.[.[.[.[.[.[.[.[.[.[.Y.=.Y 6 X 8 i # r p a t + 8 o + 6 %.g.W.[.[.[.[.[.[.[.[.[.[.[.[.[.].[.[.[.[.[.[.[.[.",
"[.'.[.[.[.[.[.].[.[.[.[.[.[.[.[.[.[.'.[.[.[.{.f.+ . + d x . a 5.5.a   X .   o p.[.[.[.[.[.{.].[.'.[.[.[.`.[.[.[.[.[.[.[.[.].[.`.",
"].[.[.[.[.[.[.[.[.[.[.[.[.^.{.[.[.`.[.`.[.[.{.N.+ . . t i + i v c t o + o o o s.|.[.[.[.[.`.{.`.[.[.[.[.[.[.[.[.].[.[.[.[.[.[.[.",
"{.`.[.[.[.'.[.[.[.[.^.[.].{.^.[.^.{.].{.`.[.{.f.X . . + 8 q 8 o o 8 q q @ # n C.[.[.`.[.[.[.].[.].[.'.[.[.[.[.[.[.[.[.].[.'.{.].",
"^.{.`.{.].[.[.[.[.[.[.[.{.^.[.^.{.^.{.`.{.[.[.J.N . . + 8 8 d 7.7.f + q q q p.{.[.[.[.[.[.].{.^.{.`.{.].[.[.[.[.[.[.`.[.].{.'.{.",
"{.^.{.].{.`.[.[.[.[.[.[.^.{.`.{.^.{.^.[.`.[.`.{.J.B X + 0 o 8.[.}.8.  + q e d.[.[.[.[.[.`.{.`.[.'.[.].[.[.[.].[.[.[.[.'.[.`.[.^.",
"^.[.`.[.].[.].[.[.^.[.`.[.`.{.`.{.^.{.`.{.'.[.[.{.f.X + 8 + 7.}.[.8.  8 q e p.{.[.[.[.].{.].{.^.{.`.{.`.{.`.[.[.[.[.`.{.].{.`.}.",
"|.`.{.].[.[.[.[.[.[.[.{.^.{.^.{.`.[.^.{.^.[.[.[.|.p.X + q + 7.].}.8.  @ q q d.{.].[.`.{.].[.].|.'.[.'.{.].[.].[.[.[.{.`.[.].[.'.",
"^.{.`.[.[.[.[.[.[.].[.].{.'.{.^.{._.{.'.[.`.[.[.{.f.X X 0 @ 7.}.].8.  @ 0 r p.}.[.[.[.].[.'.[.'.{.`.{.'.{.`.[.[.[.[.`.{.'.{.'.}.",
"{.^.{.].[.[.[.[.[.[.`.{.`.{.].[.'.{.'.[.'.{.'.[.{.p.X + 0 + 7.`.}.8.  @ 0 0 d.[.[.[.[.{.`.{.'.{.'.[.`.[.].[.[.[.[.[.[.'.[.'.[.^.",
"^.}.`.[.].[.`.[.[.].[.].[.].{.'.[.`.{.`.[.`.{.`.[.f.X + 0 + 7.}.[.8.  @ w r p.[.[.'.[.`.{.'.{.`.{.'.{.].{.`.[.[.[.[.[.{.].{.].[.",
"|.].[.].[.[.[.].[.[.[.[.`.{.`.[.'.{.'.{.[.[.[.[.{.s.X + 0 + 7.].}.8.  8 q 8 f.[.[.[.[.[.`.[.'.{.^.{.`.[.].[.[.[.[.].[.].[.`.{.`.",
"^.[.[.[.[.[.[.[.[.[.[.].[.`.{.].[.'.{.'.[.'.[.'.[.f.X + 0 + 7.{.[.8.  + 0 t p.|.[.[.[.[.[.'.{.'.[.`.[.[.[.[.[.].].[.[.[.[.{.].{.",
"|.].[.`.[.[.[.[.[.[.[.[.[.[.[.[.[.[.'.{.[.[.[.[.[.s.X o 0 + 7.[.|.8.  8 9 0 s.[.`.[.[.[.`.{.`.[.[.[.].[.`.[.[.[.[.[.[.[.[.`.[.`.",
"].[.].[.[.[.].[.[.].[.[.[.[.[.`.[.[.[.[.[.[.[.[.}.a.X + 0 + 7.{.].8.  + r r p.{.[.[.[.[.[.`.{.'.[.[.[.[.[.[.[.[.[.[.[.[.[.[.[.[.",
"[.[.[.[.[.[.[.[.[.[.[.[.[.[.[.[.'.[.[.[.[.[.[.{.[.f.X + 9 + 7.[.[.8.  8 0 0 p.[.[.[.[.[.[.[.'.[.[.[.[.[.[.[.[.[.[.[.[.`.[.[.[.[.",
"[.[.[.[.[.[.[.[.[.[.[.[.[.[.[.[.[.[.[.[.[.[.[.'.'.u.X o 8 + 6.^.[.8.  + 0 0 u.`.'.'.{.{.'.[.'.[.[.[.[.[.[.[.].[.[.].[.[.[.[.[.`.",
"].[.].[.].[.[.[.[.[.[.[.[.`.[.[.[.[.[.].[./.S.S.r.p .   X . # 9.S.V     X X p w.S.S./.'.[.'.{.'.[.[.[.[.[.[.[.[.[.[.[.[.[.[.[.[.",
"{.`.[.[.[.[.[.[.].[.[.[.`.[.'.[.[.[.`.'.F.C.V.V.q.9 9 9 9 9 @ 6.C.6.8 8 9 9 @ p e.V.C.F.'.[.'.{.].[.[.[.].[.[.[.[.[.[.].[.[.[.[.",
"'.[.].[.[.[.`.[.[.[.[.].[.'.{.].[.[.[.]./.C.V.C.B.u.u.u.u.u.i.M.C.M.u.u.u.u.u.u.M.C.C./.[.'.{.'.[.[.[.[.[.`.[.[.[.[.'.[.[.[.[.[.",
"}.'.[.`.[.[.[.[.[.[.[.[.[.[.].{.'.[.`.{.'.'.^._.^.^.^.^.'.^.'./._.^.^.^.'.^.'.^.'.^./.[.`.[.`.{.'.[.].[.[.[.[.[.[.[.[.].[.'.{.^.",
"'.{.].[.].[.[.[.[.[.[.].{.'.[.'.{.`.{.`.{.'.'.[.[.[.'.[.`.{.'.{.'.[.'.{.`.[.[.'.[.[.{.].{.'.{.`.{.'.{.`.[.[.[.[.[.[.`.{.'.{.`.[.",
"}.^.{.'.[.[.[.[.`.[.`.{.`.[.`.{.'.[.`.[.'.[.[.[.{.'.[.'.[.`.[.'.[.'.[.'.{.`.[.[.[.[.`.[.'.[.^.[.`.[.].{.`.[.].[.[.[.{.`.[.'.{.^.",
"^.}.^.{.'.[.[.[.[.[.[.'.}.^.{.^.{.'.{.^.{.'.[.[.'.[.'.{.^.}.^.{.^.{.^.{.'.{.'.[.[.`.{.'.}.].{.^.}.^.{.'.{.].[.[.[.[.`.[.'.{.^.}."
};
